<?xml version="1.0" encoding="UTF-8"?>
<svg width="128px" height="128px" viewBox="0 0 128 128" version="1.1" xmlns="http://www.w3.org/2000/svg" xmlns:xlink="http://www.w3.org/1999/xlink">
    <!-- Generator: Sketch 52.4 (67378) - http://www.bohemiancoding.com/sketch -->
    <title>icon-form</title>
    <desc>Created with Sketch.</desc>
    <g id="Page-1" stroke="none" stroke-width="1" fill="none" fill-rule="evenodd">
        <g id="TopCourses_DoiTac_1366px" transform="translate(-619.000000, -1906.000000)" fill="#1B6DA3">
            <g id="icon-form" transform="translate(619.000000, 1906.000000)">
                <path d="M64,0 C28.6695707,0 0,28.6696 0,64 C0,99.3304 28.6695707,128 64,128 C99.330432,128 128,99.3304 128,64 C128,28.6696 99.330432,0 64,0 Z M64,2.66666667 C97.8892587,2.66666667 125.333333,30.1106667 125.333333,64 C125.333333,97.8893333 97.8892587,125.333333 64,125.333333 C30.110744,125.333333 2.66666667,97.8893333 2.66666667,64 C2.66666667,30.1106667 30.110744,2.66666667 64,2.66666667 Z M38.6666667,29.3333333 C37.9303175,29.333407 37.333407,29.9303175 37.3333333,30.6666667 L37.3333333,97.3333333 C37.333407,98.0696825 37.9303175,98.666593 38.6666667,98.6666667 L81.3333333,98.6666667 C81.6869322,98.6665991 82.0260266,98.5260909 82.2760427,98.2760427 L92.9427093,87.609376 C93.1927576,87.35936 93.3332658,87.0202655 93.3333333,86.6666667 L93.3333333,30.6666667 C93.3332597,29.9303175 92.7363492,29.333407 92,29.3333333 L38.6666667,29.3333333 Z M40,32 L90.6666667,32 L90.6666667,85.3333333 C90.6597228,85.3332791 90.6527786,85.3332791 90.6458347,85.3333333 L81.3333333,85.3333333 C80.5969842,85.333407 80.0000736,85.9303175 80,86.6666667 L80,95.984376 C79.9999152,95.9930558 79.9999152,96.0017362 80,96.010416 L40,96.010416 L40,32.010416 L40,32 Z M49.3333333,37.3333333 C47.1399867,37.3333333 45.333352,39.14 45.3333333,41.3333333 C45.333352,43.5266667 47.1399867,45.3333333 49.3333333,45.3333333 C51.52668,45.3333333 53.3333147,43.5266667 53.3333333,41.3333333 C53.3333147,39.14 51.52668,37.3333333 49.3333333,37.3333333 Z M58.6666667,37.3333333 L58.6666667,40 L85.3333333,40 L85.3333333,37.3333333 L58.6666667,37.3333333 Z M49.3333333,40 C50.0855147,40 50.6666587,40.5813333 50.6666667,41.3333333 C50.6666587,42.0856 50.0855147,42.6666667 49.3333333,42.6666667 C48.581152,42.6666667 48.0000053,42.0856 48,41.3333333 C48.0000053,40.5813333 48.581152,40 49.3333333,40 Z M58.6666667,42.6666667 L58.6666667,45.3333333 L69.3333333,45.3333333 L69.3333333,42.6666667 L58.6666667,42.6666667 Z M49.3333333,50.6666667 C47.1399867,50.6666667 45.333352,52.4733333 45.3333333,54.6666667 C45.333352,56.86 47.1399867,58.6666667 49.3333333,58.6666667 C51.52668,58.6666667 53.3333147,56.86 53.3333333,54.6666667 C53.3333147,52.4733333 51.52668,50.6666667 49.3333333,50.6666667 Z M58.6666667,50.6666667 L58.6666667,53.3333333 L85.3333333,53.3333333 L85.3333333,50.6666667 L58.6666667,50.6666667 Z M49.3333333,53.3333333 C50.0855147,53.3333333 50.6666587,53.9146667 50.6666667,54.6666667 C50.6666587,55.4189333 50.0855147,56 49.3333333,56 C48.581152,56 48.0000053,55.4189333 48,54.6666667 C48.0000053,53.9146667 48.581152,53.3333333 49.3333333,53.3333333 Z M58.6666667,56 L58.6666667,58.6666667 L64,58.6666667 L64,56 L58.6666667,56 Z M49.3333333,64 C47.1399867,64 45.333352,65.8066667 45.3333333,68 C45.333352,70.1933333 47.1399867,72 49.3333333,72 C51.52668,72 53.3333147,70.1933333 53.3333333,68 C53.3333147,65.8066667 51.52668,64 49.3333333,64 Z M58.6666667,64 L58.6666667,66.6666667 L85.3333333,66.6666667 L85.3333333,64 L58.6666667,64 Z M49.3333333,66.6666667 C50.0855147,66.6666667 50.6666587,67.248 50.6666667,68 C50.6666587,68.7522667 50.0855147,69.3333333 49.3333333,69.3333333 C48.581152,69.3333333 48.0000053,68.7522667 48,68 C48.0000053,67.248 48.581152,66.6666667 49.3333333,66.6666667 Z M58.6666667,69.3333333 L58.6666667,72 L74.6666667,72 L74.6666667,69.3333333 L58.6666667,69.3333333 Z M49.3333333,77.3333333 C47.1399867,77.3333333 45.333352,79.14 45.3333333,81.3333333 C45.333352,83.5266667 47.1399867,85.3333333 49.3333333,85.3333333 C51.52668,85.3333333 53.3333147,83.5266667 53.3333333,81.3333333 C53.3333147,79.14 51.52668,77.3333333 49.3333333,77.3333333 Z M58.6666667,77.3333333 L58.6666667,80 L85.3333333,80 L85.3333333,77.3333333 L58.6666667,77.3333333 Z M49.3333333,80 C50.0855147,80 50.6666587,80.5813333 50.6666667,81.3333333 C50.6666587,82.0856 50.0855147,82.6666667 49.3333333,82.6666667 C48.581152,82.6666667 48.0000053,82.0856 48,81.3333333 C48.0000053,80.5813333 48.581152,80 49.3333333,80 Z M58.6666667,82.6666667 L58.6666667,85.3333333 L69.3333333,85.3333333 L69.3333333,82.6666667 L58.6666667,82.6666667 Z M82.6666667,88 L88.7812507,88 L82.6666667,94.114584 L82.6666667,88 Z" id="Shape"></path>
            </g>
        </g>
    </g>
</svg>