<?xml version="1.0" encoding="UTF-8"?>
<svg width="191px" height="128px" viewBox="0 0 191 128" version="1.1" xmlns="http://www.w3.org/2000/svg" xmlns:xlink="http://www.w3.org/1999/xlink">
    <!-- Generator: Sketch 41.2 (35397) - http://www.bohemiancoding.com/sketch -->
    <title>icon_branding</title>
    <desc>Created with Sketch.</desc>
    <defs></defs>
    <g id="Page-1" stroke="none" stroke-width="1" fill="none" fill-rule="evenodd">
        <g id="TopCourses_DoiTac_1366px" transform="translate(-201.000000, -1149.000000)" fill="#1B6DA3">
            <g id="Block-icon-1" transform="translate(111.000000, 1149.000000)">
                <g id="icon_branding" transform="translate(90.000000, 0.000000)">
                    <path d="M65.8148265,0.00213233372 C65.2732825,0.0273089596 64.7819237,0.32715982 64.5114164,0.797536109 L51.800088,22.8389224 C51.5889954,23.2047062 51.5318749,23.6395268 51.6413198,24.0475187 C51.7507647,24.4555105 52.0177881,24.8031714 52.3835189,25.0138522 L54.4131113,26.1883168 L29.5242318,26.1883168 C25.515492,26.1883168 22.2437677,29.4789181 22.2437677,33.496089 L22.2437677,70.7060734 L20.164522,71.9053928 L14.0260925,75.4536381 L13.0454335,76.0191193 C13.011674,76.0365679 12.9785502,76.0552231 12.9461263,76.0750489 C12.8992958,76.0996836 12.8537231,76.1266442 12.8095786,76.1558301 L10.7861932,77.324081 L5.39256812,80.4435528 C2.96251551,81.8481945 2.07822939,84.9226464 3.30090918,87.4095527 L1.40786475,88.5032329 C0.0715863588,89.2757258 -0.400327745,91.0427026 0.371345222,92.3808263 L2.86023317,96.7058311 C3.6318108,98.0437671 5.39674697,98.516081 6.73321603,97.7435849 L8.62626078,96.6499047 C9.79411185,98.3993794 11.8557479,99.2514859 13.8523048,98.9491211 L16.8439356,109.003521 L14.2991874,109.003521 C13.4216897,109.003609 12.7103591,109.715786 12.7102714,110.594329 C12.7102714,120.212351 20.4939145,128 30.1014533,128 L154.210694,128 C163.312221,128 170.766338,121.005079 171.527394,112.091924 L173.240446,112.091924 C175.752617,112.091924 177.945128,110.14944 177.945128,107.630206 L177.945128,104.137887 L177.945128,93.3129377 L177.945128,84.743706 C177.945128,83.1302072 177.042277,81.7550973 175.73554,80.9717518 L177.814786,73.2041376 C178.413171,70.9703575 177.060613,68.6320294 174.829362,68.0340131 L165.233799,65.4675919 L165.233799,62.2300503 C165.233799,60.2810375 163.877691,58.6262095 162.06838,58.153606 L162.06838,33.496089 C162.06838,29.4789181 158.796655,26.1883168 154.787916,26.1883168 L129.899036,26.1883168 L131.928629,25.0138522 C132.294359,24.8031714 132.561383,24.4555105 132.670828,24.0475187 C132.780273,23.6395268 132.723152,23.2047062 132.512059,22.8389224 L119.800731,0.797536109 C119.5903,0.431369598 119.243052,0.164028398 118.835544,0.0544537433 C118.428037,-0.0551209111 117.993733,0.00206869144 117.628384,0.213413848 L109.373469,4.9858365 C109.007739,5.19651726 108.740715,5.54417821 108.63127,5.95217004 C108.521825,6.36016187 108.578946,6.79498246 108.790039,7.16076631 L109.038307,7.58953985 L104.643962,10.1311031 C104.518552,10.0607862 104.392926,9.99177697 104.265352,9.92603844 C104.174857,9.87959004 104.08999,9.82103878 103.998462,9.77690023 C102.971946,9.27998286 101.88392,8.93283047 100.76477,8.73914647 C100.717503,8.7309379 100.669387,8.72816035 100.622015,8.72050539 C100.274005,8.66451851 99.9254219,8.60920613 99.573083,8.58379457 C99.4394679,8.57414473 99.3037268,8.58897742 99.1696477,8.58379457 C98.9792224,8.57605688 98.7896203,8.58256328 98.5986326,8.58379457 C98.2055061,8.5872339 97.8130121,8.5974787 97.4193581,8.639721 C97.3489405,8.64707689 97.2787041,8.6435453 97.208331,8.65214839 C97.1081022,8.66440079 97.0104983,8.70569179 96.9104093,8.72050539 C96.3660085,8.80250197 95.8266827,8.92268112 95.2904585,9.08092193 C95.0675654,9.14632321 94.8468935,9.20709206 94.6263424,9.28598657 C93.9431276,9.53098684 93.2709812,9.81788898 92.6215753,10.1932432 L92.615369,10.1932432 L92.1746926,10.4480206 L92.1684863,10.4480206 L91.6595375,10.1683884 C90.9285821,9.77066745 90.1630931,9.44745035 89.3940896,9.20520218 C88.6244091,8.96327535 87.8438064,8.79931081 87.0603691,8.70807482 L87.0541628,8.70807482 L87.0479565,8.70807482 C86.3371835,8.62600188 85.6251362,8.62556599 84.9190569,8.66457896 C84.7333952,8.67486512 84.5513086,8.69577788 84.3666607,8.71428851 C83.8222949,8.76875458 83.2896203,8.86265359 82.7591257,8.98771015 C82.5720785,9.03170552 82.3852252,9.06556745 82.2005232,9.11820728 C81.5252943,9.31096225 80.8542537,9.54507503 80.2205845,9.85146774 C80.0407446,9.93853264 79.8748808,10.053688 79.6992198,10.1497442 L75.2738407,7.58953985 L75.5221089,7.16076631 C75.7332015,6.79498246 75.790322,6.36016187 75.6808771,5.95217004 C75.5714321,5.54417821 75.3044088,5.19651726 74.938678,4.9858365 L66.6837634,0.213413848 C66.4202884,0.0611656558 66.1187007,-0.0121652034 65.8148265,0.00213233372 Z M66.4727362,3.76165918 L71.9780825,6.94327428 L71.916013,7.04891345 C71.7376499,7.23640196 71.6076872,7.46464158 71.5374061,7.7138201 L64.0148801,20.7509875 C63.7825951,20.9676624 63.6204602,21.2490313 63.5493786,21.5588187 L60.8804954,26.1883168 L60.7811881,26.1883168 L55.3503239,23.0502007 L66.4727362,3.76165918 Z M117.839411,3.76165918 L128.961824,23.0502007 L123.537166,26.1883168 L123.437858,26.1883168 L120.595189,21.2667559 C120.572606,21.2199957 120.547748,21.1743708 120.520707,21.1300451 L112.340271,6.94327428 L117.839411,3.76165918 Z M73.6849247,10.3485951 L76.9372388,12.2314654 C76.8838544,12.2853683 76.8345662,12.3441836 76.7820684,12.3992478 C76.625182,12.5636355 76.46521,12.7216854 76.3165669,12.8963752 C75.8449925,13.4509371 75.4039857,14.0422498 75.0255726,14.6984611 L71.7608459,20.3532856 L71.7608459,20.3594993 C71.7201505,20.4301471 71.7006768,20.5058727 71.6615386,20.5769913 C71.3449757,21.1532677 71.0732266,21.7344597 70.8670806,22.3293645 C70.7565079,22.6355631 70.6789243,22.9447525 70.5939872,23.2552654 L67.3292605,21.3661814 L73.6849247,10.3485951 Z M110.627223,10.3485951 L116.982887,21.3661814 L113.693335,23.2676928 C113.477605,22.4087489 113.162704,21.5652073 112.725088,20.7385569 C112.684024,20.6051166 112.625593,20.4776692 112.551302,20.3594993 L112.551302,20.3532856 L109.286575,14.6984611 C108.99566,14.1939874 108.666249,13.7224975 108.318331,13.2754328 C108.203328,13.1279395 108.07905,12.9939076 107.95834,12.8528762 C107.774712,12.6378085 107.601993,12.4127697 107.405943,12.2128243 L110.627223,10.3485951 Z M98.8593133,11.759196 C99.0205851,11.7621835 99.1827785,11.7476022 99.3434369,11.759196 C100.035067,11.809071 100.712936,11.945575 101.373029,12.1506842 C101.466391,12.1798119 101.553708,12.2241254 101.646123,12.2563233 C102.17948,12.4412802 102.698484,12.6807572 103.191591,12.964729 C103.345033,13.0538556 103.496101,13.145817 103.64468,13.2443644 C104.074898,13.5275504 104.472798,13.8599146 104.854989,14.2199748 C104.985503,14.3435901 105.128156,14.4542435 105.252218,14.5866082 C105.730241,15.0949412 106.170784,15.6542119 106.537006,16.2892686 L109.80173,21.9440931 L109.80173,21.9503068 C110.876514,23.8140429 111.194288,25.862583 110.900319,27.8039791 C110.735701,27.672852 110.572253,27.5392751 110.385161,27.4311352 L99.5110167,21.1424725 C99.5484389,20.3849395 99.4034281,19.6228981 99.0641341,18.9054026 C99.0226774,18.7651834 98.9621096,18.6313562 98.8841417,18.5077007 C98.8673786,18.4786334 98.8455755,18.4554745 98.8282786,18.4269163 C98.7992849,18.3839953 98.7682142,18.3425181 98.7351776,18.3026329 C97.3441547,16.1720325 94.4578919,15.5388338 92.2243463,16.829895 C92.2033775,16.841849 92.1826834,16.8542796 92.16228,16.8671772 L91.7402258,17.1405988 L85.7507559,20.6018493 C84.5891947,21.2732655 83.229286,20.8620958 82.0639749,19.9804385 L85.3473206,18.0789271 L92.9691507,13.666921 C92.9837624,13.6588648 92.9982467,13.6505788 93.012598,13.6420662 L94.204285,12.9523016 C94.2063595,12.9502361 94.2084283,12.9481649 94.2104913,12.9460879 C94.696528,12.6651259 95.1979391,12.4513468 95.7063096,12.2687507 C95.87776,12.2074537 96.0483873,12.1573878 96.2214648,12.1071851 C96.5518449,12.0105722 96.8865723,11.9408057 97.2207436,11.8834762 C97.437726,11.8470595 97.6547942,11.8041522 97.8724471,11.7840508 C98.201359,11.7524796 98.5315453,11.7541881 98.8593133,11.759196 Z M84.937679,11.7964781 C86.0926144,11.7186495 87.2758388,11.8600564 88.4320517,12.2314654 L88.438258,12.2314654 C88.5645737,12.2721232 88.6851216,12.3468498 88.8106618,12.393031 L83.7521982,15.3198687 L78.5944274,18.3150634 C77.8387294,18.7557754 77.5807579,19.7250114 78.0172028,20.4837795 C79.9435728,23.8245072 84.1039715,25.2250669 87.339672,23.3546908 L92.1808989,20.5583502 L95.4332131,22.4412205 C95.4976408,22.4941615 95.5661253,22.5419502 95.6380339,22.584145 L96.9104093,23.3174055 C96.9347643,23.3346733 96.9596005,23.3512508 96.9848881,23.3671182 L108.796245,30.1901904 C109.375929,30.5252559 109.556103,31.1838884 109.249334,31.7685706 C109.198463,31.8376848 109.147138,31.9058128 109.094167,31.9736352 C108.726031,32.4256441 108.135945,32.5604332 107.604558,32.2532706 L94.5270352,24.6969347 L93.1553526,23.9015309 C92.3945513,23.4642355 91.423758,23.7262433 90.9855674,24.4871352 C90.5473769,25.2480271 90.8072661,26.2204619 91.5664365,26.6605894 L92.9381191,27.4497763 L106.015642,35.012329 L106.021848,35.012329 L107.343877,35.7766611 C107.401839,35.8505708 107.466226,35.919194 107.536285,35.9817258 C107.993639,36.3804776 108.117044,36.9240915 107.821794,37.4358225 C107.735777,37.5851293 107.627229,37.7067402 107.505251,37.8024559 C107.261263,37.9938682 106.961978,38.0764566 106.654933,38.0323753 C106.501399,38.0103363 106.344764,37.9570156 106.195637,37.8708097 L104.830161,37.0816197 L104.823955,37.075406 L91.7464321,29.5190701 L90.3747495,28.7236663 C89.613991,28.2868183 88.6436021,28.5489344 88.2055408,29.3096009 C87.7674796,30.0702674 88.0270717,31.0424064 88.7858334,31.4827216 L90.1575161,32.2719117 L103.235039,39.8344612 C103.383501,39.9209057 103.505876,40.0290011 103.601233,40.1513819 C103.694922,40.2724264 103.767961,40.4061338 103.806057,40.5490838 L103.806057,40.5552975 C103.88107,40.8431859 103.84027,41.1664253 103.669509,41.4625541 C103.583453,41.6119468 103.474949,41.7334559 103.352968,41.8291875 C103.108996,42.020638 102.809699,42.1032328 102.502647,42.0591069 C102.349126,42.0370393 102.192487,41.9837472 102.043352,41.8975413 L99.287577,40.3067338 L87.5941464,33.5458017 L84.8383717,31.9549942 C84.0833782,31.5572666 83.1494185,31.8273851 82.7225622,32.5669255 C82.295706,33.306466 82.5282871,34.2515056 83.2494557,34.7078357 L86.0052303,36.2986433 L97.698661,43.0595754 C98.2944409,43.4039534 98.477001,44.0975518 98.1331278,44.6938819 C98.0471039,44.8431888 97.938565,44.9647997 97.8165871,45.0605154 C97.5725995,45.2519372 97.2733113,45.3345224 96.9662692,45.2904348 C96.8127354,45.2683957 96.6561096,45.215075 96.5069739,45.1288692 L82.895674,37.2618295 L82.8770519,37.2493989 L82.0577686,36.7771295 L77.7875568,34.3039201 C77.4235107,34.0934786 77.1049362,33.8327866 76.7820684,33.5830871 C76.7618726,33.5639038 76.7411767,33.5452552 76.7200022,33.5271606 C75.4338255,32.5076693 74.4857098,31.1923992 73.9145739,29.742779 C73.901799,29.7097507 73.8897105,29.6765219 73.8773329,29.6433535 C73.7142434,29.214545 73.5880675,28.7742508 73.4925165,28.3259644 C73.4641003,28.18828 73.4461837,28.0486485 73.4242439,27.9096215 C73.3636554,27.5404746 73.3200428,27.1668448 73.3063146,26.7910833 C73.2990119,26.5534739 73.3132772,26.3152696 73.3249367,26.0764639 C73.3378991,25.7819164 73.3443374,25.4886924 73.3870029,25.1940621 C73.4356428,24.8667884 73.5248446,24.5430336 73.6104427,24.2184484 C73.6687813,23.9950259 73.7078241,23.7684599 73.7842319,23.5473281 C73.9730269,23.0040673 74.2113993,22.4695623 74.5104174,21.9503068 L74.5104174,21.9440931 L77.775141,16.2892686 C79.3526391,13.5536969 82.0503357,11.991053 84.937679,11.7964781 Z M59.5646759,20.2973592 C59.0411472,20.3387631 58.5718683,20.6364813 58.3109194,21.0927629 C57.8754274,21.8531421 58.1363254,22.8229463 58.8943503,23.2614791 C59.6522038,23.6985397 60.620359,23.4402438 61.060491,22.6835705 C61.2721437,22.31855 61.330234,21.8842806 61.2219736,21.4763648 C61.1137133,21.0684489 60.8479773,20.7203274 60.4832664,20.5086375 C60.20546,20.3468161 59.8851685,20.2731482 59.5646759,20.2973592 Z M124.586098,20.2973592 C124.320002,20.3031774 124.059628,20.3758266 123.828881,20.5086375 C123.46417,20.7203274 123.198434,21.0684489 123.090174,21.4763648 C122.981913,21.8842806 123.040004,22.31855 123.251656,22.6835705 C123.691788,23.4402438 124.659944,23.6985397 125.417797,23.2614791 C126.175822,22.8229463 126.43672,21.8531421 126.001228,21.0927629 C125.710525,20.5882503 125.167677,20.283131 124.586098,20.2973592 Z M65.7403444,24.1252367 L69.3091992,26.1883168 L64.5486574,26.1883168 L65.7403444,24.1252367 Z M118.571803,24.1252367 L119.76349,26.1883168 L115.002948,26.1883168 L118.571803,24.1252367 Z M29.5242318,29.3699319 L59.9184575,29.3699319 L60.6384335,29.7862749 C61.3305422,30.1834595 62.2095087,30.0053307 62.6928543,29.3699319 L70.4884737,29.3699319 C71.0175064,31.5555869 72.1579795,33.5666636 73.8090572,35.186322 C73.711253,35.3845652 73.6029112,35.5766712 73.5297575,35.7828748 L33.36618,35.7828748 C32.4886822,35.7829627 31.7773517,36.49514 31.777264,37.3736824 L31.777264,55.0030626 L27.8918685,57.2463494 C27.5271907,57.4580693 27.2614834,57.8061896 27.1532264,58.2140922 C27.0449694,58.6219948 27.1030351,59.0562489 27.3146439,59.4212792 L27.7615265,60.1918282 C29.1000008,63.2624304 28.1374927,66.8127978 25.4215998,68.7797041 L25.4215998,33.496089 C25.4215998,31.1825139 27.2244983,29.3699319 29.5242318,29.3699319 Z M113.531958,29.3699319 L121.619293,29.3699319 C122.102639,30.0053307 122.981605,30.1834595 123.673714,29.7862749 L124.39369,29.3699319 L154.787916,29.3699319 C157.087649,29.3699319 158.890548,31.1825139 158.890548,33.496089 L158.890548,58.0044678 L152.534883,58.0044678 L152.534883,37.3736824 C152.534796,36.49514 151.823465,35.7829627 150.945967,35.7828748 L110.78239,35.7828748 C110.66113,35.4410707 110.502003,35.1122158 110.316888,34.7948338 C110.380194,34.7305111 110.428777,34.6551832 110.490674,34.5897692 C111.055436,34.2800707 111.639575,33.9992137 111.980283,33.4090909 C112.269364,32.9077892 112.440681,32.3692341 112.514061,31.824497 C112.945852,31.038969 113.276915,30.2168206 113.531958,29.3699319 Z M76.4407025,37.2059031 L77.7937631,37.9826626 C77.2871054,38.1172767 76.774127,37.9283238 76.490353,37.4358225 C76.4882842,37.4358185 76.4862154,37.4358185 76.4841467,37.4358225 C76.440264,37.3597374 76.466103,37.2830445 76.4407025,37.2059031 Z M34.955096,38.9644899 L73.7159594,38.9644899 C73.7259314,38.9825329 73.7242376,39.0024211 73.7345783,39.0204164 C74.5534103,40.441612 76.0694046,40.9256757 77.6137675,40.8970729 C77.6167229,41.6286535 77.5063282,42.3744273 77.8930703,43.047148 C78.9740417,44.9238873 81.260727,45.4835556 83.2246273,44.7311673 C83.301213,45.2560702 83.1451815,45.7944567 83.4232418,46.2784758 C84.6196002,48.3550842 87.3219524,49.0794616 89.3940896,47.8817107 L92.1560737,46.2846895 L94.9180579,47.8817107 C96.9899726,49.0793343 99.6924837,48.3612979 100.888906,46.2846895 C101.168873,45.7989523 101.010617,45.2583927 101.08752,44.7311673 C101.576805,44.9192994 102.090304,45.0226796 102.595748,45.0480848 C103.608685,45.0977084 104.614027,44.8155342 105.407386,44.209182 C105.804424,43.9048255 106.148612,43.5229203 106.419077,43.0533617 C106.807853,42.3791456 106.69552,41.6307216 106.69838,40.8970729 C108.242679,40.9257075 109.758737,40.4478893 110.577569,39.02663 C110.589356,39.0061914 110.591088,38.9849859 110.602398,38.9644899 L149.357051,38.9644899 L149.357051,58.0044678 L144.019285,58.0044678 C141.712786,58.0044678 139.811143,59.9219477 139.811143,62.2300503 L139.811143,65.4675919 L133.685124,67.1081122 C133.487155,67.121694 133.293477,67.1722788 133.114109,67.2572504 L130.227993,68.0340131 C127.996773,68.6320294 126.644183,70.9703256 127.242569,73.2041376 L129.321812,80.9655381 C128.008665,81.7476268 127.099814,83.1253107 127.099814,84.743706 L127.099814,99.4151768 L34.955096,99.4151768 L34.955096,87.1920575 L35.1288853,87.092632 C38.3076422,85.2551634 42.2453479,86.147161 44.3830788,89.0190013 L44.7927204,89.7336207 C45.1540472,90.3515049 45.8831139,90.6516177 46.5740446,90.4668844 C46.8297628,90.4138623 47.0685071,90.2986161 47.2691954,90.1313226 L52.4642073,87.1299174 C53.222158,86.6913259 53.4830361,85.7215892 53.047635,84.9611981 L48.4981235,77.0693036 C51.8768231,74.3079576 52.8930748,69.4146527 50.645642,65.5173046 C48.398438,61.6204179 43.6566391,60.0483342 39.5790896,61.5962122 L35.5695585,54.6488565 C35.4230889,54.3974822 35.2105581,54.191146 34.955096,54.0523037 L34.955096,38.9644899 Z M81.0398677,39.8655329 L81.2943421,40.0084574 C81.2984717,40.0105467 81.3026103,40.0126179 81.3067579,40.0146711 L83.4170355,41.2388484 L82.2750021,41.8975413 C81.6785548,42.242333 80.9929724,42.0601251 80.648845,41.4625541 C80.6467762,41.4625501 80.6447075,41.4625501 80.6426387,41.4625541 C80.3088615,40.8837706 80.4847894,40.2192839 81.0398677,39.8655329 Z M86.6010739,43.0720059 L88.9782416,44.451532 L87.8051735,45.1288692 C87.2088851,45.4735654 86.5230835,45.2911347 86.1790196,44.6938819 C86.1769509,44.6938779 86.1748821,44.6938779 86.1728133,44.6938819 C85.8314411,44.1018947 86.0137692,43.4192569 86.6010739,43.0720059 Z M43.650687,47.8009295 L41.1617994,52.1259376 L43.9113677,53.7167451 L46.4064648,49.3917371 L43.650687,47.8009295 Z M173.165967,48.4161234 C172.744557,48.4227061 172.343019,48.596628 172.049693,48.8996262 C171.756367,49.2026244 171.595282,49.6098773 171.601876,50.031789 C171.028856,50.0236754 170.495861,50.3250946 170.206986,50.8206272 C169.918111,51.3161599 169.918111,51.9290331 170.206986,52.4245658 C170.495861,52.9200984 171.028856,53.2215176 171.601876,53.2134041 C171.593772,53.7871064 171.894833,54.3207355 172.389776,54.6099545 C172.88472,54.8991734 173.496864,54.8991734 173.991808,54.6099545 C174.486751,54.3207355 174.787812,53.7871064 174.779708,53.2134041 C175.352728,53.2215176 175.885723,52.9200984 176.174598,52.4245658 C176.463473,51.9290331 176.463473,51.3161599 176.174598,50.8206272 C175.885723,50.3250946 175.352728,50.0236754 174.779708,50.031789 C174.786437,49.6012583 174.618581,49.1863819 174.314475,48.8819132 C174.010368,48.5774445 173.595986,48.409387 173.165967,48.4161234 L173.165967,48.4161234 Z M125.498485,48.4658362 C124.623399,48.4795523 123.92412,49.1991097 123.934395,50.0752848 L123.934395,51.6412376 L122.370304,51.6412376 C121.797285,51.6331265 121.264293,51.9345462 120.97542,52.4300779 C120.686546,52.9256095 120.686546,53.5384808 120.97542,54.0340124 C121.264293,54.5295441 121.797285,54.8309638 122.370304,54.8228527 L123.934395,54.8228527 L123.934395,56.3950192 C123.926293,56.9687199 124.227355,57.5023465 124.722297,57.7915639 C125.217239,58.0807813 125.829382,58.0807813 126.324324,57.7915639 C126.819267,57.5023465 127.120328,56.9687199 127.112227,56.3950192 L127.112227,54.8228527 L128.676318,54.8228527 C129.249336,54.8309638 129.782328,54.5295441 130.071202,54.0340124 C130.360075,53.5384808 130.360075,52.9256095 130.071202,52.4300779 C129.782328,51.9345462 129.249336,51.6331265 128.676318,51.6412376 L127.112227,51.6412376 L127.112227,50.0752848 C127.117262,49.6458249 126.948658,49.23257 126.64474,48.9294607 C126.340822,48.6263515 125.927412,48.4591398 125.498485,48.4658362 Z M51.1297657,53.0207668 L47.6043582,56.5503711 L49.851184,58.7998716 L53.3765915,55.2702673 L51.1297657,53.0207668 Z M99.0206868,55.8295348 C95.5293616,55.8295348 92.6650226,58.6973154 92.6650226,62.192765 C92.6650226,62.7753474 92.7707268,63.3270203 92.919497,63.8643569 L80.3943706,70.1343754 C79.172974,69.1617652 77.6525307,68.5559952 75.9814041,68.5559952 C72.0513156,68.5559952 68.8312819,71.779894 68.8312819,75.7146292 C68.8312819,79.6493962 72.0513156,82.8732632 75.9814041,82.8732632 C77.5989969,82.8732632 79.0806421,82.3051826 80.2826507,81.3880948 L92.8760497,87.6953985 C92.7510433,88.1907856 92.6650226,88.704066 92.6650226,89.2364934 C92.6650226,92.7319748 95.5293616,95.5997236 99.0206868,95.5997236 C102.51198,95.5997236 105.376351,92.7319748 105.376351,89.2364934 C105.376351,85.7410437 102.51198,82.8732632 99.0206868,82.8732632 C97.2023376,82.8732632 95.5650264,83.6597393 94.4028995,84.8990579 L82.3556904,78.8713895 C82.8337476,77.9130393 83.1315263,76.8527438 83.1315263,75.7146292 C83.1315263,74.6269972 82.8630186,73.6018681 82.4239629,72.6759386 L94.4960005,66.6296291 C95.6518765,67.809426 97.2527889,68.5559952 99.0206868,68.5559952 C102.51198,68.5559952 105.376351,65.6882464 105.376351,62.192765 C105.376351,58.6973154 102.51198,55.8295348 99.0206868,55.8295348 Z M33.6082418,57.6191933 L49.4974023,85.1724764 L46.8223128,86.7197881 L30.9331523,59.1665018 L33.6082418,57.6191933 Z M99.0206868,59.0111499 C100.794553,59.0111499 102.198519,60.4167875 102.198519,62.192765 C102.198519,63.9687744 100.794553,65.3743801 99.0206868,65.3743801 C97.2467891,65.3743801 95.8428547,63.9687744 95.8428547,62.192765 C95.8428547,60.4167875 97.2467891,59.0111499 99.0206868,59.0111499 Z M57.0075125,60.0054046 L52.687647,62.5034688 L54.276563,65.2563135 L58.5964285,62.7644631 L57.0075125,60.0054046 Z M144.019285,61.1860829 L146.117153,61.1860829 C146.234911,61.9362346 145.992855,62.6611846 145.415796,63.2740178 C144.84978,63.8750981 143.967127,64.2782723 142.988975,64.367698 L142.988975,62.2300503 C142.988975,61.6217892 143.426146,61.1860829 144.019285,61.1860829 Z M149.301191,61.1860829 L155.756163,61.1860829 C155.727496,62.6460752 156.210663,64.1276451 157.301632,65.287382 C158.541708,66.6056747 160.265681,67.3493327 162.055967,67.487173 L162.055967,80.2757735 L158.996061,80.2757735 L158.996061,76.2614693 L158.977442,76.2614693 L157.251978,76.2614693 L157.251978,78.0076287 C157.251934,79.1198864 156.877191,79.8344167 156.339594,80.2757735 L155.551342,80.2757735 L155.551342,76.2614693 L153.832084,76.2614693 L153.832084,80.2757735 L153.043832,80.2757735 C152.504805,79.8349575 152.125197,79.1217826 152.125242,78.0076287 L152.125242,77.4607886 L152.125242,77.4483612 L152.125242,76.2614693 L150.405984,76.2614693 L150.405984,76.7523829 L146.93023,80.2757735 L142.988975,80.2757735 L142.988975,67.487173 C144.783423,67.3507994 146.512749,66.6073832 147.755723,65.287382 C148.848525,64.126837 149.332204,62.647071 149.301191,61.1860829 Z M158.933995,61.1860829 L161.03186,61.1860829 C161.625002,61.1860829 162.055967,61.6217892 162.055967,62.2300503 L162.055967,64.3552706 C161.084958,64.2631788 160.204578,63.8663264 159.641558,63.2678041 C159.065106,62.6549741 158.818109,61.9357637 158.933995,61.1860829 Z M115.989814,64.367698 C115.11228,64.367698 114.400898,65.0799268 114.400898,65.9585055 C114.400898,66.8370843 115.11228,67.5493131 115.989814,67.5493131 C116.867349,67.5493131 117.57873,66.8370843 117.57873,65.9585055 C117.57873,65.0799268 116.867349,64.367698 115.989814,64.367698 Z M43.3837999,64.5416942 C45.2005507,64.5973915 46.8970967,65.3866039 47.8898642,67.1081122 C49.2135266,69.403552 48.4782843,71.9550673 46.7850718,73.8006904 L44.1658453,69.2644009 L41.5528221,64.7219008 C42.1635855,64.5855782 42.7782164,64.5231263 43.3837999,64.5416942 Z M31.0821132,65.9522918 L41.081111,83.2896093 C38.6040131,82.6969699 35.9086745,82.9705824 33.5399693,84.3397905 L28.884941,87.0304919 L23.0444323,90.4047442 L15.9129303,78.0324867 L21.753438,74.6582343 L26.408466,71.9675329 C28.7792304,70.5971254 30.3572084,68.3988107 31.0821132,65.9522918 Z M185.90212,67.5493131 C185.024586,67.5493131 184.313204,68.2615419 184.313204,69.1401206 C184.313204,70.0186994 185.024586,70.7309282 185.90212,70.7309282 C186.779655,70.7309282 187.491037,70.0186994 187.491037,69.1401206 C187.491037,68.2615419 186.779655,67.5493131 185.90212,67.5493131 Z M60.8742891,68.276363 L56.0578873,69.5626773 L56.88338,72.6386532 L61.6997818,71.3461221 L60.8742891,68.276363 Z M139.811143,68.7610598 L139.811143,80.2757735 L132.425165,80.2757735 L131.761049,77.7777093 C133.568374,77.2767895 135.107417,76.0330866 135.888506,74.2791735 C136.534817,72.8278957 136.556197,71.2212087 136.087121,69.7553146 L139.811143,68.7610598 Z M165.233799,68.7610598 L169.199883,69.8236716 C168.642933,71.3530008 168.653922,73.063542 169.336428,74.5960942 C170.085005,76.2770019 171.520921,77.5072752 173.228033,78.0511278 L172.63219,80.2757735 L165.233799,80.2757735 L165.233799,68.7610598 Z M133.045837,70.5755763 C133.333872,71.3465516 133.329471,72.2103538 132.983767,72.9866424 C132.594467,73.8607816 131.837787,74.4740029 130.941762,74.7265882 L130.314884,72.3838759 C130.158535,71.8006222 130.462332,71.266779 131.047276,71.109989 L133.045837,70.5755763 Z M172.284614,70.6501438 L174.010075,71.109989 C174.595117,71.2668426 174.904927,71.800654 174.748673,72.3838759 L174.047316,74.9875824 C173.251193,74.6979409 172.591294,74.1036756 172.234961,73.3035631 C171.850726,72.4408045 171.889263,71.4792854 172.284614,70.6501438 Z M75.9814041,71.7376103 C78.1940333,71.7376103 79.9536942,73.499366 79.9536942,75.7146292 C79.9536942,77.9299241 78.1940333,79.6916481 75.9814041,79.6916481 C73.7687432,79.6916481 72.009114,77.9299241 72.009114,75.7146292 C72.009114,73.499366 73.7687432,71.7376103 75.9814041,71.7376103 Z M57.4916362,77.2619377 L57.4916362,80.4435528 L62.4756177,80.4435528 L62.4756177,77.2619377 L57.4916362,77.2619377 Z M150.517704,79.0888815 C150.608869,79.5238401 150.76969,79.9159106 150.95838,80.2757735 L149.344639,80.2757735 L150.517704,79.0888815 Z M13.157154,79.6232942 L20.294863,91.9955518 L19.5128182,92.4491801 L14.1129862,95.5686551 C13.0577238,96.1786343 11.7865013,95.8359203 11.1772156,94.779465 L10.6124058,93.7976377 C10.5949788,93.7638379 10.5763466,93.7306748 10.5565453,93.6982122 L6.8139031,87.2169154 L6.19323308,86.1356626 C5.58391524,85.0791119 5.92628502,83.8063768 6.98148416,83.1963975 L12.3751093,80.0769226 L13.157154,79.6232942 Z M119.124199,80.2322745 C118.701706,80.2372227 118.298577,80.4104269 118.003914,80.7136042 C117.70925,81.0167815 117.547317,81.4249668 117.553905,81.84794 C116.980885,81.8398264 116.44789,82.1412456 116.159015,82.6367782 C115.87014,83.1323109 115.87014,83.7451841 116.159015,84.2407168 C116.44789,84.7362494 116.980885,85.0376686 117.553905,85.0295551 C117.545801,85.6032574 117.846862,86.1368866 118.341806,86.4261055 C118.836749,86.7153244 119.448894,86.7153244 119.943837,86.4261055 C120.43878,86.1368866 120.739841,85.6032574 120.731737,85.0295551 C121.304758,85.0376686 121.837752,84.7362494 122.126627,84.2407168 C122.415502,83.7451841 122.415502,83.1323109 122.126627,82.6367782 C121.837752,82.1412456 121.304758,81.8398264 120.731737,81.84794 C120.738427,81.4185016 120.571414,81.004598 120.268664,80.7003177 C119.965914,80.3960374 119.55315,80.2272321 119.124199,80.2322745 L119.124199,80.2322745 Z M131.804493,83.4573886 L173.240446,83.4573886 C174.181052,83.4573886 174.767296,84.0776349 174.767296,84.743706 L174.767296,91.7221301 L159.411909,91.7221301 C158.922637,91.7210546 158.460147,91.9456976 158.158156,92.3311104 L156.041672,95.0404561 C155.821278,95.3202258 155.701067,95.6659692 155.700303,96.0222834 L155.700303,98.7254122 L155.700303,101.434758 C155.701068,101.791071 155.821279,102.136813 156.041672,102.416582 L158.158156,105.119714 C158.460147,105.505127 158.922637,105.72977 159.411909,105.728694 L174.767296,105.728694 L174.767296,107.630206 C174.767296,108.296309 174.181084,108.910309 173.240446,108.910309 L131.804493,108.910309 C130.86389,108.910309 130.277646,108.296277 130.277646,107.630206 L130.277646,84.743706 C130.277646,84.0776667 130.863921,83.4573886 131.804493,83.4573886 Z M99.0206868,86.0548783 C100.794553,86.0548783 102.198519,87.4605158 102.198519,89.2364934 C102.198519,91.0125027 100.794553,92.4181085 99.0206868,92.4181085 C97.2467891,92.4181085 95.8428547,91.0125027 95.8428547,89.2364934 C95.8428547,88.7946243 95.9332322,88.3737507 96.0911228,87.993675 C96.0911269,87.9916037 96.0911269,87.9895325 96.0911228,87.9874613 C96.1969158,87.8706215 96.2847699,87.738683 96.3518036,87.5959731 C96.9065037,86.6844022 97.8615058,86.0548783 99.0206868,86.0548783 Z M185.877295,86.6452174 C185.002209,86.6589335 184.30293,87.3784909 184.313204,88.254666 L184.313204,89.8206188 L182.749114,89.8206188 C182.176095,89.8125077 181.643103,90.1139274 181.354229,90.6094591 C181.065356,91.1049907 181.065356,91.717862 181.354229,92.2133936 C181.643103,92.7089253 182.176095,93.010345 182.749114,93.0022339 L184.313204,93.0022339 L184.313204,94.5744004 C184.305103,95.1481011 184.606164,95.6817277 185.101107,95.9709451 C185.596049,96.2601625 186.208192,96.2601625 186.703134,95.9709451 C187.198077,95.6817277 187.499138,95.1481011 187.491037,94.5744004 L187.491037,93.0022339 L189.055127,93.0022339 C189.628146,93.010345 190.161138,92.7089253 190.450012,92.2133936 C190.738885,91.717862 190.738885,91.1049907 190.450012,90.6094591 C190.161138,90.1139274 189.628146,89.8125077 189.055127,89.8206188 L187.491037,89.8206188 L187.491037,88.254666 C187.496072,87.8252061 187.327467,87.4119512 187.02355,87.1088419 C186.719632,86.8057327 186.306222,86.638521 185.877295,86.6452174 Z M31.777264,89.0314287 L31.777264,101.005984 C31.7773517,101.884527 32.4886822,102.596704 33.36618,102.596792 L127.099814,102.596792 L127.099814,107.630206 C127.099814,108.116442 127.204403,108.570077 127.354289,109.003521 L28.6118445,109.003521 L25.4215998,98.1102183 L25.4215998,92.7039575 L30.4738571,89.7833334 L31.777264,89.0314287 Z M4.85879179,90.187249 L7.00631098,93.9157042 L5.44222174,94.8167472 L3.29470256,91.0882952 L4.85879179,90.187249 Z M160.181542,94.9037453 L174.767296,94.9037453 L174.767296,102.547079 L160.181542,102.547079 L158.878135,100.881701 L158.878135,98.7254122 L158.878135,96.5691235 L160.181542,94.9037453 Z M21.2506951,95.1709532 L25.2974657,109.003521 L20.1583154,109.003521 L16.8066956,97.7373712 L21.2506951,95.1709532 Z M163.533163,97.2340301 C162.701368,97.2926768 162.056405,97.984531 162.055967,98.818624 C162.055584,99.2403994 162.222817,99.6450313 162.520839,99.9434072 C162.81886,100.241783 163.223226,100.409432 163.644883,100.409432 C164.06654,100.409432 164.470907,100.241783 164.768928,99.9434072 C165.066949,99.6450313 165.234183,99.2403994 165.233799,98.818624 C165.231172,97.9427063 164.520559,97.2340262 163.644883,97.2340301 C163.607655,97.2327202 163.570392,97.2327202 163.533163,97.2340301 Z M16.2046454,112.185136 L76.2669133,112.185136 L76.2669133,114.819911 C76.2669133,117.986636 78.7960736,120.630088 81.9398393,120.630088 L102.372308,120.630088 C105.516106,120.630088 108.045234,117.986605 108.045234,114.819911 L108.045234,112.185136 L168.107503,112.185136 C167.291881,119.295728 161.548499,124.818385 154.210694,124.818385 L30.1014533,124.818385 C22.7636492,124.818385 17.0202678,119.295728 16.2046454,112.185136 Z M79.4447454,112.185136 L104.867402,112.185136 L104.867402,114.819911 C104.867402,116.332737 103.755618,117.448473 102.372308,117.448473 L81.9398393,117.448473 C80.5565608,117.448473 79.4447454,116.332706 79.4447454,114.819911 L79.4447454,112.185136 Z" id="Shape"></path>
                </g>
            </g>
        </g>
    </g>
</svg>