<?xml version="1.0" encoding="UTF-8"?>
<svg width="69px" height="64px" viewBox="0 0 69 64" version="1.1" xmlns="http://www.w3.org/2000/svg" xmlns:xlink="http://www.w3.org/1999/xlink">
    <!-- Generator: Sketch 41.2 (35397) - http://www.bohemiancoding.com/sketch -->
    <title>icon-timkiem</title>
    <desc>Created with Sketch.</desc>
    <defs>
        <polygon id="path-1" points="0 63.4817 68.286 63.4817 68.286 -0.0003 0 -0.0003"></polygon>
    </defs>
    <g id="Page-1" stroke="none" stroke-width="1" fill="none" fill-rule="evenodd">
        <g id="TopCourses_DoiTac_1366px" transform="translate(-494.000000, -1003.000000)">
            <g id="icon-timkiem" transform="translate(494.000000, 1003.000000)">
                <path d="M60.5052,7.0217 L65.4382,7.0217 C66.4592,7.0217 67.2862,7.8497 67.2862,8.8707 L67.2862,60.6327 C67.2862,61.6537 66.4592,62.4817 65.4382,62.4817 L32.1622,62.4817 C31.1412,62.4817 30.3132,61.6537 30.3132,60.6327 L30.3132,56.4597 L60.5052,7.0217 Z" id="Stroke-1" stroke="#1B6DA3" stroke-width="2" stroke-linecap="round" stroke-linejoin="round"></path>
                <path d="M23.5316,3.4705 L23.5316,2.8485 C23.5316,1.8275 24.3596,0.9995 25.3806,0.9995 L58.6566,0.9995 C59.6776,0.9995 60.5056,1.8275 60.5056,2.8485 L60.5056,54.6115 C60.5056,55.6325 59.6776,56.4595 58.6566,56.4595 L25.3806,56.4595 C24.3596,56.4595 23.5316,55.6325 23.5316,54.6115 L23.5316,25.7405" id="Stroke-3" stroke="#1B6DA3" stroke-width="2" stroke-linecap="round" stroke-linejoin="round" fill="#FFFFFF"></path>
                <path d="M40.3895,15.4275 L54.7595,15.4275" id="Stroke-5" stroke="#1B6DA3" stroke-width="2" stroke-linecap="round" stroke-linejoin="round"></path>
                <path d="M38.9964,20.3069 L54.7594,20.3069" id="Stroke-7" stroke="#1B6DA3" stroke-width="2" stroke-linecap="round" stroke-linejoin="round"></path>
                <path d="M34.2064,25.1868 L54.7594,25.1868" id="Stroke-9" stroke="#1B6DA3" stroke-width="2" stroke-linecap="round" stroke-linejoin="round"></path>
                <path d="M28.0487,30.0667 L54.7587,30.0667" id="Stroke-11" stroke="#1B6DA3" stroke-width="2" stroke-linecap="round" stroke-linejoin="round"></path>
                <path d="M28.0487,34.9465 L45.6787,34.9465" id="Stroke-13" stroke="#1B6DA3" stroke-width="2" stroke-linecap="round" stroke-linejoin="round"></path>
                <path d="M39.8553,40.0325 L54.7593,40.0325" id="Stroke-15" stroke="#1B6DA3" stroke-width="2" stroke-linecap="round" stroke-linejoin="round"></path>
                <path d="M39.8553,45.1004 L54.7593,45.1004" id="Stroke-17" stroke="#1B6DA3" stroke-width="2" stroke-linecap="round" stroke-linejoin="round"></path>
                <polyline id="Stroke-19" stroke="#1B6DA3" stroke-width="2" stroke-linecap="round" stroke-linejoin="round" points="39.8553 10.5476 54.7593 10.5476 54.7593 5.7966 36.8633 5.7966"></polyline>
                <mask id="mask-2" fill="white">
                    <use xlink:href="#path-1"></use>
                </mask>
                <g id="Clip-22"></g>
                <polygon id="Stroke-21" stroke="#1B6DA3" stroke-width="2" stroke-linecap="round" stroke-linejoin="round" mask="url(#mask-2)" points="28.048 50.1687 35.368 50.1687 35.368 40.0327 28.048 40.0327"></polygon>
                <polygon id="Fill-24" fill="#1B6DA3" mask="url(#mask-2)" points="11.4036 32.5911 10.3206 31.5081 19.1996 22.6291 20.2826 23.7121"></polygon>
                <polygon id="Stroke-25" stroke="#1B6DA3" stroke-width="2" stroke-linecap="round" stroke-linejoin="round" mask="url(#mask-2)" points="2.9657 41.9119 0.9997 39.9459 9.8797 31.0669 11.8447 33.0329"></polygon>
                <path d="M38.4989,12.7918 L25.4649,12.7918" id="Stroke-26" stroke="#1B6DA3" stroke-width="2" stroke-linecap="round" stroke-linejoin="round" mask="url(#mask-2)"></path>
                <path d="M37.9969,18.2503 L25.4649,18.2503" id="Stroke-27" stroke="#1B6DA3" stroke-width="2" stroke-linecap="round" stroke-linejoin="round" mask="url(#mask-2)"></path>
                <path d="M33.034729,3.6060791 C33.0233,3.61322021 33.0448608,9.0059 33.0448608,9.0059 L39.0336914,9.02294922" id="Stroke-28" stroke="#1B6DA3" stroke-width="2" stroke-linecap="round" stroke-linejoin="round" mask="url(#mask-2)"></path>
                <path d="M16.1937,14.6047 C16.1937,21.2947 21.6167,26.7187 28.3067,26.7187 C34.9977,26.7187 40.4207,21.2947 40.4207,14.6047 C40.4207,7.9147 34.9977,2.4917 28.3067,2.4917 C21.6167,2.4917 16.1937,7.9147 16.1937,14.6047 Z" id="Stroke-23" stroke="#1B6DA3" stroke-width="2" stroke-linecap="round" stroke-linejoin="round" fill-opacity="0.25" fill="#FFFFFF" mask="url(#mask-2)"></path>
            </g>
        </g>
    </g>
</svg>