<?xml version="1.0" encoding="UTF-8"?>
<svg width="172px" height="123px" viewBox="0 0 172 123" version="1.1" xmlns="http://www.w3.org/2000/svg" xmlns:xlink="http://www.w3.org/1999/xlink">
    <!-- Generator: Sketch 41.2 (35397) - http://www.bohemiancoding.com/sketch -->
    <title>icon_easy_signup</title>
    <desc>Created with Sketch.</desc>
    <defs></defs>
    <g id="Page-1" stroke="none" stroke-width="1" fill="none" fill-rule="evenodd">
        <g id="TopCourses_DoiTac_1366px" transform="translate(-597.000000, -1154.000000)" fill="#1B6DA3">
            <g id="Block-icon-2" transform="translate(498.000000, 1154.000000)">
                <g id="icon_easy_signup" transform="translate(99.000000, 0.000000)">
                    <path d="M140.088807,3.0433329e-06 C139.267858,3.0433329e-06 138.992596,0.287282761 138.661812,0.50496969 C138.331021,0.725210132 138.024603,0.977308833 137.695938,1.26553654 C137.038607,1.84135358 136.318707,2.5539527 135.608408,3.26670184 C134.898112,3.97945098 134.199649,4.69084357 133.645508,5.2117601 C133.379134,5.46072755 133.146343,5.65699051 132.984977,5.78530451 C132.7894,5.7533856 132.507641,5.69069368 132.168658,5.60451264 C131.448978,5.42576678 130.517316,5.1560233 129.570151,4.88758532 C128.622987,4.61946652 127.667249,4.3534001 126.828322,4.17689175 C126.408858,4.08751563 126.017927,4.0248269 125.625656,3.99609989 C125.233385,3.96418098 124.856488,3.84907183 124.136343,4.27040138 C123.427211,4.68438957 123.328734,5.06846336 123.151776,5.42372077 C122.974832,5.77898137 122.837608,6.15058445 122.696882,6.56457265 C122.415417,7.39191065 122.145782,8.37244025 121.886797,9.34500928 C121.627825,10.3172591 121.377349,11.2789278 121.157718,12.0069949 C121.051953,12.3577868 120.959247,12.6443069 120.883537,12.8361395 C120.698361,12.9063611 120.423828,12.9927911 120.085914,13.0917397 C119.373493,13.2960207 118.429467,13.5299575 117.474942,13.7712644 C116.520423,14.0138481 115.560238,14.2649892 114.745577,14.5318313 C114.338244,14.6658907 113.964752,14.7968188 113.611456,14.9682234 C113.25816,15.1405854 112.872353,15.2364922 112.458642,15.9594554 C112.051385,16.6725237 112.160177,17.0467537 112.184457,17.4431865 C112.208705,17.8392969 112.274008,18.2364096 112.358939,18.6650805 C112.491797,19.3357892 112.700152,20.1023632 112.901074,20.8595052 L16.8809487,20.8595052 C12.8562418,20.8595052 9.57147853,24.1607977 9.57147853,28.1908786 L9.57147853,55.9703003 L1.59524642,55.9703003 C0.714252618,55.9703883 8.80333243e-05,56.6848658 0,57.5662455 L0,70.3338073 C8.80333243e-05,71.2151871 0.714252618,71.9296645 1.59524642,71.9297526 L9.57147853,71.9297526 L9.57147853,103.94217 L1.59524642,103.94217 C0.71425264,103.942258 8.80861659e-05,104.656736 0,105.538115 C0,115.1872 7.81465566,123 17.4604698,123 L142.064172,123 C151.709986,123 159.524642,115.1872 159.524642,105.538115 C159.524554,104.656736 158.810389,103.942258 157.929396,103.94217 L149.953164,103.94217 L149.953164,58.7569707 C150.190661,58.8242525 150.377726,58.8690347 150.619926,58.9377625 C151.56709,59.2058781 152.522834,59.4722637 153.361755,59.6484561 C153.781219,59.737829 154.165925,59.8005177 154.55819,59.8292448 C154.950458,59.8611637 155.33362,59.9762728 156.053734,59.5549433 C156.762837,59.1412743 156.855109,58.7568813 157.03207,58.4016239 C157.209014,58.0463665 157.352462,57.674441 157.493195,57.260772 C157.77466,56.4331148 158.038064,55.4525852 158.297049,54.4803354 C158.556053,53.5077663 158.806494,52.5467392 159.026128,51.8183498 C159.131892,51.467561 159.230833,51.1810378 159.306543,50.9892052 C159.491751,50.9189836 159.766233,50.8325536 160.104166,50.733605 C160.816623,50.529324 161.760594,50.2950679 162.715135,50.0540802 C163.669676,49.8114965 164.629804,49.5603554 165.444503,49.2935134 C165.851852,49.159454 166.219065,49.0285258 166.57239,48.8571213 C166.925715,48.6847592 167.317871,48.5891749 167.731438,47.8658925 C168.138695,47.1528241 168.029899,46.778275 168.00562,46.3821613 C167.981372,45.9860477 167.916072,45.5889351 167.831141,45.1602642 C167.661311,44.3026032 167.401178,43.326504 167.139452,42.3548925 C166.877736,41.3829619 166.615292,40.4209548 166.441532,39.6804362 C166.357686,39.3229445 166.297296,39.0240846 166.26705,38.8201228 C166.392341,38.666912 166.584919,38.4554206 166.827878,38.202942 C167.34216,37.6686196 168.041037,36.9940135 168.74716,36.3077571 C169.453284,35.6215006 170.162827,34.9265846 170.734987,34.2878873 C171.021079,33.9686982 171.275514,33.666506 171.495221,33.3402948 C171.714919,33.0140836 172.003556,32.7404811 171.999967,31.9064402 C171.996457,31.0851667 171.714258,30.8094959 171.495221,30.4788161 C171.276162,30.147817 171.022799,29.841287 170.734987,29.5125223 C170.159362,28.8549897 169.447014,28.134912 168.734698,27.424078 C168.022383,26.7135631 167.311081,26.0147466 166.790492,25.4603152 C166.539145,25.1921964 166.339104,24.9672384 166.210968,24.8057287 C166.242553,24.6110234 166.300742,24.3309063 166.385449,23.9890548 C166.563798,23.2689643 166.839766,22.3308486 167.108294,21.3831731 C167.376806,20.4358232 167.642347,19.4792902 167.818676,18.6401454 C167.906829,18.2204118 167.972174,17.8354666 167.999389,17.4431865 C168.026508,17.0505808 168.139033,16.6673943 167.718973,15.9469878 C167.305338,15.2377466 166.927488,15.1391395 166.57239,14.9619896 C166.217294,14.7864356 165.845624,14.6492545 165.432037,14.5068962 C164.604867,14.2260099 163.624859,13.9618682 162.652821,13.7026867 C161.68078,13.4441435 160.719944,13.1869793 159.991998,12.9670581 C159.64375,12.8617257 159.355109,12.7693587 159.16322,12.6927534 C159.092838,12.5076237 158.998935,12.232802 158.901501,11.8947808 C158.696097,11.1820316 158.463302,10.2376821 158.222273,9.28266847 C157.981232,8.32765484 157.735021,7.36699476 157.468271,6.55210512 C157.334908,6.14450071 157.198387,5.77738543 157.025839,5.42372077 C156.853297,5.07038169 156.765271,4.67783662 156.041272,4.26416761 C155.328538,3.8565632 154.954169,3.964331 154.55819,3.98986612 C154.162215,4.02178503 153.765365,4.07823999 153.336831,4.16442104 C152.47976,4.33359123 151.497764,4.5946783 150.526457,4.85641331 C149.555143,5.11814833 148.599677,5.38068132 147.859403,5.55463935 C147.502201,5.6376285 147.20345,5.70351232 146.999466,5.73543122 C146.846003,5.61094749 146.634866,5.41598044 146.382552,5.17435752 C145.848499,4.66014078 145.167893,3.96028049 144.481966,3.25423432 C143.796042,2.54818815 143.100993,1.8378425 142.462984,1.26553654 C142.143967,0.9782664 141.847436,0.724571754 141.522037,0.50496969 C141.196639,0.284729248 140.925645,3.0433329e-06 140.095038,3.0433329e-06 C140.092961,-1.0144443e-06 140.090884,-1.0144443e-06 140.088807,3.0433329e-06 Z M140.082576,3.43502619 C140.173984,3.51163156 140.229141,3.5418045 140.338065,3.6407531 C140.853294,4.10293884 141.519176,4.78399889 142.19503,5.47983102 C142.870888,6.17534395 143.553817,6.88713552 144.164164,7.47476256 C144.469335,7.76841648 144.75848,8.03236348 145.042797,8.26026446 C145.327099,8.48688868 145.508147,8.70668226 146.14576,8.8774484 C146.774313,9.04661859 147.051876,8.95330367 147.416971,8.90861721 C147.782065,8.85754696 148.168006,8.77690385 148.588481,8.67795524 C149.429425,8.48005803 150.404082,8.20646195 151.361466,7.9485572 C152.318853,7.69001407 153.261759,7.44464707 153.959973,7.30643821 C154.119529,7.27451931 154.193549,7.27267439 154.321398,7.25033116 C154.362875,7.36204733 154.394362,7.41536147 154.439794,7.55580465 C154.654961,8.21333409 154.894047,9.13343801 155.131483,10.0744073 C155.36892,11.0150574 155.600933,11.9782487 155.835635,12.7924999 C155.952981,13.1997852 156.070934,13.5691188 156.203288,13.9084168 C156.33563,14.2480339 156.384444,14.5324218 156.851357,14.9993922 C157.31171,15.4599852 157.593402,15.5164114 157.935627,15.6539819 C158.277852,15.7912332 158.656238,15.9156945 159.069748,16.0404975 C159.896768,16.2894649 160.872156,16.5394793 161.830271,16.7948306 C162.788389,17.050185 163.730018,17.313433 164.403853,17.5429331 C164.55872,17.5971952 164.62572,17.6322039 164.746582,17.6800822 C164.727439,17.7949903 164.726179,17.8575832 164.696731,17.9980264 C164.554499,18.6750264 164.300727,19.5895509 164.036197,20.5228597 C163.771676,21.4564876 163.492202,22.4121715 163.288428,23.2347217 C163.186553,23.6461564 163.106669,24.0214429 163.051633,24.3818074 C162.996597,24.7418526 162.893149,25.0089628 163.064095,25.6473409 C163.232585,26.2764625 163.453399,26.4668779 163.681006,26.7570207 C163.908615,27.0474828 164.170434,27.3462533 164.466167,27.6609737 C165.057636,28.2910529 165.776805,28.999244 166.478921,29.6995447 C167.181034,30.3998455 167.86698,31.0903025 168.335887,31.6259017 C168.444715,31.7503854 168.484931,31.8167672 168.566448,31.9189077 C168.49179,32.0114725 168.457547,32.0597498 168.360811,32.1682741 C167.8993,32.6834452 167.224373,33.3500109 166.528769,34.0260533 C165.833169,34.7020957 165.116128,35.3916749 164.52848,36.0022836 C164.234668,36.3087051 163.971012,36.5903479 163.743322,36.8750645 C163.515617,37.1591428 163.297362,37.3466855 163.126409,37.9847444 C162.957951,38.613866 163.049448,38.8848096 163.101485,39.2502811 C163.153458,39.6154334 163.233332,40.0016106 163.332045,40.4223018 C163.529473,41.2636841 163.803144,42.2386183 164.061124,43.1965046 C164.319107,44.154391 164.564616,45.0974446 164.702962,45.7961494 C164.735122,45.9589358 164.739519,46.0356497 164.759044,46.1639637 C164.648749,46.2054583 164.591917,46.2314945 164.453705,46.276181 C163.79661,46.4900377 162.876501,46.7303743 161.936205,46.9681733 C160.995909,47.20437 160.03336,47.4442629 159.219302,47.6788668 C158.812272,47.7969668 158.443196,47.9086223 158.103877,48.0404474 C157.764553,48.1745068 157.480426,48.2224649 157.013376,48.6888001 C156.553199,49.1493899 156.496635,49.4376081 156.359073,49.7797787 C156.221534,50.1222686 156.097485,50.4944909 155.972727,50.9081599 C155.723199,51.7358203 155.474002,52.7176043 155.218724,53.676129 C154.963453,54.6346537 154.70024,55.5704745 154.470953,56.2446049 C154.418246,56.3978157 154.381207,56.4681043 154.33386,56.587481 C154.218971,56.5555621 154.156217,56.5567591 154.016058,56.5376077 C153.339416,56.3939726 152.41914,56.1413952 151.486096,55.8767874 C150.55305,55.6118605 149.604025,55.3385645 148.781653,55.1349219 C148.370469,55.0327814 147.995136,54.9460513 147.635073,54.8917892 C147.275003,54.8375271 147.001859,54.7378316 146.363859,54.9229612 C145.741043,55.0921314 145.543724,55.3069648 145.254665,55.5339082 C144.964362,55.7605324 144.672161,56.0238442 144.357339,56.3194133 C143.727692,56.9111898 143.019808,57.6367448 142.319661,58.3392831 C141.619513,59.041499 140.929649,59.7216206 140.394147,60.1908285 C140.269846,60.2993528 140.203429,60.3416932 140.101269,60.4214905 C140.010436,60.3448851 139.960042,60.3115203 139.852012,60.2157635 C139.336786,59.7535778 138.664667,59.0787515 137.988815,58.3829194 C137.312964,57.6874065 136.630013,56.9693811 136.019682,56.3817541 C135.714514,56.0881002 135.431562,55.8238308 135.147283,55.596249 C134.86301,55.3696248 134.675409,55.1501536 134.038089,54.9790683 C133.409495,54.8098981 133.138204,54.9032098 132.773106,54.9478994 C132.408009,54.9989665 132.022071,55.0796128 131.601599,55.1785614 C130.760655,55.3764586 129.785988,55.6497355 128.828611,55.9079594 C127.871236,56.1665026 126.928283,56.4115504 126.230104,56.5500784 C126.067868,56.5819973 125.991742,56.5838423 125.862451,56.6061855 C125.821102,56.4976612 125.795556,56.4411552 125.750283,56.300712 C125.535119,55.6435017 125.296033,54.7227594 125.058597,53.7821093 C124.82116,52.8414592 124.58292,51.8785871 124.348211,51.0640167 C124.230865,50.6567315 124.119166,50.287717 123.986789,49.9480999 C123.854415,49.6084827 123.799666,49.3244141 123.332489,48.8571213 C122.872181,48.3965315 122.590476,48.3404244 122.248219,48.2025348 C121.905962,48.0652835 121.533855,47.9408189 121.120332,47.816016 C120.29328,47.5670517 119.311702,47.3170341 118.353575,47.0616829 C117.395451,46.8063317 116.460065,46.5430805 115.786227,46.3135836 C115.63136,46.2625133 115.56436,46.2243128 115.443498,46.1764344 C115.462641,46.0615264 115.463901,45.9989334 115.493349,45.8584902 C115.635581,45.1814903 115.889353,44.2672849 116.15388,43.333657 C116.418404,42.4003482 116.691641,41.4446643 116.895421,40.6217949 C116.997293,40.2103602 117.083411,39.8347545 117.138447,39.4747093 C117.193483,39.1143449 117.290729,38.8472347 117.119751,38.2091758 C116.951197,37.5800542 116.736668,37.389958 116.509071,37.0994959 C116.281461,36.8090339 116.019637,36.5105826 115.72391,36.195543 C115.132457,35.5657798 114.407044,34.8575919 113.704928,34.1569719 C113.002812,33.4566711 112.323113,32.7665333 111.854193,32.2306149 C111.745876,32.1061312 111.704891,32.0397495 111.623629,31.937609 C111.698031,31.848236 111.733041,31.7967668 111.829266,31.6882425 C112.290783,31.1730714 112.965707,30.5065057 113.661308,29.8304633 C114.356908,29.1544209 115.073956,28.4648417 115.661597,27.8542331 C115.955409,27.5478116 116.21284,27.2658496 116.440527,26.9814521 C116.6682,26.6973739 116.892722,26.5101503 117.063668,25.8717691 C117.232126,25.2426506 117.140632,24.971707 117.088596,24.6062356 C117.036622,24.2410833 116.950514,23.854906 116.8518,23.4342149 C116.654373,22.5928325 116.386936,21.6178983 116.128956,20.660012 C115.870969,19.7021257 115.625464,18.7587529 115.487118,18.0603672 C115.454958,17.8975808 115.450558,17.8211861 115.431036,17.6925497 C115.541331,17.6510552 115.598131,17.6250221 115.736375,17.5803356 C116.393505,17.366479 117.313557,17.12582 118.253872,16.8883434 C119.19419,16.6521435 120.156682,16.4125729 120.970778,16.1776498 C121.377824,16.0595499 121.746846,15.9478943 122.086203,15.8160693 C122.425559,15.6852017 122.709705,15.6340517 123.176704,15.1677165 C123.637165,14.7071267 123.693436,14.4192278 123.831003,14.0767379 C123.968577,13.7345673 124.08637,13.3620226 124.211122,12.9483536 C124.46065,12.1210156 124.716075,11.1389124 124.971356,10.1803877 C125.226627,9.22186295 125.483602,8.28603897 125.712897,7.61191171 C125.765444,7.45870096 125.802769,7.38840915 125.849986,7.26903564 C125.965548,7.30095135 126.026516,7.29975759 126.167791,7.31890574 C126.844427,7.46254081 127.764706,7.71480229 128.697753,7.9797292 C129.630796,8.24465611 130.579818,8.51763297 131.402193,8.72159477 C131.81338,8.82373526 132.194935,8.91046212 132.555007,8.96472745 C132.91508,9.01898959 133.181949,9.11868509 133.819987,8.93355545 C134.449251,8.76438525 134.638878,8.55019025 134.929184,8.32260846 C135.219487,8.09598424 135.511685,7.83299161 135.82651,7.53710337 C136.456157,6.94532688 137.164035,6.21976868 137.864188,5.51723359 C138.564332,4.8146985 139.260431,4.13489605 139.79593,3.66568815 C139.918604,3.55716388 139.981406,3.51482345 140.082576,3.43502619 Z M140.095038,12.4870265 C129.386676,12.4870265 120.671714,21.2056465 120.671669,31.9189077 C120.671714,42.6318496 129.386676,51.3507857 140.095038,51.3507857 C150.803404,51.3507857 159.518363,42.6318496 159.518411,31.9189077 C159.518363,21.2056465 150.803404,12.4870265 140.095038,12.4870265 Z M140.095038,15.6789169 C149.079138,15.6789169 156.32788,22.9308633 156.327918,31.9189077 C156.32788,40.906952 149.079138,48.1588953 140.095038,48.1588953 C131.110942,48.1588953 123.8622,40.906952 123.862162,31.9189077 C123.8622,22.9308633 131.110942,15.6789169 140.095038,15.6789169 Z M16.8809487,24.0513956 L113.723621,24.0513956 C113.729919,24.0778596 113.742464,24.1189807 113.748548,24.1449084 C113.832394,24.502081 113.892749,24.8012601 113.923027,25.0052219 C113.797736,25.1584326 113.605158,25.3699241 113.362199,25.6224058 C112.847917,26.1567283 112.142808,26.8313311 111.436685,27.5175908 C110.730565,28.2038472 110.021016,28.8990793 109.448862,29.5374574 C109.16277,29.8569656 108.914559,30.1588386 108.694856,30.4850498 L20.7382035,30.4850498 C19.8572097,30.485138 19.1430451,31.1996154 19.1429571,32.0809951 L19.1429571,55.9703003 L12.7619714,55.9703003 L12.7619714,28.1908786 C12.7619714,25.8697358 14.5720755,24.0513956 16.8809487,24.0513956 Z M151.317846,25.204715 L151.317846,25.2109488 C151.014246,25.1996908 150.713745,25.2753905 150.451678,25.4291464 L133.944617,34.8551979 L130.317923,28.6397382 C130.040687,28.1276006 129.506625,27.8071961 128.924471,27.8037524 C128.342317,27.8003087 127.804505,28.1143726 127.521235,28.6231945 C127.237965,29.1320165 127.254214,29.7548061 127.563631,30.2481509 L131.981717,37.8288908 C132.423462,38.5842156 133.390766,38.8428332 134.150254,38.4086689 L152.034462,28.1971123 C152.662643,27.8500743 152.981932,27.126158 152.814739,26.4280074 C152.647547,25.7298568 152.035019,25.2292866 151.317846,25.204715 Z M22.3334499,33.6769403 L108.950347,33.6769403 C109.109776,33.8870146 109.25972,34.0967697 109.448862,34.3128255 C110.024471,34.9706742 110.743066,35.6907551 111.455382,36.4012699 C112.167697,37.1121039 112.872752,37.810598 113.393357,38.3650294 C113.643588,38.6299563 113.844595,38.8581063 113.972878,39.0196159 C113.941292,39.2143213 113.88298,39.4947607 113.7984,39.8362898 C113.620051,40.5563803 113.350311,41.4944993 113.081783,42.4421716 C112.813271,43.3898438 112.54773,44.3457352 112.371401,45.1852024 C112.283248,45.6046168 112.211672,45.9895588 112.184457,46.3821613 C112.157338,46.7744447 112.044812,47.1579503 112.464873,47.87836 C112.878507,48.5879173 113.256361,48.6799714 113.611456,48.8571213 C113.966552,49.0326753 114.344456,49.1776892 114.758039,49.3184516 C115.585207,49.599338 116.558996,49.8637957 117.531028,50.122658 C118.503056,50.3812011 119.470164,50.6386845 120.198079,50.8582898 C120.548586,50.9636222 120.835112,51.0559859 121.02686,51.1325913 C121.097242,51.3177209 121.184911,51.5922235 121.282348,51.9305639 C121.487752,52.643313 121.720543,53.5876626 121.961572,54.5426762 C122.202614,55.4976898 122.448828,56.4580307 122.715578,57.2732395 C122.848941,57.6808439 122.985465,58.0482816 123.158007,58.4016239 C123.330549,58.7549661 123.424796,59.1471888 124.148805,59.561177 C124.86152,59.9687814 125.235857,59.8610168 125.631887,59.8354817 C126.027919,59.8035628 126.424692,59.7471047 126.853249,59.6609236 C127.710359,59.4917534 128.686072,59.2309855 129.657392,58.9689313 C130.628712,58.7071963 131.5904,58.4446633 132.330674,58.2707053 C132.687879,58.1877161 132.986633,58.1280693 133.190614,58.0961504 C133.344109,58.2206341 133.555204,58.4152788 133.807525,58.6572241 C134.341604,59.1714376 135.015949,59.8712979 135.70188,60.5773441 C136.207528,61.0980595 136.702134,61.5742704 137.191192,62.0423739 L137.191192,94.3228591 L22.3334499,94.3228591 L22.3334499,71.9297526 L89.4148094,71.9297526 C89.3661691,72.083015 89.3409583,72.242751 89.3400306,72.4035504 C89.3399292,72.4139398 89.3399292,72.4243299 89.3400306,72.4347192 C89.2889235,73.1465574 89.7163716,73.805828 90.3869111,74.0493657 C95.6659803,76.0523057 101.580363,75.2330624 106.139969,71.9297526 L113.262496,71.9297526 C114.14349,71.9296645 114.857654,71.2151871 114.857742,70.3338073 L114.857742,59.1933627 L116.42183,59.1933627 C117.087105,59.1975488 117.685139,58.7882866 117.922382,58.166465 C118.159626,57.5446435 117.98627,56.840815 117.487407,56.4004586 L106.769345,46.8247872 C106.446857,46.5379139 106.021964,46.3939718 105.591604,46.4258009 L105.591604,46.4195639 C105.240531,46.4443986 104.90752,46.5846753 104.644426,46.8185502 L94.3999545,55.9703003 L22.3334499,55.9703003 L22.3334499,33.6769403 Z M27.1191892,36.8189575 C26.2381954,36.8190456 25.5240308,37.533523 25.5239427,38.4149027 L25.5239427,51.3944252 C25.5240308,52.275805 26.2381954,52.9902824 27.1191892,52.9903705 L94.1195389,52.9903705 C95.0005326,52.9902824 95.7146972,52.275805 95.7147853,51.3944252 L95.7147853,38.4149027 C95.7146972,37.533523 95.0005326,36.8190456 94.1195389,36.8189575 L27.1191892,36.8189575 Z M28.7144356,40.0108479 L92.5242924,40.0108479 L92.5242924,49.79848 L28.7144356,49.79848 L28.7144356,40.0108479 Z M33.3443895,43.2027384 C32.7744628,43.2316925 32.2632689,43.5626327 32.0033696,44.0708969 C31.7434703,44.5791612 31.7743505,45.187532 32.0843778,45.6668422 C32.3944052,46.1461523 32.9364792,46.423583 33.5064059,46.3946289 L36.6968987,46.3946289 C37.2722003,46.4027662 37.8073158,46.100373 38.0973403,45.603241 C38.3873647,45.1061089 38.3873647,44.4912583 38.0973403,43.9941263 C37.8073158,43.4969943 37.2722003,43.1946011 36.6968987,43.2027384 L33.5064059,43.2027384 C33.4524353,43.1999933 33.3983601,43.1999933 33.3443895,43.2027384 Z M42.9345611,43.2027384 C42.0535308,43.2474976 41.3755833,43.9983111 41.4203229,44.8797273 C41.4650625,45.7611435 42.2155472,46.4393881 43.0965775,46.3946289 L87.7634773,46.3946289 C88.3387805,46.4027687 88.8738986,46.100376 89.1639245,45.603243 C89.4539505,45.1061099 89.4539505,44.4912574 89.1639245,43.9941243 C88.8738986,43.4969913 88.3387805,43.1945986 87.7634773,43.2027384 L43.0965775,43.2027384 C43.0426069,43.1999933 42.9885317,43.1999933 42.9345611,43.2027384 L42.9345611,43.2027384 Z M105.703769,50.1538268 L112.240543,55.9890015 L111.517695,55.9890015 L111.436685,55.9890015 C110.988655,55.9889896 110.561267,56.1774474 110.259006,56.5083023 C109.956745,56.8391573 109.807469,57.2819147 109.847673,57.7283329 C110.001196,59.420354 109.817682,61.0925248 109.367852,62.678256 C108.175156,65.6243741 107.099121,66.9977041 104.507334,69.1742542 C101.919158,71.1343941 98.7785262,71.6649342 95.6275444,71.4995943 C99.7542172,68.3699457 102.166753,63.5962341 101.933755,58.1834262 C102.130898,57.6958705 102.075307,57.1424475 101.785136,56.7038849 C101.494965,56.2653224 101.007463,55.99792 100.481831,55.9890015 L100.400822,55.9890015 L99.1732285,55.9890015 L105.703769,50.1538268 Z M146.762671,58.4265589 L146.762671,103.94217 L12.7619714,103.94217 L12.7619714,71.9297526 L19.1429571,71.9297526 L19.1429571,95.9188043 C19.1430451,96.8001841 19.8572097,97.5146615 20.7382035,97.5147496 L138.786439,97.5147496 C139.667432,97.5146615 140.381597,96.8001841 140.381685,95.9188043 L140.381685,63.7817053 C140.941872,63.7133956 141.242841,63.5103435 141.522037,63.3266119 C141.852828,63.1063715 142.165474,62.8539504 142.494139,62.5660419 C143.15147,61.9902248 143.871373,61.2776257 144.581669,60.5648766 C145.291968,59.8524466 145.990431,59.1404156 146.544572,58.6198183 C146.633759,58.5364366 146.683346,58.4975498 146.762671,58.4265589 Z M3.19049284,59.1621907 L94.7676077,59.1621907 C94.8397936,59.1734126 94.9126647,59.1796611 94.9857066,59.180892 L98.4628461,59.180892 C98.4333819,60.2848935 98.2580707,61.3384376 97.9954899,62.3540812 L17.5664037,62.3540812 C16.9911006,62.3459414 16.4559824,62.6483341 16.1659565,63.1454671 C15.8759305,63.6426001 15.8759305,64.2574527 16.1659565,64.7545857 C16.4559824,65.2517188 16.9911006,65.5541114 17.5664037,65.5459717 L96.6868902,65.5459717 C95.990948,66.7400994 95.1052927,67.8208128 94.0136049,68.7378621 L3.19049284,68.7378621 L3.19049284,59.1621907 Z M7.81421505,62.3540812 C6.93318478,62.3988406 6.25523738,63.1496542 6.29997716,64.0310704 C6.34471693,64.9124866 7.09520184,65.590731 7.97623211,65.5459717 L11.1667249,65.5459717 C11.7420265,65.554109 12.2771421,65.2517158 12.5671665,64.7545837 C12.8571909,64.2574517 12.8571909,63.6426011 12.5671665,63.1454691 C12.2771421,62.6483371 11.7420265,62.3459439 11.1667249,62.3540812 L7.97623211,62.3540812 C7.92226128,62.351336 7.86818588,62.351336 7.81421505,62.3540812 L7.81421505,62.3540812 Z M111.667249,65.3277772 L111.667249,68.7378621 L109.467555,68.7378621 C110.319113,67.7155347 111.042624,66.5996179 111.667249,65.3277772 Z M27.1191892,75.121643 C26.2381954,75.1217312 25.5240308,75.8362086 25.5239427,76.7175883 L25.5239427,89.4851501 C25.5240308,90.3665298 26.2381954,91.0810072 27.1191892,91.0810954 L94.1195389,91.0810954 C95.0005326,91.0810072 95.7146972,90.3665298 95.7147853,89.4851501 L95.7147853,76.7175883 C95.7146972,75.8362086 95.0005326,75.1217312 94.1195389,75.121643 L27.1191892,75.121643 Z M28.7144356,78.3135335 L92.5242924,78.3135335 L92.5242924,87.8892049 L28.7144356,87.8892049 L28.7144356,78.3135335 Z M33.3443895,81.505424 C32.7744628,81.5343781 32.2632689,81.8653183 32.0033696,82.3735825 C31.7434703,82.8818467 31.7743505,83.4902176 32.0843778,83.9695277 C32.3944052,84.4488378 32.9364792,84.7262686 33.5064059,84.6973144 L36.6968987,84.6973144 C37.2722003,84.7054518 37.8073158,84.4030585 38.0973403,83.9059265 C38.3873647,83.4087945 38.3873647,82.7939439 38.0973403,82.2968119 C37.8073158,81.7996799 37.2722003,81.4972867 36.6968987,81.505424 L33.5064059,81.505424 C33.4524353,81.5026788 33.3983601,81.5026788 33.3443895,81.505424 Z M42.9345611,81.505424 C42.0535308,81.5501832 41.3755833,82.3009967 41.4203229,83.1824129 C41.4650625,84.0638291 42.2155472,84.7420736 43.0965775,84.6973144 L87.7634773,84.6973144 C88.3387805,84.7054542 88.8738986,84.4030616 89.1639245,83.9059285 C89.4539505,83.4087955 89.4539505,82.7939429 89.1639245,82.2968099 C88.8738986,81.7996768 88.3387805,81.4972842 87.7634773,81.505424 L43.0965775,81.505424 C43.0426069,81.5026788 42.9885317,81.5026788 42.9345611,81.505424 Z M3.50829592,107.13406 L63.8098568,107.13406 L63.8098568,109.777345 C63.8098568,112.954233 66.3490999,115.606286 69.5053843,115.606286 L90.0192578,115.606286 C93.1755614,115.606286 95.7147853,112.954233 95.7147853,109.777345 L95.7147853,107.13406 L156.016347,107.13406 C155.197472,114.267616 149.431196,119.80811 142.064172,119.80811 L17.4604698,119.80811 C10.0934457,119.80811 4.32717037,114.267616 3.50829592,107.13406 Z M67.0003497,107.13406 L92.5242924,107.13406 L92.5242924,109.777345 C92.5242924,111.29477 91.4080666,112.414395 90.0192578,112.414395 L69.5053843,112.414395 C68.1166202,112.414395 67.0003497,111.29477 67.0003497,109.777345 L67.0003497,107.13406 Z" id="Shape"></path>
                </g>
            </g>
        </g>
    </g>
</svg>