<?xml version="1.0" encoding="UTF-8"?>
<svg width="72px" height="65px" viewBox="0 0 72 65" version="1.1" xmlns="http://www.w3.org/2000/svg" xmlns:xlink="http://www.w3.org/1999/xlink">
    <!-- Generator: Sketch 41.2 (35397) - http://www.bohemiancoding.com/sketch -->
    <title>icon-hocbong</title>
    <desc>Created with Sketch.</desc>
    <defs></defs>
    <g id="Page-1" stroke="none" stroke-width="1" fill="none" fill-rule="evenodd">
        <g id="TopCourses_DoiTac_1366px" transform="translate(-792.000000, -1003.000000)">
            <g id="icon-hocbong" transform="translate(793.000000, 1004.000000)">
                <polygon id="Stroke-1" stroke="#1B6DA3" stroke-width="2" stroke-linecap="round" stroke-linejoin="round" points="34.591 39.685 0 19.843 34.591 0 69.182 19.843"></polygon>
                <path d="M10,20.101 L34.581,6" id="Stroke-3" stroke="#1B6DA3" stroke-width="2" stroke-linecap="round" stroke-linejoin="round"></path>
                <path d="M59.581,20 L35,34.1" id="Stroke-4" stroke="#1B6DA3" stroke-width="2" stroke-linecap="round" stroke-linejoin="round"></path>
                <polyline id="Stroke-5" stroke="#1B6DA3" stroke-width="2" stroke-linecap="round" stroke-linejoin="round" points="52 42.374 56.749 39.633 56.749 27"></polyline>
                <polyline id="Stroke-6" stroke="#1B6DA3" stroke-width="2" stroke-linecap="round" stroke-linejoin="round" points="13 27 13 39.637 34.88 52.27 39.871 49.388"></polyline>
                <path d="M37.899,19.95 C37.899,21.579 36.578,22.9 34.949,22.9 C33.32,22.9 32,21.579 32,19.95 C32,18.321 33.32,17 34.949,17 C36.578,17 37.899,18.321 37.899,19.95 Z" id="Stroke-7" stroke="#1B6DA3" stroke-width="2" stroke-linecap="round" stroke-linejoin="round"></path>
                <path d="M23.397,56.699 C23.397,59.846 20.846,62.397 17.698,62.397 C14.551,62.397 12,59.846 12,56.699 C12,53.552 14.551,51 17.698,51 C20.846,51 23.397,53.552 23.397,56.699 Z" id="Stroke-9" stroke="#1B6DA3" stroke-width="2" stroke-linecap="round" stroke-linejoin="round"></path>
                <path d="M55.533,48.767 C55.533,53.057 52.055,56.534 47.766,56.534 C43.477,56.534 40,53.057 40,48.767 C40,44.478 43.477,41 47.766,41 C52.055,41 55.533,44.478 55.533,48.767 Z" id="Stroke-11" stroke="#1B6DA3" stroke-width="2" stroke-linecap="round" stroke-linejoin="round"></path>
                <polyline id="Stroke-13" stroke="#1B6DA3" stroke-width="2" stroke-linecap="round" stroke-linejoin="round" points="31.694 21 17 29.483 17 50.687"></polyline>
                <path d="M48.506,56.022 L48.506,53.834 C49.669,53.42 50.509,52.318 50.509,51.014 C50.509,49.357 49.161,48.009 47.505,48.009 C46.951,48.009 46.503,47.56 46.503,47.008 C46.503,46.456 46.951,46.006 47.505,46.006 C48.057,46.006 48.506,46.456 48.506,47.008 L50.509,47.008 C50.509,45.704 49.669,44.602 48.506,44.188 L48.506,42 L46.503,42 L46.503,44.188 C45.34,44.602 44.5,45.704 44.5,47.008 C44.5,48.665 45.848,50.013 47.505,50.013 C48.057,50.013 48.506,50.462 48.506,51.014 C48.506,51.566 48.057,52.016 47.505,52.016 C46.951,52.016 46.503,51.566 46.503,51.014 L44.5,51.014 C44.5,52.318 45.34,53.42 46.503,53.834 L46.503,56.022 L48.506,56.022 Z" id="Fill-15" fill="#1B6DA3"></path>
                <path d="M19,19.657 L34.092,11" id="Stroke-17" stroke="#1B6DA3" stroke-width="2" stroke-linecap="round" stroke-linejoin="round"></path>
                <path d="M35,11 L50.092,19.657" id="Stroke-19" stroke="#1B6DA3" stroke-width="2" stroke-linecap="round" stroke-linejoin="round"></path>
            </g>
        </g>
    </g>
</svg>