<?xml version="1.0" encoding="UTF-8"?>
<svg width="128px" height="128px" viewBox="0 0 128 128" version="1.1" xmlns="http://www.w3.org/2000/svg" xmlns:xlink="http://www.w3.org/1999/xlink">
    <!-- Generator: Sketch 52.4 (67378) - http://www.bohemiancoding.com/sketch -->
    <title>icon-truycap</title>
    <desc>Created with Sketch.</desc>
    <g id="Page-1" stroke="none" stroke-width="1" fill="none" fill-rule="evenodd">
        <g id="TopCourses_DoiTac_1366px" transform="translate(-233.000000, -1906.000000)" fill="#1B6DA3">
            <g id="icon-truycap" transform="translate(233.000000, 1906.000000)">
                <path d="M64,0 C28.6695707,0 0,28.6696 0,64 C0,99.3304 28.6695707,128 64,128 C99.330432,128 128,99.3304 128,64 C128,28.6696 99.330432,0 64,0 Z M64,2.66666667 C97.8892587,2.66666667 125.333333,30.1106667 125.333333,64 C125.333333,97.8893333 97.8892587,125.333333 64,125.333333 C30.110744,125.333333 2.66666667,97.8893333 2.66666667,64 C2.66666667,30.1106667 30.110744,2.66666667 64,2.66666667 Z M28,29.3333333 C27.2636508,29.3334069 26.6667402,29.9303175 26.6666667,30.6666667 L26.6666667,97.3333333 C26.6667402,98.0696825 27.2636508,98.6665931 28,98.6666667 L71.1614587,98.6666667 C74.165216,104.9608 80.573032,109.333333 88,109.333333 C98.2935227,109.333333 106.666667,100.960267 106.666667,90.6666667 C106.666667,82.2264 101.035203,75.081784 93.3333333,72.7812507 L93.3333333,41.5989573 C93.371846,41.4169447 93.371846,41.2288873 93.3333333,41.0468747 L93.3333333,30.6666667 C93.3332598,29.9303175 92.7363492,29.3334069 92,29.3333333 L28,29.3333333 Z M29.3333333,32 L90.6666667,32 L90.6666667,40 L29.3333333,40 L29.3333333,32 Z M76,34.6666667 C75.2636203,34.6666667 74.6666667,35.2636203 74.6666667,36 C74.6666667,36.7363797 75.2636203,37.3333333 76,37.3333333 C76.7363797,37.3333333 77.3333333,36.7363797 77.3333333,36 C77.3333333,35.2636203 76.7363797,34.6666667 76,34.6666667 Z M81.3333333,34.6666667 C80.5969537,34.6666667 80,35.2636203 80,36 C80,36.7363797 80.5969537,37.3333333 81.3333333,37.3333333 C82.069713,37.3333333 82.6666667,36.7363797 82.6666667,36 C82.6666667,35.2636203 82.069713,34.6666667 81.3333333,34.6666667 Z M86.6666667,34.6666667 C85.930287,34.6666667 85.3333333,35.2636203 85.3333333,36 C85.3333333,36.7363797 85.930287,37.3333333 86.6666667,37.3333333 C87.4030463,37.3333333 88,36.7363797 88,36 C88,35.2636203 87.4030463,34.6666667 86.6666667,34.6666667 Z M29.3333333,42.6666667 L90.6666667,42.6666667 L90.6666667,72.2083333 C89.793096,72.083 88.9078773,72 88,72 C84.4987627,72 81.230032,72.9832 78.4270827,74.6666667 L72,74.6666667 L72,77.3333333 L74.9583333,77.3333333 C71.493768,80.724 69.3333333,85.4472 69.3333333,90.6666667 L34.6666667,90.6666667 L34.6666667,93.3333333 L69.5468747,93.3333333 C69.6781813,94.2437333 69.8616267,95.1368 70.119792,96 L29.3333333,96 L29.3333333,42.6666667 Z M37.3333333,45.3333333 L37.3333333,48 L85.3333333,48 L85.3333333,45.3333333 L37.3333333,45.3333333 Z M40,50.6666667 L40,53.3333333 L82.6666667,53.3333333 L82.6666667,50.6666667 L40,50.6666667 Z M36,56 C35.2636508,56.0000736 34.6667403,56.5969842 34.6666667,57.3333333 L34.6666667,68 C34.6667403,68.7363492 35.2636508,69.3332597 36,69.3333333 L46.6666667,69.3333333 C47.4030158,69.3332597 47.9999264,68.7363492 48,68 L48,57.3333333 C47.9999264,56.5969842 47.4030158,56.0000736 46.6666667,56 L36,56 Z M54.6666667,56 C53.9303175,56.0000736 53.3334069,56.5969841 53.3333333,57.3333333 L53.3333333,68 C53.3334069,68.7363492 53.9303175,69.3332598 54.6666667,69.3333333 L65.3333333,69.3333333 C66.0696825,69.3332598 66.6665931,68.7363492 66.6666667,68 L66.6666667,57.3333333 C66.6665931,56.5969841 66.0696825,56.0000736 65.3333333,56 L54.6666667,56 Z M73.3333333,56 C72.5969842,56.0000736 72.0000736,56.5969842 72,57.3333333 L72,68 C72.0000736,68.7363492 72.5969842,69.3332597 73.3333333,69.3333333 L84,69.3333333 C84.7363492,69.3332597 85.3332597,68.7363492 85.3333333,68 L85.3333333,57.3333333 C85.3332597,56.5969842 84.7363492,56.0000736 84,56 L73.3333333,56 Z M37.3333333,58.6666667 L45.3333333,58.6666667 L45.3333333,66.6666667 L37.3333333,66.6666667 L37.3333333,58.6666667 Z M56,58.6666667 L64,58.6666667 L64,66.6666667 L56,66.6666667 L56,58.6666667 Z M74.6666667,58.6666667 L82.6666667,58.6666667 L82.6666667,66.6666667 L74.6666667,66.6666667 L74.6666667,58.6666667 Z M34.6666667,74.6666667 L34.6666667,77.3333333 L48,77.3333333 L48,74.6666667 L34.6666667,74.6666667 Z M53.3333333,74.6666667 L53.3333333,77.3333333 L66.6666667,77.3333333 L66.6666667,74.6666667 L53.3333333,74.6666667 Z M88,74.6666667 C96.8523493,74.6666667 104,81.8144 104,90.6666667 C104,99.5192 96.8523493,106.666667 88,106.666667 C79.1476507,106.666667 72,99.5192 72,90.6666667 C72,81.8144 79.1476507,74.6666667 88,74.6666667 Z M37.3333333,80 L37.3333333,82.6666667 L45.3333333,82.6666667 L45.3333333,80 L37.3333333,80 Z M56,80 L56,82.6666667 L64,82.6666667 L64,80 L56,80 Z M90.6822907,81.3177093 C90.0968576,81.313517 89.5771608,81.6916705 89.4010427,82.25 L84.0677093,98.25 C83.9081919,98.7047835 84.0064879,99.2102514 84.3248141,99.5721109 C84.6431404,99.9339703 85.1319532,100.095902 85.6033617,99.9956628 C86.0747702,99.8954234 86.4554051,99.5486138 86.5989573,99.0885413 L91.9322907,83.0885413 C92.0732905,82.6824701 92.0098916,82.2333298 91.7620017,81.8821526 C91.5141118,81.5309754 91.1121337,81.3208324 90.6822907,81.3177093 L90.6822907,81.3177093 Z M81.3333333,84.3385413 C80.9873596,84.3385403 80.654929,84.4730067 80.4062507,84.7135413 L75.260416,89.5468747 C74.9333286,89.7648593 74.719078,90.11605 74.6748997,90.5066288 C74.6307214,90.8972075 74.7611164,91.2873811 75.0312507,91.5729173 C75.0431675,91.585304 75.0553227,91.5974591 75.0677093,91.609376 C75.077952,91.6199639 75.0883694,91.6303813 75.0989573,91.640624 L80.4062507,96.625 C80.942715,97.1298228 81.7868451,97.1041723 82.2916679,96.567708 C82.7964908,96.0312436 82.7708403,95.1871135 82.234376,94.6822907 L77.9635413,90.6666667 L82.234376,86.6562507 C82.6407015,86.2848414 82.7770293,85.7019178 82.5775598,85.1888318 C82.3780903,84.6757458 81.8838286,84.3379729 81.3333333,84.3385413 Z M94.5833333,84.3385413 C94.0404035,84.3546903 93.5615286,84.6985408 93.3726914,85.2078286 C93.1838542,85.7171164 93.322799,86.2900463 93.7239573,86.6562507 L97.994792,90.6666667 L93.7239573,94.6822907 C93.187493,95.1871135 93.1618425,96.0312436 93.6666654,96.567708 C94.1714882,97.1041723 95.0156183,97.1298228 95.5520827,96.625 L100.848957,91.6458347 C100.885572,91.6130574 100.920348,91.5782817 100.953125,91.5416667 C100.978811,91.5115154 101.003141,91.4802346 101.026043,91.4479173 C101.029515,91.4479309 101.032987,91.4479309 101.036459,91.4479173 C101.251429,91.1525218 101.335788,90.7818631 101.269828,90.4225302 C101.203868,90.0631973 100.993366,89.7466639 100.687499,89.5468747 L95.5520827,84.7239573 C95.2931326,84.4731461 94.9436644,84.337868 94.5833333,84.3489573 L94.5833333,84.3385413 Z M37.3333333,85.3333333 L37.3333333,88 L45.3333333,88 L45.3333333,85.3333333 L37.3333333,85.3333333 Z M56,85.3333333 L56,88 L64,88 L64,85.3333333 L56,85.3333333 Z" id="Shape"></path>
            </g>
        </g>
    </g>
</svg>