<?xml version="1.0" encoding="UTF-8"?>
<svg width="193px" height="140px" viewBox="0 0 193 140" version="1.1" xmlns="http://www.w3.org/2000/svg" xmlns:xlink="http://www.w3.org/1999/xlink">
    <!-- Generator: Sketch 41.2 (35397) - http://www.bohemiancoding.com/sketch -->
    <title>icon_support</title>
    <desc>Created with Sketch.</desc>
    <defs></defs>
    <g id="Page-1" stroke="none" stroke-width="1" fill="none" fill-rule="evenodd">
        <g id="TopCourses_DoiTac_1366px" transform="translate(-974.000000, -1137.000000)" fill="#1B6DA3">
            <g id="Block-icon-3" transform="translate(884.000000, 1137.000000)">
                <g id="icon_support" transform="translate(90.000000, 0.000000)">
                    <path d="M94.2349755,0 C86.3358253,0 79.8981585,6.4295 79.8981171,14.3181818 C79.8981298,18.8381836 82.052211,22.82763 85.3428863,25.4545455 L84.6770699,25.4545455 C79.9704227,25.4545455 75.8293485,27.75199 73.2150511,31.2526645 C72.3739777,31.0561873 71.5016723,30.9108673 70.5642265,30.9108673 L69.7926232,30.9108673 C72.8668821,28.6302927 74.8951748,25.0151141 74.8951493,20.9117555 C74.8951907,14.0269373 69.2690283,8.41441682 62.3752902,8.41441682 C55.4815488,8.41441682 49.861615,14.0269373 49.8616532,20.9117555 C49.8616278,25.0151141 51.8854824,28.6302927 54.9579572,30.9108673 L54.1801316,30.9108673 C49.1478402,30.9108673 44.8349404,33.8996955 42.8487885,38.1818182 L31.3743221,38.1818182 C27.3553248,38.1818182 24.0752192,41.4726932 24.0752192,45.4900568 L24.0752192,69.94407 C22.8624407,68.8978245 21.3017319,68.2413009 19.5825059,68.2413009 C15.7991163,68.2413009 12.6816037,71.3155418 12.6816483,75.0834509 C12.6816369,76.0402173 12.8860298,76.9459855 13.2479042,77.7743241 L5.97991351,83.9390968 C5.58953902,83.8348509 5.18755294,83.7650927 4.76650777,83.7650927 C2.1619804,83.7650927 8.50653598e-05,85.8935 0,88.4943182 C-0.000181281609,91.0954545 2.16179849,93.2235436 4.76650777,93.2235436 C5.00491029,93.2235436 5.23386641,93.1833605 5.46343838,93.1489714 L11.854043,103.688744 C11.5906351,104.226872 11.4122594,104.813717 11.4122387,105.447443 C11.4123123,107.701443 13.2897516,109.549007 15.5440416,109.549007 C17.371192,109.549007 18.9312423,108.325573 19.4642765,106.665485 L24.0752192,105.142934 L24.0752192,121.002309 L16.1102978,121.002309 C15.2305534,121.002396 14.5174015,121.714619 14.5173136,122.593218 C14.5173136,132.211854 22.3208863,140 31.9530246,140 L156.380028,140 C166.012167,140 173.815741,132.211854 173.815741,122.593218 C173.815653,121.714619 173.102502,121.002396 172.222757,121.002309 L164.257836,121.002309 L164.257836,94.2178618 C166.027648,95.3291627 167.244321,97.1894955 167.512252,99.3696741 L167.512252,100.227273 C167.51234,101.105871 168.225492,101.818094 169.105236,101.818182 L175.477173,101.818182 C176.356918,101.818094 177.070069,101.105871 177.070157,100.227273 L177.070157,91.1168332 C181.387549,90.4197891 184.717677,86.6950445 184.717728,82.1928259 C184.717677,77.6905595 181.387616,73.9544495 177.070157,73.2563936 L177.070157,65.2272727 C177.070069,64.3486743 176.356918,63.6364515 175.477173,63.6363636 L169.105236,63.6363636 C168.225492,63.6364515 167.51234,64.3486743 167.512252,65.2272727 L167.512252,66.1905173 C167.244933,68.37236 166.028298,70.2352382 164.257836,71.3485436 L164.257836,45.4900568 C164.257836,41.4726932 160.977728,38.1818182 156.958731,38.1818182 L145.621162,38.1818182 C143.635011,33.8996955 139.322111,30.9108673 134.289819,30.9108673 L132.149247,30.9108673 C135.221718,28.6302927 137.245573,25.0151141 137.245551,20.9117555 C137.245589,14.0269373 131.625652,8.41441682 124.731914,8.41441682 C117.838172,8.41441682 112.218235,14.0269373 112.218274,20.9117555 C112.218251,25.0419559 114.263876,28.6831809 117.370584,30.9605832 C116.633249,30.9982527 115.928856,31.0947445 115.2549,31.2526645 C112.640602,27.75199 108.499528,25.4545455 103.792881,25.4545455 L103.127065,25.4545455 C106.41774,22.82763 108.571821,18.8381836 108.571834,14.3181818 C108.571792,6.4295 102.134126,0 94.2349755,0 Z M94.2349755,3.18181818 C100.412307,3.18181818 105.385834,8.14895455 105.385865,14.3181818 C105.385846,20.4874091 100.412317,25.4545455 94.2349755,25.4545455 C88.0576342,25.4545455 83.0841047,20.4874091 83.0840856,14.3181818 C83.0841175,8.14895455 88.0576438,3.18181818 94.2349755,3.18181818 Z M62.3752902,11.596235 C67.5471971,11.596235 71.7092126,15.74671 71.7091808,20.9117555 C71.7092094,26.0768009 67.5471971,30.2272727 62.3752902,30.2272727 C57.20338,30.2272727 53.0475931,26.0768009 53.0476218,20.9117555 C53.0475931,15.74671 57.20338,11.596235 62.3752902,11.596235 Z M124.731914,11.596235 C129.903821,11.596235 134.059611,15.74671 134.059582,20.9117555 C134.059611,26.0768009 129.903821,30.2272727 124.731914,30.2272727 C119.560004,30.2272727 115.404214,26.0768009 115.404242,20.9117555 C115.404214,15.74671 119.560004,11.596235 124.731914,11.596235 Z M84.6770699,28.6363636 L103.792881,28.6363636 C107.694135,28.6363636 111.09371,30.5869645 113.083216,33.5768809 C113.083212,33.5789533 113.083212,33.5810258 113.083216,33.5830982 C113.122713,33.6963253 113.1749,33.8047308 113.238781,33.90625 C113.679926,34.6147614 114.023781,35.3762405 114.302843,36.1683255 C114.403055,36.463805 114.507169,36.7567836 114.582861,37.0632118 C114.649993,37.3230614 114.702854,37.5854945 114.75087,37.8524491 C114.857874,38.4773868 114.943771,39.1150645 114.943771,39.7727273 L114.943771,60.4545455 L110.451058,60.4545455 L110.451058,47.522195 L107.26509,47.522195 L107.26509,60.4545455 L81.7773415,60.4545455 L81.7773415,47.522195 L78.591373,47.522195 L78.591373,60.4545455 L73.52618,60.4545455 L73.52618,39.7727273 C73.52618,39.1194873 73.6072597,38.48586 73.7128587,37.8648805 C73.7651277,37.5741927 73.8308064,37.2895377 73.9057595,37.0072786 C73.972821,36.7418895 74.0629042,36.4876145 74.1484411,36.2304695 C74.431371,35.4154532 74.7846408,34.6334068 75.2373924,33.90625 C75.3051818,33.797189 75.3595067,33.6803357 75.3991823,33.5582386 C77.3903967,30.5787523 80.7838578,28.6363636 84.6770699,28.6363636 Z M54.1801316,34.0864714 L54.1801316,34.0926855 L70.5642265,34.0926855 C70.8649373,34.0926855 71.1586167,34.1750309 71.4540548,34.2418332 C70.9252732,35.5009327 70.6378096,36.8699736 70.4895538,38.28125 C70.3963642,38.76166 70.3402115,39.252115 70.3402115,39.7665132 L70.3402115,39.7727273 L70.3402115,60.4483314 L53.1036247,60.4483314 L53.1036247,50.7040132 L49.9176562,50.7040132 L49.9176562,60.4483314 L44.8524632,60.4483314 L44.8524632,43.4019886 C44.8524632,38.2118068 48.9832244,34.0864714 54.1801316,34.0864714 Z M117.905724,34.0926855 L134.289819,34.0926855 C139.486727,34.0926855 143.617488,38.2180209 143.617488,43.4082027 L143.617488,60.4545455 L135.938807,60.4545455 L135.938807,50.7040132 L132.752838,50.7040132 L132.752838,60.4545455 L118.129739,60.4545455 L118.129739,39.7727273 C118.129739,39.2583927 118.072994,38.7616855 117.980397,38.28125 C117.832141,36.8699736 117.544678,35.5009327 117.015896,34.2418332 C117.310834,34.1747764 117.604596,34.0926855 117.905724,34.0926855 Z M31.3743221,41.3636364 L41.8718399,41.3636364 C41.7607325,42.0326677 41.6664947,42.7079355 41.6664947,43.4082027 L41.6664947,47.7769886 L35.2261103,47.7769886 C34.3463658,47.7770765 33.633214,48.4892993 33.633126,49.3678977 L33.633126,113.004261 C33.633214,113.88286 34.3463658,114.595083 35.2261103,114.59517 L153.106946,114.59517 C153.98669,114.595083 154.699842,113.88286 154.69993,113.004261 L154.69993,93.1116836 L155.06084,93.1116836 L160.449606,93.1116836 C160.662579,93.1116836 160.863804,93.1559077 161.071867,93.1738277 L161.071867,121.002309 L27.261189,121.002309 L27.261189,45.4900568 C27.261189,43.1762386 29.0687259,41.3636364 31.3743221,41.3636364 Z M146.598111,41.3636364 L156.958731,41.3636364 C159.264327,41.3636364 161.071867,43.1762386 161.071867,45.4900568 L161.071867,72.3987918 C160.863894,72.4167309 160.662486,72.4609391 160.449606,72.4609391 L155.06084,72.4609391 L154.69993,72.4609391 L154.69993,49.3678977 C154.699842,48.4892993 153.98669,47.7770765 153.106946,47.7769886 L146.803456,47.7769886 L146.803456,43.4082027 C146.803456,42.7079355 146.709219,42.0326677 146.598111,41.3636364 Z M36.8190946,50.9588068 L41.6664947,50.9588068 L41.6664947,62.0454545 C41.6665827,62.924053 42.3797345,63.6362758 43.259479,63.6363636 L71.9331958,63.6363636 L116.536755,63.6363636 L145.210472,63.6363636 C146.090216,63.6362758 146.803368,62.924053 146.803456,62.0454545 L146.803456,50.9588068 L151.513962,50.9588068 L151.513962,72.4609391 L147.954636,72.4609391 L146.865681,72.4609391 C146.811893,72.4561295 146.757894,72.4540544 146.703895,72.4547218 L144.202412,72.4547218 L137.954926,72.4547218 C135.142098,72.4547218 132.837317,74.6790005 132.653277,77.4449582 L130.462923,77.4449582 C128.91581,77.4449582 127.619198,78.7398882 127.619198,80.2849791 L127.619198,85.2752123 C127.619198,86.8203032 128.91581,88.1152332 130.462923,88.1152332 L132.653277,88.1152332 C132.792252,90.2289405 134.165302,92.0101955 136.069479,92.7388127 L132.385703,108.386896 C132.286733,108.804674 132.363073,109.205479 132.597822,109.500575 C132.832572,109.795671 133.206364,109.960713 133.636444,109.959163 L142.397858,109.959163 C142.826577,109.959258 143.27674,109.793574 143.649103,109.498636 C144.021466,109.203698 144.285453,108.803725 144.382866,108.386896 L147.973303,93.1116836 L151.513962,93.1116836 L151.513962,111.413352 L36.8190946,111.413352 L36.8190946,50.9588068 Z M187.517894,63.3442823 L183.193191,65.8362918 L184.786175,68.5955264 L189.110879,66.0973027 L187.517894,63.3442823 Z M170.785337,66.8181818 L173.884189,66.8181818 L173.884189,98.6363636 L170.785337,98.6363636 L170.785337,66.8181818 Z M19.5825059,71.4231191 C21.659159,71.4231191 23.291196,73.0502691 23.2911724,75.0834509 C23.291196,77.1166327 21.659159,78.7437859 19.5825059,78.7437859 C17.5058527,78.7437859 15.867593,77.1166327 15.8676169,75.0834509 C15.867593,73.0502691 17.5058527,71.4231191 19.5825059,71.4231191 Z M191.400794,71.6095514 L186.57206,72.902165 L187.393441,75.9783373 L192.222174,74.6857236 L191.400794,71.6095514 Z M167.512252,72.7778768 L167.512252,92.7885286 C165.658607,91.0361995 163.191053,89.9298655 160.449606,89.9298655 L155.06084,89.9298655 L148.296879,89.9298655 L148.296879,75.6427573 L155.06084,75.6427573 L160.449606,75.6427573 C163.19103,75.6427573 165.65862,74.5302918 167.512252,72.7778768 Z M137.954926,75.63654 L144.202412,75.63654 L145.11091,75.63654 L145.11091,89.9236514 L144.202412,89.9236514 L137.954926,89.9236514 C136.733304,89.9236514 135.801909,88.993345 135.801909,87.7734391 L135.801909,86.5243241 L135.801909,79.0358673 L135.801909,77.7929695 C135.801909,76.5730605 136.733304,75.63654 137.954926,75.63654 Z M177.225722,76.9540132 C179.618779,77.7052405 181.53173,79.5426895 181.531759,82.1928259 C181.53173,84.8426441 179.618779,86.6738791 177.225722,87.4254245 L177.225722,82.1928259 L177.225722,76.9540132 Z M41.5918252,77.9545455 C41.1693365,77.9611285 40.7667714,78.1350611 40.4726945,78.4380779 C40.1786176,78.7410948 40.0171194,79.1483729 40.0237297,79.5703109 L40.0237297,104.77628 C39.9500025,105.241479 40.0864407,105.715395 40.3963141,106.070445 C40.7061875,106.425495 41.1576478,106.625188 41.6291583,106.615765 L54.3356993,106.615765 L79.8234476,106.615765 C80.3979349,106.62388 80.9322942,106.322441 81.2219089,105.826877 C81.5115236,105.331313 81.5115236,104.7184 81.2219089,104.222836 C80.9322942,103.727272 80.3979349,103.425833 79.8234476,103.433947 L54.3356993,103.433947 L45.4436101,103.433947 L52.7676038,96.1194945 L54.8272815,98.1764923 C55.4493897,98.7975345 56.457755,98.7975345 57.0798632,98.1764923 L62.3255094,92.9376764 L64.3851871,94.9946741 C65.0072953,95.6157163 66.0156606,95.6157163 66.6377688,94.9946741 L78.2740187,83.3735795 L78.2740187,85.9339473 C78.265894,86.5076862 78.5677256,87.0413494 79.0639363,87.3305868 C79.560147,87.6198242 80.1738588,87.6198242 80.6700696,87.3305868 C81.1662803,87.0413494 81.4681119,86.5076862 81.4599872,85.9339473 L81.4599872,79.5703109 C81.4598992,78.6917125 80.7467474,77.9794897 79.8670029,77.9794018 L73.4950659,77.9794018 C72.9205785,77.9712877 72.3862192,78.2727262 72.0966045,78.7682904 C71.8069899,79.2638547 71.8069899,79.8767671 72.0966045,80.3723314 C72.3862192,80.8678957 72.9205785,81.1693341 73.4950659,81.16122 L75.9841038,81.16122 L65.5114779,91.6202064 L63.4518003,89.5632118 C62.8296921,88.9421696 61.8213268,88.9421696 61.1992186,89.5632118 L55.9535723,94.8020245 L53.8938947,92.74503 C53.2717865,92.1239878 52.2634212,92.1239878 51.641313,92.74503 L43.2096982,101.165661 L43.2096982,79.5703109 C43.2164438,79.1397534 43.0481569,78.7248512 42.7432723,78.4203638 C42.4383876,78.1158764 42.0229443,77.9478086 41.5918252,77.9545455 Z M89.3626834,77.9545455 C88.9401952,77.9611294 88.537631,78.1350623 88.2435548,78.438079 C87.9494785,78.7410958 87.7879808,79.1483734 87.7945911,79.5703109 L87.7945911,105.024856 C87.794679,105.903455 88.5078309,106.615678 89.3875754,106.615765 L102.106558,106.615765 L121.222369,106.615765 C121.796856,106.62388 122.331215,106.322441 122.62083,105.826877 C122.910445,105.331313 122.910445,104.7184 122.62083,104.222836 C122.331215,103.727272 121.796856,103.425833 121.222369,103.433947 L116.493197,103.433947 L116.493197,85.8904486 C116.499943,85.4598905 116.331657,85.0449876 116.026772,84.7404995 C115.721887,84.4360113 115.306443,84.2679432 114.875324,84.27468 C114.452834,84.2812631 114.050269,84.4551961 113.756192,84.7582136 C113.462115,85.0612311 113.300617,85.4685101 113.307228,85.8904486 L113.307228,103.433947 L110.12126,103.433947 L110.12126,82.7086305 C110.128006,82.2780724 109.959719,81.8631694 109.654835,81.5586813 C109.34995,81.2541931 108.934506,81.086125 108.503387,81.0928618 C108.080897,81.0994449 107.678332,81.2733779 107.384255,81.5763954 C107.090178,81.879413 106.92868,82.2866919 106.935291,82.7086305 L106.935291,103.433947 L103.749323,103.433947 L103.749323,89.0722668 C103.756069,88.6417087 103.587782,88.2268058 103.282898,87.9223176 C102.978013,87.6178295 102.562569,87.4497613 102.131449,87.4564982 C101.70896,87.4630812 101.306395,87.6370142 101.012318,87.9400318 C100.718241,88.2430493 100.556743,88.6503282 100.563354,89.0722668 L100.563354,103.433947 L97.3773855,103.433947 L97.3773855,95.4359032 C97.384132,95.0053451 97.2158454,94.5904421 96.9109607,94.285954 C96.606076,93.9814659 96.1906321,93.8133977 95.7595124,93.8201345 C95.3370232,93.8267176 94.9344576,94.0006506 94.6403806,94.3036681 C94.3463036,94.6066857 94.1848058,95.0139646 94.1914169,95.4359032 L94.1914169,103.433947 L90.9805596,103.433947 L90.9805596,79.5703109 C90.9873053,79.1397528 90.8190178,78.7248502 90.5141325,78.4203627 C90.2092472,78.1158751 89.7938031,77.9478078 89.3626834,77.9545455 Z M24.0752192,80.2166209 L24.0752192,88.6807536 C23.2610576,87.7436 22.0718079,87.1395605 20.7461312,87.1395605 C19.1312628,87.1395605 17.7167148,88.0315641 16.9441257,89.3394886 L9.48323446,88.0841627 C9.4089125,87.2531705 9.13542578,86.4756518 8.68051981,85.8220873 L15.1893538,80.3036214 C16.3893402,81.2979109 17.9115087,81.9256041 19.5825059,81.9256041 C21.3017319,81.9256041 22.8624407,81.2628632 24.0752192,80.2166209 Z M188.003258,80.5957027 L188.003258,83.7775209 L193,83.7775209 L193,80.5957027 L188.003258,80.5957027 Z M130.805166,80.6267764 L132.61594,80.6267764 L132.61594,84.933415 L130.805166,84.933415 L130.805166,80.6267764 Z M4.76650777,86.9469109 C5.66434747,86.9469109 6.34079582,87.6282273 6.34082417,88.4943182 C6.34088439,89.3607273 5.66441661,90.0417255 4.76650777,90.0417255 C3.86859861,90.0417255 3.185908,89.3607273 3.18596853,88.4943182 C3.18599689,87.6282273 3.86866775,86.9469109 4.76650777,86.9469109 Z M187.393441,88.4011005 L186.57206,91.4772727 L191.400794,92.7698864 L192.222174,89.6937141 L187.393441,88.4011005 Z M20.7461312,90.3213786 C21.4560615,90.3213786 21.9782567,90.8554755 21.9782048,91.5332027 C21.9781787,92.21093 21.4559994,92.7388127 20.7461312,92.7388127 C20.036262,92.7388127 19.5078606,92.21093 19.5078347,91.5332027 C19.5077828,90.8554755 20.0361999,90.3213786 20.7461312,90.3213786 Z M8.66807446,91.1727632 L16.4400953,92.4840191 C16.6834568,93.5481527 17.3149925,94.4692509 18.1824218,95.0878918 L15.3698093,101.35831 C14.993922,101.374576 14.6322228,101.444986 14.2870776,101.557174 L8.27605091,91.6388486 C8.41256042,91.4888641 8.55142723,91.3390609 8.66807446,91.1727632 Z M139.211889,93.1054695 L144.202412,93.1054695 L144.750001,93.1054695 L141.520474,106.820846 L135.982365,106.820846 L139.211889,93.1054695 Z M24.0752192,94.3732236 L24.0752192,101.793325 L19.0660304,103.440165 C18.8618599,103.090795 18.650908,102.752523 18.3566548,102.476917 L21.3310549,95.8584868 C22.4204978,95.7110477 23.3837391,95.168395 24.0752192,94.3732236 Z M184.786175,95.7839145 L183.193191,98.5431459 L187.517894,101.035155 L189.110879,98.2821382 L184.786175,95.7839145 Z M15.5440416,104.521483 C16.0916456,104.521483 16.4898595,104.927852 16.489876,105.447443 C16.4898595,105.966716 16.0916453,106.367189 15.5440416,106.367189 C14.9964389,106.367189 14.5982244,105.966716 14.5982072,105.447443 C14.5982247,104.927852 14.9964389,104.521483 15.5440416,104.521483 Z M18.0206345,124.184127 L81.422654,124.184127 L81.422654,128.198687 C81.422654,131.365869 83.9582963,134.015449 87.1101049,134.015449 L107.594885,134.015449 C110.746713,134.015449 113.282339,131.365869 113.282339,128.198687 L113.282339,124.184127 L170.312419,124.184127 C169.494705,131.295172 163.736608,136.818182 156.380028,136.818182 L31.9530246,136.818182 C24.5964452,136.818182 18.8383477,131.295172 18.0206345,124.184127 Z M84.6086226,125.569958 L110.096371,125.569958 L110.096371,128.198687 C110.096371,129.711642 108.981725,130.83363 107.594885,130.83363 L87.1101049,130.83363 C85.7233101,130.83363 84.6086226,129.711642 84.6086226,128.198687 L84.6086226,125.569958 Z" id="Shape"></path>
                </g>
            </g>
        </g>
    </g>
</svg>