<svg xmlns="http://www.w3.org/2000/svg" xmlns:xlink="http://www.w3.org/1999/xlink" version="1.1" id="Layer_1" x="0px" y="0px" viewBox="0 0 89.4 59" style="enable-background:new 0 0 89.4 59;" xml:space="preserve" class="dc_svg aligncenter replaced-svg svg-replaced-6">
<g stroke="none" fill="#1b6da3" stroke-width="1px">
	<path class="st0" d="M44.7,46.1l9.3-9.3c2.8,2.4,6.4,3.9,10.3,3.9c8.6,0,15.6-7,15.6-15.6c0-8.6-7-15.6-15.6-15.6   c-8.6,0-15.6,7-15.6,15.6c0,4,1.5,7.6,3.9,10.3l-9.3,9.3l-0.5-0.5c-0.2-0.2-0.4-0.3-0.7-0.3s-0.5,0.1-0.7,0.3L30.7,54.9   c-0.4,0.4-0.4,1,0,1.4l2.4,2.4c0.2,0.2,0.4,0.3,0.7,0.3s0.5-0.1,0.7-0.3L45.2,48c0.4-0.4,0.4-1,0-1.4L44.7,46.1z M64.3,11.5   c7.5,0,13.6,6.1,13.6,13.6c0,7.5-6.1,13.6-13.6,13.6c-7.5,0-13.6-6.1-13.6-13.6C50.7,17.6,56.8,11.5,64.3,11.5z M33.8,56.6l-1-1   l9.3-9.3l1,1L33.8,56.6z" stroke="none" fill="#1b6da3" stroke-width="1px"></path>
	<path class="st0" d="M44.4,29c0-0.6-0.4-1-1-1H17.8c-0.6,0-1,0.4-1,1s0.4,1,1,1h25.7C44,30,44.4,29.5,44.4,29z" stroke="none" fill="#1b6da3" stroke-width="1px"></path>
	<path class="st0" d="M44.4,21.3c0-0.6-0.4-1-1-1H9.1c-0.6,0-1,0.4-1,1s0.4,1,1,1h34.4C44,22.3,44.4,21.8,44.4,21.3z" stroke="none" fill="#1b6da3" stroke-width="1px"></path>
	<path class="st0" d="M44.4,13.6c0-0.6-0.4-1-1-1H1c-0.6,0-1,0.4-1,1s0.4,1,1,1h42.4C44,14.6,44.4,14.1,44.4,13.6z" stroke="none" fill="#1b6da3" stroke-width="1px"></path>
	<path class="st0" d="M44.4,36.7c0-0.6-0.4-1-1-1H24.3c-0.6,0-1,0.4-1,1s0.4,1,1,1h19.1C44,37.7,44.4,37.2,44.4,36.7z" stroke="none" fill="#1b6da3" stroke-width="1px"></path>
	<path class="st0" d="M64.3,29.4c2.4,0,4.3-1.9,4.3-4.3c0-2.4-1.9-4.3-4.3-4.3S60,22.8,60,25.1C60,27.5,62,29.4,64.3,29.4z    M64.3,22.8c1.3,0,2.3,1,2.3,2.3s-1,2.3-2.3,2.3s-2.3-1-2.3-2.3S63.1,22.8,64.3,22.8z" stroke="none" fill="#1b6da3" stroke-width="1px"></path>
	<path class="st0" d="M64.3,0c-6.2,0-12.2,2.3-16.8,6.5c-0.4,0.4-0.4,1-0.1,1.4c0.4,0.4,1,0.4,1.4,0.1c4.3-3.8,9.8-6,15.5-6   c12.8,0,23.1,10.4,23.1,23.1S77.1,48.2,64.3,48.2c-3.8,0-7.7-1-11-2.8c-0.5-0.3-1.1-0.1-1.4,0.4c-0.3,0.5-0.1,1.1,0.4,1.4   c3.7,2,7.8,3,12,3c13.9,0,25.1-11.3,25.1-25.1C89.4,11.3,78.2,0,64.3,0z" stroke="none" fill="#1b6da3" stroke-width="1px"></path>
</g>
</svg>