<svg xmlns="http://www.w3.org/2000/svg" id="GooglePlus" width="16" height="10.44" viewBox="0 0 16 10.44" class="dc_svg replaced-svg svg-replaced-3">
  <g stroke="none" fill="#ffffff" stroke-width="1px">
    <path id="Fill_23" data-name="Fill 23" class="cls-1" d="M1791.95,1693.24a5.131,5.131,0,0,1,4.82-5.22,4.934,4.934,0,0,1,3.64,1.29c-0.41.47-.83,0.93-1.28,1.37a3.484,3.484,0,0,0-3.01-.61,3.345,3.345,0,0,0-2.07,4.23,3.162,3.162,0,0,0,4.23,1.99,2.832,2.832,0,0,0,1.65-1.98c-0.97-.02-1.94-0.01-2.91-0.03v-1.79c1.62,0,3.24,0,4.86.01a6.054,6.054,0,0,1-1.03,4.19,4.9,4.9,0,0,1-5.47,1.5,5.227,5.227,0,0,1-3.43-4.95" transform="translate(-1791.94 -1688.03)" stroke="none" fill="#ffffff" stroke-width="1px"></path>
    <path id="Fill_24" data-name="Fill 24" class="cls-1" d="M1805.03,1690.99h1.44c0.01,0.5.01,1,.01,1.5,0.49,0,.97.01,1.45,0.01v1.49c-0.48,0-.96,0-1.45.01,0,0.5,0,.99-0.01,1.49h-1.44c-0.01-.5-0.01-0.99-0.01-1.49-0.48-.01-0.97-0.01-1.45-0.01v-1.49c0.48,0,.96-0.01,1.45-0.01,0-.5.01-1,0.01-1.5" transform="translate(-1791.94 -1688.03)" stroke="none" fill="#ffffff" stroke-width="1px"></path>
  </g>
</svg>