<svg xmlns="http://www.w3.org/2000/svg" xmlns:xlink="http://www.w3.org/1999/xlink" version="1.1" id="Layer_1" x="0px" y="0px" viewBox="0 0 68.8 64" style="enable-background:new 0 0 68.8 64;" xml:space="preserve" class="dc_svg aligncenter replaced-svg svg-replaced-4">
<g stroke="none" fill="#89ce33" stroke-width="1px">
	<path class="st0" d="M65.9,6.1H62V3c0-1.6-1.3-3-3-3H25.6c-1.6,0-3,1.3-3,3v2.7c-4.4,2.2-7.4,6.7-7.4,11.9c0,3.2,1.2,6.2,3.1,8.5   L11,33.5l-0.2-0.2c-0.4-0.4-1.1-0.4-1.5,0l-8.9,8.9c-0.4,0.4-0.4,1.1,0,1.5l2,2c0.2,0.2,0.5,0.3,0.8,0.3c0.3,0,0.6-0.1,0.8-0.3   l8.9-8.9c0.2-0.2,0.3-0.5,0.3-0.8c0-0.3-0.1-0.6-0.3-0.8l-0.2-0.2l7.4-7.4c0.8,0.7,1.7,1.2,2.6,1.7V55c0,1.6,1.3,3,3,3h3.9V61   c0,1.6,1.3,3,3,3h33.5c1.6,0,3-1.3,3-3V9C68.8,7.4,67.5,6.1,65.9,6.1z M3.1,43.4L2.6,43l7.4-7.4l0.4,0.4L3.1,43.4z M28.5,6.4   c0.3,0,0.6,0,0.9,0v5.4c0,0.6,0.5,1.1,1.1,1.1h8.1c0.4,0.9,0.7,1.9,0.9,2.9H26.6c-0.6,0-1.1,0.5-1.1,1.1c0,0.6,0.5,1.1,1.1,1.1h13   c-0.1,1.2-0.3,2.3-0.7,3.4H26.2c-0.6,0-1.1,0.5-1.1,1.1c0,0.6,0.5,1.1,1.1,1.1h11.5c-2,3-5.4,5-9.2,5c-6.1,0-11.1-5-11.1-11.1   C17.5,11.4,22.4,6.4,28.5,6.4z M31.6,6.9c2.3,0.7,4.2,2,5.7,3.9h-5.7V6.9z M36.6,7h17.4v2.6H39.2C38.5,8.6,37.6,7.8,36.6,7z    M24.8,55V30.2c1.2,0.3,2.4,0.5,3.7,0.5c3.8,0,7.3-1.7,9.7-4.3h16.9c0.6,0,1.1-0.5,1.1-1.1c0-0.6-0.5-1.1-1.1-1.1H39.9   c0.2-0.3,0.4-0.7,0.6-1c0.2-0.2,0.2-0.4,0.3-0.6c0.2-0.4,0.3-0.7,0.4-1.1h14c0.6,0,1.1-0.5,1.1-1.1c0-0.6-0.5-1.1-1.1-1.1H41.7   c0.1-0.6,0.2-1.3,0.2-1.9c0-0.3,0-0.5,0-0.8h13.4c0.6,0,1.1-0.5,1.1-1.1c0-0.6-0.5-1.1-1.1-1.1H41.5c-0.2-1-0.5-1.9-1-2.7h14.6   c0.6,0,1.1-0.5,1.1-1.1V5.9c0-0.6-0.5-1.1-1.1-1.1H32.5c0,0,0,0,0,0c-1.2-0.4-2.6-0.6-3.9-0.6c-1.3,0-2.5,0.2-3.7,0.5V3   c0-0.4,0.3-0.8,0.8-0.8h33.5c0.4,0,0.8,0.3,0.8,0.8v52c0,0.4-0.3,0.8-0.8,0.8H25.6C25.2,55.8,24.8,55.4,24.8,55z M66.6,61   c0,0.4-0.3,0.8-0.8,0.8H32.4c-0.4,0-0.8-0.3-0.8-0.8v-3.1h27.4c1.6,0,3-1.3,3-3V8.2h3.9c0.4,0,0.8,0.3,0.8,0.8V61z" stroke="none" fill="#89ce33" stroke-width="1px"></path>
	<path class="st0" d="M37.8,31.4h17.3c0.6,0,1.1-0.5,1.1-1.1s-0.5-1.1-1.1-1.1H37.8c-0.6,0-1.1,0.5-1.1,1.1S37.2,31.4,37.8,31.4z" stroke="none" fill="#89ce33" stroke-width="1px"></path>
	<path class="st0" d="M28.3,36.3H46c0.6,0,1.1-0.5,1.1-1.1s-0.5-1.1-1.1-1.1H28.3c-0.6,0-1.1,0.5-1.1,1.1S27.7,36.3,28.3,36.3z" stroke="none" fill="#89ce33" stroke-width="1px"></path>
	<path class="st0" d="M55.1,39.2h-15c-0.6,0-1.1,0.5-1.1,1.1c0,0.6,0.5,1.1,1.1,1.1h15c0.6,0,1.1-0.5,1.1-1.1   C56.2,39.7,55.7,39.2,55.1,39.2z" stroke="none" fill="#89ce33" stroke-width="1px"></path>
	<path class="st0" d="M55.1,44.3h-15c-0.6,0-1.1,0.5-1.1,1.1s0.5,1.1,1.1,1.1h15c0.6,0,1.1-0.5,1.1-1.1S55.7,44.3,55.1,44.3z" stroke="none" fill="#89ce33" stroke-width="1px"></path>
	<path class="st0" d="M36.7,50.5V40.3c0-0.6-0.5-1.1-1.1-1.1h-7.4c-0.6,0-1.1,0.5-1.1,1.1v10.2c0,0.6,0.5,1.1,1.1,1.1h7.4   C36.3,51.6,36.7,51.1,36.7,50.5z M34.6,49.4h-5.2v-8h5.2V49.4z" stroke="none" fill="#89ce33" stroke-width="1px"></path>
</g>
</svg>