<svg xmlns="http://www.w3.org/2000/svg" id="facebook25" width="6.53" height="14" viewBox="0 0 6.53 14" class="dc_svg replaced-svg svg-replaced-0">
  <path id="Shape" class="cls-1" d="M1701.32,1689.58v-1.21a2.264,2.264,0,0,1,.03-0.42,0.647,0.647,0,0,1,.11-0.29,0.48,0.48,0,0,1,.29-0.2,1.884,1.884,0,0,1,.53-0.06h1.21v-2.41h-1.93a3.149,3.149,0,0,0-2.41.79,3.343,3.343,0,0,0-.73,2.35v1.45h-1.45V1692h1.45v7.01h2.9V1692h1.93l0.26-2.42h-2.19Z" transform="translate(-1696.97 -1685)" stroke="none" fill="#ffffff" stroke-width="1px"></path>
</svg>