<svg xmlns="http://www.w3.org/2000/svg" xmlns:xlink="http://www.w3.org/1999/xlink" version="1.1" id="Layer_1" x="0px" y="0px" viewBox="0 0 47.1 64" style="enable-background:new 0 0 47.1 64;" xml:space="preserve" class="dc_svg replaced-svg svg-replaced-5">
<g stroke="none" fill="#1b6da3" stroke-width="1px">
	<path class="st0" d="M44.2,5.2H23.8V4.5c0-2.5-2-4.5-4.5-4.5H4.5C2,0,0,2,0,4.5V52c0,0.4,0.2,0.7,0.6,0.9C0.7,53,0.9,53,1,53   c0.2,0,0.4-0.1,0.6-0.2l5.6-4.4v12.7c0,1.6,1.3,2.9,2.9,2.9h34.1c1.6,0,2.9-1.3,2.9-2.9v-53C47.1,6.5,45.8,5.2,44.2,5.2z M19.3,2   c1.4,0,2.5,1.1,2.5,2.5v0.7h-4.9V4.5C16.8,3.2,17.9,2,19.3,2z M13.9,51.8l1.3,1c0.3,0.2,0.7,0.3,1.1,0.1c0.4-0.2,0.6-0.5,0.6-0.9   v-4.8h2.5v8.3h-5.4V51.8z M2,4.5C2,3.2,3.2,2,4.5,2h11c-0.5,0.7-0.7,1.6-0.7,2.5v45.4l-5.7-4.5c-0.2-0.1-0.4-0.2-0.6-0.2   S8,45.2,7.8,45.4L2,49.9V4.5z M45.1,61.1c0,0.5-0.4,0.9-0.9,0.9H10.2c-0.5,0-0.9-0.4-0.9-0.9V48.1l2.6,2v6.4c0,0.6,0.5,1,1,1h7.5   c0.6,0,1-0.5,1-1V46.2c0-0.6-0.5-1-1-1h-3.5V42h14.1c0.6,0,1-0.5,1-1c0-0.6-0.5-1-1-1H16.8V37h23.4c0.6,0,1-0.5,1-1   c0-0.6-0.5-1-1-1H16.8V32h23.4c0.6,0,1-0.5,1-1c0-0.6-0.5-1-1-1H16.8V27h23.4c0.6,0,1-0.5,1-1s-0.5-1-1-1H16.8V22h23.4   c0.6,0,1-0.5,1-1s-0.5-1-1-1H16.8V7.2h27.4c0.5,0,0.9,0.4,0.9,0.9V61.1z" stroke="none" fill="#1b6da3" stroke-width="1px"></path>
	<path class="st0" d="M40.1,10.1H22.8c-0.6,0-1,0.5-1,1V16c0,0.6,0.5,1,1,1h17.3c0.6,0,1-0.5,1-1v-4.9   C41.1,10.5,40.7,10.1,40.1,10.1z M39.1,14.9H23.8v-2.8h15.3V14.9z" stroke="none" fill="#1b6da3" stroke-width="1px"></path>
	<polygon class="st0" points="6.6,11.9 8.5,10.5 10.4,11.9 9.6,9.7 11.5,8.3 9.2,8.3 8.5,6.1 7.8,8.3 5.5,8.3 7.3,9.7  " stroke="none" fill="#1b6da3" stroke-width="1px"></polygon>
	<polygon class="st0" points="6.6,19.4 8.5,18.1 10.4,19.4 9.6,17.2 11.5,15.9 9.2,15.9 8.5,13.7 7.8,15.9 5.5,15.9 7.3,17.2  " stroke="none" fill="#1b6da3" stroke-width="1px"></polygon>
	<polygon class="st0" points="6.6,27 8.5,25.6 10.4,27 9.6,24.8 11.5,23.4 9.2,23.4 8.5,21.2 7.8,23.4 5.5,23.4 7.3,24.8  " stroke="none" fill="#1b6da3" stroke-width="1px"></polygon>
	<polygon class="st0" points="6.6,34.5 8.5,33.1 10.4,34.5 9.6,32.3 11.5,30.9 9.2,30.9 8.5,28.8 7.8,30.9 5.5,30.9 7.3,32.3  " stroke="none" fill="#1b6da3" stroke-width="1px"></polygon>
	<polygon class="st0" points="8.5,40.7 10.4,42 9.6,39.8 11.5,38.5 9.2,38.5 8.5,36.3 7.8,38.5 5.5,38.5 7.3,39.8 6.6,42  " stroke="none" fill="#1b6da3" stroke-width="1px"></polygon>
	<path class="st0" d="M39.4,47.2h0.9c0.6,0,1-0.5,1-1c0-0.6-0.5-1-1-1H25c-0.6,0-1,0.5-1,1c0,0.6,0.5,1,1,1h11.5   c-1.8,0.4-3.3,1.6-4.2,3.1H25c-0.6,0-1,0.5-1,1c0,0.6,0.5,1,1,1h6.5c-0.1,0.4-0.1,0.8-0.1,1.2c0,3.6,2.9,6.5,6.5,6.5   c3.6,0,6.5-2.9,6.5-6.5C44.4,50.4,42.3,47.8,39.4,47.2z M37.9,58c-2.5,0-4.5-2-4.5-4.5c0-2.5,2-4.5,4.5-4.5c2.5,0,4.5,2,4.5,4.5   C42.4,56,40.4,58,37.9,58z" stroke="none" fill="#1b6da3" stroke-width="1px"></path>
	<path class="st0" d="M39.5,51.2l-2.4,2.4l-0.8-0.8c-0.4-0.4-1-0.4-1.4,0c-0.4,0.4-0.4,1,0,1.4l1.5,1.5c0.2,0.2,0.5,0.3,0.7,0.3   s0.5-0.1,0.7-0.3l3.2-3.2c0.4-0.4,0.4-1,0-1.4S39.9,50.8,39.5,51.2z" stroke="none" fill="#1b6da3" stroke-width="1px"></path>
</g>
</svg>