<svg xmlns="http://www.w3.org/2000/svg" id="youtube13" width="16" height="11.44" viewBox="0 0 16 11.44" class="dc_svg replaced-svg svg-replaced-2">
  <path id="Shape" class="cls-1" d="M1772.99,1692.36c-0.01-.32-0.03-0.73-0.08-1.22a9.288,9.288,0,0,0-.19-1.32,2.061,2.061,0,0,0-.62-1.1,1.9,1.9,0,0,0-1.11-.51,78.115,78.115,0,0,0-11.98,0,1.9,1.9,0,0,0-1.11.51,2.112,2.112,0,0,0-.61,1.1,10.767,10.767,0,0,0-.21,1.32c-0.04.49-.07,0.9-0.07,1.22s-0.01.77-.01,1.34,0,1.02.01,1.34,0.03,0.73.07,1.22a10.4,10.4,0,0,0,.2,1.31,2.025,2.025,0,0,0,.62,1.1,1.913,1.913,0,0,0,1.11.52,81.656,81.656,0,0,0,11.98,0,1.913,1.913,0,0,0,1.11-.52,2.075,2.075,0,0,0,.61-1.1,8.849,8.849,0,0,0,.2-1.31c0.05-.49.07-0.9,0.08-1.22s0.01-.77.01-1.34,0-1.02-.01-1.34h0Zm-4.83,1.82-4.57,2.86a0.507,0.507,0,0,1-.3.09,0.722,0.722,0,0,1-.28-0.07,0.54,0.54,0,0,1-.3-0.5v-5.72a0.573,0.573,0,0,1,.88-0.48l4.57,2.86a0.562,0.562,0,0,1,0,.96h0Z" transform="translate(-1757 -1687.97)" stroke="none" fill="#ffffff" stroke-width="1px"></path>
</svg>