<?xml version="1.0" encoding="UTF-8"?>
<svg width="320px" height="100px" viewBox="0 0 320 100" version="1.1" xmlns="http://www.w3.org/2000/svg" xmlns:xlink="http://www.w3.org/1999/xlink">
    <!-- Generator: Sketch 41.2 (35397) - http://www.bohemiancoding.com/sketch -->
    <title>Page 1</title>
    <desc>Created with Sketch.</desc>
    <defs>
        <polygon id="path-1" points="99.2129 99.5 0 99.5 0 0.2872 99.2129 0.2872 99.2129 99.5"></polygon>
    </defs>
    <g id="Page-1" stroke="none" stroke-width="1" fill="none" fill-rule="evenodd">
        <g id="TopCourses_QuyDinhGiaoDuc_1366px" transform="translate(-30.000000, -62.000000)">
            <g id="Header">
                <g id="Page-1" transform="translate(30.000000, 62.000000)">
                    <g id="Group-3" transform="translate(0.000000, 0.213000)">
                        <mask id="mask-2" fill="white">
                            <use xlink:href="#path-1"></use>
                        </mask>
                        <g id="Clip-2"></g>
                        <path d="M99.2129,49.8937 C99.2129,77.2907 77.0034,99.5002 49.6064,99.5002 C22.2094,99.5002 -0.0001,77.2902 -0.0001,49.8937 C-0.0001,22.4967 22.2099,0.2872 49.6069,0.2872 C77.0034,0.2872 99.2129,22.4967 99.2129,49.8937" id="Fill-1" fill="#FEFEFE" mask="url(#mask-2)"></path>
                    </g>
                    <path d="M97.7681,50.1067 C97.7681,76.7052 76.2056,98.2682 49.6066,98.2682 C23.0076,98.2677 1.4451,76.7052 1.4451,50.1067 C1.4451,23.5072 23.0076,1.9447 49.6066,1.9447 C76.2056,1.9447 97.7681,23.5077 97.7681,50.1067" id="Fill-4" fill="#1C6DA3"></path>
                    <polygon id="Fill-6" fill="#8BC63F" points="11.05985 49.6714 11.08485 50.5429 9.23485 50.5959 9.27435 51.9834 11.12435 51.9299 11.14985 52.8044 6.68235 52.9324 6.65735 52.0579 8.57785 52.0029 8.53835 50.6159 6.61735 50.6714 6.59235 49.7994"></polygon>
                    <polygon id="Fill-8" fill="#8BC63F" points="11.13185 48.22755 11.09985 49.09555 6.63335 48.93055 6.66535 48.06205"></polygon>
                    <path d="M12.3589,46.01515 L12.2679,46.98065 L11.5314,46.91115 L11.6229,45.94515 L12.3589,46.01515 Z M9.4194,45.08315 L9.2779,46.57715 L10.5369,46.69665 L10.7039,44.93965 L11.3974,45.00515 L11.1484,47.63315 L6.6989,47.21165 L6.9474,44.58965 L7.6409,44.65515 L7.4749,46.40615 L8.5849,46.51165 L8.7259,45.01715 L9.4194,45.08315 Z M6.4334,44.90765 L6.5009,44.91415 L6.4364,45.59265 L5.9939,45.90215 L6.3704,46.28315 L6.3079,46.94615 L6.2314,46.93915 L5.5794,46.10665 L5.6259,45.62065 L6.4334,44.90765 Z" id="Fill-10" fill="#8BC63F"></path>
                    <path d="M9.32105,43.46585 L9.44005,42.79785 C9.47255,42.61485 9.43005,42.46235 9.31205,42.34135 C9.19405,42.22085 9.03055,42.14235 8.82305,42.10485 C8.61255,42.06735 8.43005,42.08435 8.27455,42.15535 C8.11955,42.22685 8.02555,42.35485 7.99255,42.54035 L7.87355,43.20785 L9.32105,43.46585 Z M10.00705,43.58785 L11.58805,43.86935 L11.43455,44.73035 L7.03405,43.94735 L7.30655,42.41835 C7.38455,41.97885 7.57605,41.65535 7.88105,41.44785 C8.18555,41.24035 8.54855,41.17385 8.96905,41.24885 C9.39155,41.32385 9.70955,41.51185 9.92255,41.81285 C10.13605,42.11385 10.20405,42.48285 10.12605,42.91985 L10.00705,43.58785 Z" id="Fill-12" fill="#8BC63F"></path>
                    <polygon id="Fill-14" fill="#8BC63F" points="13.28055 37.1746 13.02205 38.0071 11.25455 37.4576 10.84305 38.7831 12.61055 39.3316 12.35105 40.1676 8.08305 38.8416 8.34255 38.0066 10.17755 38.5761 10.58905 37.2511 8.75405 36.6816 9.01255 35.8491"></polygon>
                    <path d="M15.20825,35.3645 L14.83725,36.261 L14.15375,35.978 L14.52475,35.082 L15.20825,35.3645 Z M11.61675,33.6555 C11.32125,33.5325 11.07475,33.4955 10.87875,33.5425 C10.68275,33.59 10.54125,33.7185 10.45425,33.9285 C10.36675,34.14 10.37525,34.33 10.48125,34.498 C10.58775,34.666 10.78925,34.811 11.08725,34.9345 L12.25325,35.4175 C12.55275,35.5415 12.79975,35.5805 12.99425,35.5345 C13.18875,35.489 13.32925,35.361 13.41625,35.151 C13.50225,34.943 13.49325,34.7535 13.38925,34.582 C13.28425,34.41 13.08275,34.262 12.78275,34.138 L11.61675,33.6555 Z M13.11475,33.3355 C13.59875,33.536 13.92275,33.824 14.08575,34.199 C14.24975,34.5745 14.24075,34.981 14.06025,35.4175 C13.87925,35.8545 13.59875,36.1465 13.21875,36.295 C12.83825,36.4435 12.40625,36.417 11.92175,36.217 L10.76475,35.738 C10.28275,35.538 9.95775,35.251 9.79125,34.8765 C9.62425,34.5015 9.63025,34.0965 9.81075,33.662 C9.99025,33.227 10.27275,32.934 10.65725,32.783 C11.04225,32.6325 11.47575,32.6565 11.95775,32.8565 L13.11475,33.3355 Z M9.76175,32.519 L9.82425,32.5445 L9.56325,33.1745 L9.04975,33.3405 L9.29825,33.815 L9.04375,34.431 L8.97275,34.4015 L8.59375,33.414 L8.78075,32.963 L9.76175,32.519 Z" id="Fill-16" fill="#8BC63F"></path>
                    <polygon id="Fill-18" fill="#8BC63F" points="15.20755 32.7566 14.82455 33.5361 10.81355 31.5646 11.19705 30.7851"></polygon>
                    <path d="M16.3306,27.93555 L16.3511,27.93755 C16.7711,28.19155 17.0256,28.48505 17.1136,28.81805 C17.2016,29.15105 17.1241,29.51455 16.8821,29.90855 C16.6391,30.30205 16.3251,30.54205 15.9391,30.62905 C15.5526,30.71555 15.1381,30.62255 14.6956,30.35005 L13.5586,29.64955 C13.1181,29.37805 12.8461,29.05405 12.7431,28.67705 C12.6401,28.29955 12.7061,27.92055 12.9411,27.53905 C13.1901,27.13455 13.4861,26.89555 13.8291,26.82205 C14.1726,26.74905 14.5581,26.83955 14.9856,27.09305 L14.9966,27.11055 L14.5551,27.82655 C14.3116,27.66205 14.1106,27.58505 13.9521,27.59605 C13.7941,27.60605 13.6546,27.70905 13.5346,27.90405 C13.4311,28.07105 13.4176,28.24005 13.4941,28.40905 C13.5701,28.57905 13.7406,28.74505 14.0056,28.90805 L15.1491,29.61255 C15.4171,29.77805 15.6461,29.85305 15.8356,29.83905 C16.0251,29.82455 16.1756,29.72605 16.2891,29.54305 C16.3991,29.36355 16.4241,29.20655 16.3641,29.07205 C16.3041,28.93755 16.1451,28.79805 15.8891,28.65205 L16.3306,27.93555 Z" id="Fill-20" fill="#8BC63F"></path>
                    <path d="M17.02225,26.61255 L17.51075,25.95055 L15.99925,25.33605 L15.98875,25.35055 L17.02225,26.61255 Z M18.17725,26.22055 L17.47725,27.16955 L18.10425,27.92855 L17.58075,28.63805 L14.73075,24.97205 L15.27025,24.24105 L19.61225,25.88355 L19.08975,26.59205 L18.17725,26.22055 Z M14.14275,23.85605 L14.68725,23.11705 L14.70775,23.12105 L14.89625,24.20955 L14.47825,24.77455 L14.14275,23.85605 Z" id="Fill-22" fill="#8BC63F"></path>
                    <path d="M20.46805,22.73095 L20.48805,22.73645 C20.86105,23.05595 21.06305,23.38745 21.09455,23.73095 C21.12655,24.07395 20.99005,24.41945 20.68655,24.76795 C20.38205,25.11645 20.03205,25.30145 19.63705,25.32295 C19.24205,25.34445 18.84855,25.18445 18.45705,24.84245 L17.45155,23.96395 C17.06155,23.62345 16.84705,23.25845 16.80805,22.86945 C16.76855,22.48095 16.89605,22.11745 17.19055,21.77995 C17.50305,21.42245 17.83455,21.23595 18.18555,21.22045 C18.53605,21.20445 18.90105,21.35695 19.28105,21.67795 L19.28855,21.69695 L18.73605,22.33045 C18.52255,22.12795 18.33705,22.01895 18.17905,22.00295 C18.02105,21.98745 17.86605,22.06545 17.71555,22.23845 C17.58605,22.38645 17.54505,22.55045 17.59255,22.72995 C17.63955,22.90945 17.78005,23.10195 18.01455,23.30645 L19.02605,24.18945 C19.26355,24.39745 19.47705,24.50995 19.66605,24.52645 C19.85455,24.54395 20.02005,24.47095 20.16155,24.30945 C20.30005,24.15045 20.35105,23.99995 20.31355,23.85745 C20.27655,23.71545 20.14355,23.55095 19.91505,23.36445 L20.46805,22.73095 Z" id="Fill-24" fill="#8BC63F"></path>
                    <polygon id="Fill-26" fill="#8BC63F" points="22.11795 17.94095 21.37545 18.62095 23.92295 21.40295 23.28045 21.99195 20.73295 19.20945 19.99495 19.88545 19.52445 19.37145 21.64745 17.42695"></polygon>
                    <path d="M24.02955,18.07155 L24.49005,17.71355 C24.63055,17.60455 24.70455,17.47905 24.71005,17.33655 C24.71655,17.19455 24.65805,17.04405 24.53505,16.88605 C24.40955,16.72455 24.27355,16.62405 24.12705,16.58505 C23.98005,16.54655 23.83705,16.58105 23.69805,16.68905 L23.23505,17.04855 L24.02955,18.07155 Z M24.45755,18.62205 L25.54755,20.02505 L24.85905,20.56005 L22.11905,17.03305 L23.27055,16.13855 C23.61805,15.86905 23.96205,15.74855 24.30255,15.77855 C24.64305,15.80805 24.94005,15.98605 25.19355,16.31205 C25.33705,16.49655 25.41855,16.68705 25.43955,16.88455 C25.46105,17.08205 25.42305,17.28155 25.32605,17.48405 C25.55505,17.40505 25.76505,17.40505 25.95505,17.48555 C26.14555,17.56505 26.32355,17.71205 26.48905,17.92555 L26.68355,18.17555 C26.75855,18.27205 26.85055,18.36705 26.95905,18.46005 C27.06755,18.55355 27.17005,18.60305 27.26555,18.60905 L27.30505,18.66005 L26.59255,19.21355 C26.49555,19.20605 26.39455,19.14955 26.29005,19.04405 C26.18505,18.93955 26.08555,18.82605 25.99105,18.70505 L25.80455,18.46555 C25.66805,18.28905 25.52605,18.18005 25.37855,18.13955 C25.23105,18.09805 25.09055,18.12955 24.95655,18.23405 L24.45755,18.62205 Z" id="Fill-28" fill="#8BC63F"></path>
                    <path d="M27.62355,13.1377 L27.93755,13.6292 L27.95505,13.6217 C28.08305,13.5107 28.12705,13.3647 28.08655,13.1837 C28.04655,13.0032 27.93705,12.7732 27.75855,12.4942 L28.27555,12.1632 C28.54355,12.5822 28.67905,12.9527 28.68255,13.2747 C28.68605,13.5972 28.54055,13.8762 28.24755,14.1127 L29.26355,15.7002 C29.52055,16.1017 29.60105,16.4867 29.50555,16.8557 C29.41005,17.2237 29.17155,17.5302 28.79055,17.7737 C28.40955,18.0177 28.03105,18.1057 27.65605,18.0372 C27.28055,17.9687 26.96505,17.7347 26.70905,17.3352 L25.06955,14.7727 L25.80355,14.3032 L27.44355,16.8652 C27.59005,17.0942 27.74555,17.2327 27.91005,17.2807 C28.07405,17.3287 28.24255,17.2972 28.41505,17.1872 C28.59205,17.0737 28.69455,16.9352 28.72155,16.7722 C28.74805,16.6092 28.68505,16.4077 28.53155,16.1682 L26.89205,13.6062 L27.62355,13.1377 Z" id="Fill-30" fill="#8BC63F"></path>
                    <path d="M31.22975,13.01615 C31.08325,12.73115 30.91975,12.54365 30.74025,12.45315 C30.55975,12.36215 30.36875,12.36865 30.16675,12.47265 C29.96275,12.57765 29.84725,12.72815 29.81925,12.92465 C29.79175,13.12115 29.85125,13.36265 29.99875,13.64915 L30.57575,14.77165 C30.72425,15.06015 30.88725,15.24965 31.06525,15.34065 C31.24275,15.43115 31.43325,15.42465 31.63525,15.32065 C31.83525,15.21765 31.95125,15.06715 31.98225,14.86865 C32.01375,14.67015 31.95525,14.42665 31.80725,14.13865 L31.22975,13.01615 Z M32.57975,13.74065 C32.81925,14.20665 32.87975,14.63565 32.76125,15.02815 C32.64325,15.42015 32.37425,15.72415 31.95375,15.94065 C31.53375,16.15665 31.13025,16.19865 30.74425,16.06565 C30.35825,15.93265 30.04575,15.63315 29.80625,15.16765 L29.23325,14.05365 C28.99425,13.58965 28.93275,13.16065 29.04725,12.76665 C29.16275,12.37265 29.42925,12.06815 29.84775,11.85315 C30.07875,11.73415 30.30975,11.66865 30.53975,11.65765 C30.76975,11.64615 30.98775,11.68815 31.19275,11.78265 C31.29825,11.65265 31.34925,11.49665 31.34575,11.31565 C31.34225,11.13415 31.28525,10.93615 31.17475,10.72165 L31.72325,10.43915 C31.90025,10.78365 31.98525,11.10265 31.97825,11.39715 C31.97075,11.69265 31.87575,11.94765 31.69225,12.16365 C31.75075,12.23315 31.80625,12.30565 31.85975,12.38165 C31.91275,12.45765 31.96175,12.53965 32.00675,12.62715 L32.57975,13.74065 Z M30.22375,11.39565 L29.59625,11.72015 L28.56025,11.35565 L28.55975,11.33515 L29.37325,10.91665 L30.22375,11.39565 Z" id="Fill-32" fill="#8BC63F"></path>
                    <polygon id="Fill-34" fill="#8BC63F" points="36.72755 13.76565 35.92105 14.08865 33.59005 11.94465 33.57505 11.95765 34.63655 14.60415 33.82455 14.92965 32.16105 10.78165 32.97305 10.45565 35.30355 12.59715 35.31805 12.58465 34.25805 9.94115 35.06405 9.61715"></polygon>
                    <path d="M39.8267,12.1316 C39.7662,12.3506 39.6407,12.5646 39.4512,12.7741 C39.2617,12.9831 38.9892,13.1401 38.6342,13.2461 C38.1752,13.3826 37.7672,13.3581 37.4092,13.1721 C37.0517,12.9861 36.7992,12.6451 36.6512,12.1491 L36.2627,10.8426 C36.1157,10.3501 36.1357,9.9291 36.3227,9.5791 C36.5102,9.2281 36.8242,8.9876 37.2652,8.8561 C37.7402,8.7146 38.1307,8.7246 38.4372,8.8861 C38.7432,9.0476 38.9662,9.3431 39.1052,9.7731 L39.1042,9.7926 L38.3187,10.0266 C38.2412,9.7866 38.1352,9.6261 38.0012,9.5456 C37.8667,9.4646 37.6962,9.4546 37.4877,9.5171 C37.2842,9.5776 37.1457,9.6971 37.0727,9.8761 C37.0002,10.0546 37.0077,10.2911 37.0952,10.5856 L37.4867,11.8991 C37.5762,12.1996 37.7007,12.4046 37.8607,12.5141 C38.0197,12.6236 38.2117,12.6446 38.4352,12.5786 C38.6017,12.5286 38.7182,12.4696 38.7847,12.4006 C38.8502,12.3316 38.8957,12.2461 38.9207,12.1421 L38.6912,11.3746 L38.1267,11.5426 L37.9517,10.9546 L39.3517,10.5371 L39.8267,12.1316 Z" id="Fill-36" fill="#8BC63F"></path>
                    <path d="M42.9192,10.1326 L42.3532,10.2276 L42.5702,11.5236 L42.9912,11.4526 C43.2312,11.4126 43.3987,11.2771 43.4937,11.0461 C43.5887,10.8151 43.6072,10.5271 43.5497,10.1816 L43.4242,9.4331 C43.3667,9.0896 43.2547,8.8246 43.0902,8.6386 C42.9252,8.4521 42.7222,8.3791 42.4822,8.4196 L42.0617,8.4901 L42.2642,9.6981 L42.8302,9.6031 L42.9192,10.1326 Z M41.8227,12.3556 L41.4902,10.3721 L41.1602,10.4276 L41.0717,9.8981 L41.4012,9.8426 L41.0837,7.9476 L42.4157,7.7241 C42.8672,7.6481 43.2697,7.7566 43.6212,8.0491 C43.9737,8.3421 44.1947,8.7576 44.2852,9.2971 L44.4092,10.0386 C44.5002,10.5776 44.4267,11.0421 44.1887,11.4326 C43.9512,11.8226 43.6067,12.0561 43.1547,12.1316 L41.8227,12.3556 Z" id="Fill-38" fill="#8BC63F"></path>
                    <path d="M47.0552,12.76005 L46.0887,12.83805 L46.0292,12.10055 L46.9957,12.02255 L47.0552,12.76005 Z M45.9322,10.10655 L46.7527,10.04055 L46.2242,8.49705 L46.2057,8.49905 L45.9322,10.10655 Z M46.9862,10.72055 L45.8112,10.81555 L45.6497,11.78655 L44.7717,11.85705 L45.6657,7.30105 L46.5717,7.22805 L48.1827,11.58155 L47.3047,11.65255 L46.9862,10.72055 Z" id="Fill-40" fill="#8BC63F"></path>
                    <polygon id="Fill-42" fill="#8BC63F" points="49.3079 11.5933 48.4389 11.6093 48.3564 7.1408 49.2249 7.1243"></polygon>
                    <polygon id="Fill-44" fill="#8BC63F" points="54.3179 11.84745 53.4489 11.77745 53.5984 9.93245 52.2149 9.82045 52.0664 11.66545 51.1939 11.59495 51.5544 7.13995 52.4264 7.21095 52.2714 9.12595 53.6544 9.23795 53.8094 7.32245 54.6779 7.39245"></polygon>
                    <path d="M57.38895,9.45215 C57.44345,9.13665 57.42595,8.88865 57.33695,8.70765 C57.24795,8.52615 57.09145,8.41665 56.86745,8.37765 C56.64195,8.33865 56.45895,8.38915 56.31795,8.52965 C56.17745,8.66965 56.07995,8.89865 56.02495,9.21615 L55.80945,10.45965 C55.75445,10.77915 55.77045,11.02865 55.85745,11.20865 C55.94495,11.38815 56.10045,11.49715 56.32445,11.53615 C56.54645,11.57415 56.72945,11.52415 56.87445,11.38415 C57.01845,11.24465 57.11845,11.01515 57.17395,10.69565 L57.38895,9.45215 Z M56.50895,13.33115 L55.55345,13.16565 L55.67945,12.43665 L56.63545,12.60215 L56.50895,13.33115 Z M58.02995,10.84365 C57.94095,11.35965 57.73095,11.73865 57.39995,11.98065 C57.06945,12.22265 56.67145,12.30315 56.20595,12.22265 C55.73995,12.14215 55.39295,11.93215 55.16495,11.59365 C54.93695,11.25515 54.86745,10.82815 54.95695,10.31215 L55.17045,9.07765 C55.25895,8.56365 55.46845,8.18365 55.79695,7.93865 C56.12645,7.69315 56.52245,7.61115 56.98645,7.69115 C57.45045,7.77115 57.79745,7.98265 58.02945,8.32515 C58.26095,8.66715 58.33245,9.09515 58.24345,9.60915 L58.02995,10.84365 Z" id="Fill-46" fill="#8BC63F"></path>
                    <path d="M61.19435,11.83205 L61.19885,11.85255 C61.07785,12.32855 60.87135,12.65705 60.57835,12.83805 C60.28535,13.01955 59.91535,13.05155 59.46785,12.93405 C59.02035,12.81705 58.69885,12.58605 58.50385,12.24205 C58.30835,11.89755 58.27685,11.47405 58.40885,10.97105 L58.74735,9.67955 C58.87885,9.17905 59.10985,8.82405 59.44035,8.61605 C59.77135,8.40755 60.15335,8.36055 60.58685,8.47405 C61.04635,8.59405 61.36085,8.80855 61.53085,9.11505 C61.70135,9.42255 61.72685,9.81705 61.60885,10.30055 L61.59535,10.31555 L60.78185,10.10255 C60.86835,9.82155 60.88285,9.60655 60.82735,9.45805 C60.77085,9.30955 60.63185,9.20655 60.40985,9.14805 C60.22035,9.09805 60.05485,9.13405 59.91535,9.25655 C59.77535,9.37855 59.66535,9.59005 59.58685,9.89155 L59.24635,11.19005 C59.16635,11.49555 59.16085,11.73605 59.22935,11.91305 C59.29835,12.09005 59.43685,12.20605 59.64435,12.26005 C59.84835,12.31355 60.00585,12.29205 60.11685,12.19555 C60.22785,12.09855 60.31585,11.90655 60.38085,11.61855 L61.19435,11.83205 Z" id="Fill-48" fill="#8BC63F"></path>
                    <polygon id="Fill-50" fill="#8BC63F" points="61.938 13.6016 61.219 14.3711 60.7345 14.2126 61.2105 13.3381 61.43 12.6641 62.166 12.9041"></polygon>
                    <path d="M66.8025,14.0037 L66.804,14.0242 C66.613,14.4767 66.3585,14.7702 66.042,14.9052 C65.7245,15.0402 65.354,15.0157 64.929,14.8322 C64.505,14.6487 64.222,14.3722 64.081,14.0027 C63.94,13.6322 63.9725,13.2092 64.179,12.7322 L64.709,11.5062 C64.9145,11.0312 65.1965,10.7157 65.555,10.5597 C65.9135,10.4037 66.298,10.4147 66.7095,10.5922 C67.1455,10.7807 67.424,11.0397 67.546,11.3687 C67.6675,11.6982 67.634,12.0922 67.444,12.5522 L67.428,12.5652 L66.6565,12.2317 C66.784,11.9667 66.8315,11.7567 66.7985,11.6017 C66.765,11.4462 66.6435,11.3227 66.433,11.2322 C66.2525,11.1537 66.084,11.1647 65.9275,11.2642 C65.7705,11.3637 65.6305,11.5567 65.507,11.8422 L64.974,13.0747 C64.8485,13.3642 64.8065,13.6017 64.848,13.7872 C64.8895,13.9722 65.0085,14.1077 65.206,14.1927 C65.3995,14.2762 65.5585,14.2787 65.6825,14.1997 C65.807,14.1212 65.923,13.9442 66.031,13.6702 L66.8025,14.0037 Z" id="Fill-52" fill="#8BC63F"></path>
                    <path d="M68.21315,14.5005 L68.93815,14.889 L69.33065,13.306 L69.31465,13.297 L68.21315,14.5005 Z M68.76615,15.587 L67.72715,15.0305 L67.06515,15.759 L66.28865,15.3425 L69.50965,11.998 L70.31065,12.4275 L69.30515,16.9595 L68.52865,16.543 L68.76615,15.587 Z" id="Fill-54" fill="#8BC63F"></path>
                    <path d="M72.7664,15.80225 C72.9414,15.53425 73.0239,15.29975 73.0134,15.09825 C73.0029,14.89625 72.9029,14.73375 72.7124,14.60975 C72.5204,14.48425 72.3324,14.45825 72.1474,14.53175 C71.9634,14.60475 71.7829,14.77625 71.6069,15.04625 L70.9169,16.10325 C70.7404,16.37475 70.6559,16.61025 70.6654,16.80975 C70.6739,17.00975 70.7744,17.17125 70.9644,17.29525 C71.1524,17.41825 71.3409,17.44425 71.5289,17.37325 C71.7169,17.30225 71.8999,17.13125 72.0769,16.85975 L72.7664,15.80225 Z M72.8049,17.33375 C72.5184,17.77275 72.1754,18.03775 71.7764,18.12925 C71.3769,18.22025 70.9794,18.13725 70.5834,17.87875 C70.1879,17.62025 69.9519,17.29125 69.8764,16.88975 C69.8009,16.48875 69.9064,16.06875 70.1924,15.63025 L70.8769,14.58125 C71.1619,14.14425 71.5039,13.87775 71.9029,13.78275 C72.3024,13.68775 72.6989,13.76875 73.0934,14.02575 C73.4874,14.28325 73.7234,14.61475 73.8004,15.02075 C73.8779,15.42625 73.7739,15.84825 73.4884,16.28525 L72.8049,17.33375 Z" id="Fill-56" fill="#8BC63F"></path>
                    <path d="M75.74075,19.13405 L75.30125,18.76455 L74.45575,19.76955 L74.78175,20.04405 C74.96825,20.20105 75.17975,20.24055 75.41775,20.16405 C75.65525,20.08655 75.88675,19.91405 76.11225,19.64605 L76.60075,19.06555 C76.82525,18.79905 76.95475,18.54205 76.98975,18.29605 C77.02475,18.04955 76.94875,17.84805 76.76225,17.69105 L76.43625,17.41655 L75.64725,18.35355 L76.08625,18.72305 L75.74075,19.13405 Z M73.33775,19.73905 L74.63225,18.20105 L74.37625,17.98555 L74.72175,17.57455 L74.97825,17.79005 L76.21575,16.32005 L77.24875,17.18955 C77.59925,17.48505 77.77725,17.86155 77.78225,18.31905 C77.78775,18.77705 77.61475,19.21455 77.26225,19.63305 L76.77825,20.20805 C76.42675,20.62605 76.02475,20.87105 75.57375,20.94355 C75.12275,21.01555 74.72125,20.90405 74.37075,20.60905 L73.33775,19.73905 Z" id="Fill-58" fill="#8BC63F"></path>
                    <path d="M80.61255,18.5935 L80.80105,18.331 C80.88655,18.41 80.95705,18.46 81.01305,18.479 C81.06905,18.499 81.11505,18.49 81.15305,18.452 C81.19805,18.407 81.20905,18.356 81.18755,18.298 C81.16555,18.24 81.11705,18.1735 81.04205,18.0985 L81.27855,17.888 C81.51755,18.1265 81.67005,18.336 81.73705,18.517 C81.80355,18.698 81.78505,18.8405 81.68055,18.9445 C81.60655,19.0185 81.52405,19.051 81.43205,19.0415 C81.34055,19.0315 81.25355,18.9955 81.17255,18.932 L81.06205,19.0425 L80.61255,18.5935 Z M81.41405,19.5765 L81.40355,19.5915 C81.26605,19.7465 81.09005,19.8095 80.87605,19.781 C80.66155,19.752 80.45205,19.635 80.24605,19.4295 C80.03905,19.2225 79.92155,19.0125 79.89305,18.7995 C79.86505,18.586 79.92855,18.411 80.08505,18.275 L80.10005,18.264 L80.54755,18.711 C80.48705,18.7715 80.45355,18.8385 80.44805,18.9105 C80.44205,18.983 80.47555,19.0555 80.54805,19.1275 C80.61705,19.197 80.68905,19.2295 80.76255,19.225 C80.83655,19.2205 80.90405,19.188 80.96455,19.1275 L81.41405,19.5765 Z M77.71655,21.415 L78.29855,21.996 L79.13105,20.5935 L79.11805,20.5805 L77.71655,21.415 Z M77.93205,22.6145 L77.09805,21.7815 L76.25405,22.288 L75.63105,21.6655 L79.67955,19.393 L80.32255,20.035 L78.05205,24.084 L77.42855,23.4615 L77.93205,22.6145 Z" id="Fill-60" fill="#8BC63F"></path>
                    <polygon id="Fill-62" fill="#8BC63F" points="80.15605 26.59745 79.59855 25.93145 80.91255 23.04995 80.89605 23.03945 78.70955 24.87045 78.14805 24.19945 81.57455 21.32995 82.13605 22.00145 80.82455 24.88095 80.84105 24.89095 83.02505 23.06245 83.58305 23.72845"></polygon>
                    <path d="M82.678,29.0398 C82.451,29.0503 82.209,28.9978 81.951,28.8828 C81.693,28.7678 81.459,28.5583 81.2475,28.2533 C80.975,27.8598 80.871,27.4643 80.9365,27.0668 C81.0015,26.6688 81.2475,26.3228 81.673,26.0278 L82.793,25.2513 C83.215,24.9583 83.6215,24.8468 84.013,24.9153 C84.404,24.9843 84.731,25.2073 84.993,25.5863 C85.2755,25.9928 85.3875,26.3673 85.3295,26.7088 C85.2715,27.0503 85.06,27.3538 84.6945,27.6198 L84.6755,27.6248 L84.209,26.9518 C84.4125,26.8023 84.532,26.6518 84.567,26.4993 C84.6025,26.3468 84.558,26.1813 84.4345,26.0033 C84.3135,25.8283 84.1565,25.7343 83.964,25.7203 C83.7715,25.7073 83.549,25.7878 83.2965,25.9633 L82.17,26.7433 C81.9125,26.9223 81.7565,27.1043 81.7025,27.2903 C81.648,27.4758 81.6875,27.6648 81.82,27.8563 C81.919,27.9993 82.012,28.0918 82.098,28.1333 C82.1835,28.1743 82.28,28.1903 82.3855,28.1818 L83.044,27.7253 L82.708,27.2408 L83.213,26.8913 L84.045,28.0918 L82.678,29.0398 Z" id="Fill-64" fill="#8BC63F"></path>
                    <polygon id="Fill-66" fill="#8BC63F" points="84.6841 31.58985 84.5481 31.69985 84.5566 31.71635 84.7161 31.67035 88.0151 30.77285 88.4436 31.58435 83.9076 32.56485 83.4841 31.76185 86.8536 28.57085 87.2821 29.38235"></polygon>
                    <polygon id="Fill-68" fill="#8BC63F" points="84.9302 34.72315 84.5737 33.93115 88.6497 32.09765 89.0062 32.88965"></polygon>
                    <path d="M90.61625,35.62625 L90.55325,35.65075 L90.31025,35.01375 L90.57025,34.54025 L90.06375,34.36575 L89.82625,33.74325 L89.89775,33.71575 L90.85075,34.17375 L91.02475,34.62975 L90.61625,35.62625 Z M87.86075,36.79175 L87.32575,35.38875 L86.14425,35.83925 L86.77275,37.48825 L86.12175,37.73675 L85.18175,35.27025 L89.35825,33.67825 L90.29575,36.13925 L89.64475,36.38725 L89.01825,34.74375 L87.97725,35.14075 L88.51175,36.54325 L87.86075,36.79175 Z M84.81225,37.25675 L84.46675,36.35025 L85.15775,36.08675 L85.50325,36.99325 L84.81225,37.25675 Z" id="Fill-70" fill="#8BC63F"></path>
                    <polygon id="Fill-72" fill="#8BC63F" points="90.5828 39.512 90.2978 38.546 86.6793 39.614 86.4333 38.7775 90.0518 37.71 89.7683 36.7505 90.4368 36.5535 91.2508 39.3145"></polygon>
                    <polygon id="Fill-74" fill="#8BC63F" points="87.8416 45.1641 87.6961 44.3076 90.2856 42.4831 90.2766 42.4661 87.4651 42.9431 87.3186 42.0801 91.7251 41.3331 91.8716 42.1956 89.2851 44.0196 89.2941 44.0366 92.1026 43.5606 92.2481 44.4166"></polygon>
                    <path d="M89.62355,46.57325 L89.68705,47.39375 L91.23255,46.87025 L91.23055,46.85225 L89.62355,46.57325 Z M89.00655,47.62475 L88.91505,46.44975 L87.94505,46.28475 L87.87655,45.40675 L92.43005,46.31575 L92.50055,47.22175 L88.14155,48.81875 L88.07305,47.94025 L89.00655,47.62475 Z" id="Fill-76" fill="#8BC63F"></path>
                    <polygon id="Fill-78" fill="#8BC63F" points="92.60085 50.16165 89.30435 50.89765 89.30385 50.91615 92.56885 51.79115 92.54635 52.93015 88.07785 52.84165 88.09535 51.97315 89.39335 51.99865 91.12885 52.10665 91.13185 52.08865 88.11085 51.17515 88.12235 50.59515 91.15285 49.81065 91.15035 49.79265 89.43585 49.83515 88.13785 49.80915 88.15535 48.94115 92.62335 49.02965"></polygon>
                    <polygon id="Fill-80" fill="#FEFEFE" points="12.126 68.7278 11.9875 68.8348 11.995 68.8513 12.156 68.8088 15.4745 67.9858 15.8845 68.8068 11.3275 69.6853 10.922 68.8728 14.3625 65.7588 14.772 66.5793"></polygon>
                    <polygon id="Fill-82" fill="#FEFEFE" points="12.62185 72.02665 12.18585 71.27515 16.05085 69.03165 16.48685 69.78265"></polygon>
                    <path d="M18.43265,71.92505 L18.37665,71.96205 L18.00065,71.39405 L18.15115,70.87505 L17.61815,70.81505 L17.25115,70.25905 L17.31515,70.21705 L18.34515,70.45605 L18.61415,70.86355 L18.43265,71.92505 Z M15.99765,73.66305 L15.17015,72.41105 L14.11515,73.10805 L15.08815,74.58055 L14.50665,74.96455 L13.05115,72.76255 L16.78015,70.29855 L18.23215,72.49555 L17.65065,72.87955 L16.68115,71.41255 L15.75165,72.02655 L16.57865,73.27905 L15.99765,73.66305 Z M13.12415,74.78205 L12.58915,73.97305 L13.20665,73.56505 L13.74165,74.37405 L13.12415,74.78205 Z" id="Fill-84" fill="#FEFEFE"></path>
                    <polygon id="Fill-86" fill="#FEFEFE" points="16.81985 77.94755 16.28135 77.26555 17.67785 74.42255 17.66135 74.41205 15.42385 76.17905 14.88135 75.49305 18.38835 72.72305 18.93085 73.40905 17.53735 76.25005 17.55335 76.26105 19.78885 74.49555 20.32735 75.17755"></polygon>
                    <polygon id="Fill-88" fill="#FEFEFE" points="21.40505 78.58085 21.41805 78.59385 22.94955 77.91085 23.66705 78.62085 21.33805 79.43435 20.57605 81.84985 19.82755 81.10985 20.50505 79.53435 20.49205 79.52135 18.92405 80.21585 18.20205 79.50135 20.57655 78.68085 21.36505 76.34285 22.07855 77.04935"></polygon>
                    <path d="M25.78495,78.9114 L26.49045,79.4984 L26.48545,79.5184 L25.38795,79.6434 L24.84795,79.1924 L25.78495,78.9114 Z M26.15345,80.6954 L24.20795,83.0339 C23.90295,83.4004 23.56045,83.5934 23.17995,83.6144 C22.79945,83.6344 22.43545,83.5004 22.08795,83.2109 C21.73995,82.9214 21.54245,82.5879 21.49395,82.2094 C21.44545,81.8309 21.57295,81.4589 21.87645,81.0944 L23.82195,78.7554 L24.49245,79.3134 L22.54645,81.6514 C22.37245,81.8604 22.28745,82.0509 22.29145,82.2224 C22.29545,82.3934 22.37645,82.5444 22.53395,82.6749 C22.69595,82.8099 22.85845,82.8654 23.02195,82.8414 C23.18545,82.8179 23.35795,82.6964 23.53995,82.4784 L25.48545,80.1399 L26.15345,80.6954 Z" id="Fill-90" fill="#FEFEFE"></path>
                    <path d="M27.0745,85.0447 L27.0715,85.0652 C26.794,85.4707 26.486,85.7072 26.149,85.7762 C25.811,85.8457 25.4525,85.7472 25.0735,85.4827 C24.694,85.2187 24.472,84.8907 24.408,84.5002 C24.343,84.1102 24.46,83.7012 24.7575,83.2752 L25.521,82.1802 C25.817,81.7552 26.1565,81.5022 26.5385,81.4207 C26.921,81.3397 27.296,81.4272 27.6635,81.6832 C28.053,81.9547 28.2745,82.2637 28.328,82.6107 C28.382,82.9577 28.27,83.3372 27.992,83.7502 L27.974,83.7597 L27.284,83.2787 C27.4625,83.0447 27.551,82.8482 27.5495,82.6897 C27.5475,82.5312 27.453,82.3862 27.2645,82.2547 C27.104,82.1422 26.9365,82.1192 26.763,82.1857 C26.5895,82.2522 26.414,82.4127 26.2355,82.6682 L25.4675,83.7697 C25.287,84.0287 25.1985,84.2522 25.202,84.4422 C25.206,84.6322 25.296,84.7887 25.472,84.9112 C25.645,85.0322 25.8005,85.0662 25.938,85.0137 C26.075,84.9612 26.2245,84.8112 26.3845,84.5637 L27.0745,85.0447 Z" id="Fill-92" fill="#FEFEFE"></path>
                    <polygon id="Fill-94" fill="#FEFEFE" points="32.2178 85.2893 31.3328 84.8093 29.5353 88.1263 28.7688 87.7108 30.5663 84.3943 29.6868 83.9173 30.0183 83.3043 32.5498 84.6763"></polygon>
                    <polygon id="Fill-96" fill="#FEFEFE" points="31.74905 89.21655 30.96305 88.84705 32.86255 84.80155 33.64855 85.17105"></polygon>
                    <path d="M37.16555,84.77665 L37.89455,85.06865 L37.05955,85.62015 L36.50055,85.39665 L37.16555,84.77665 Z M35.44655,84.68415 L36.10505,84.94765 L36.55355,85.95015 L36.54105,85.96515 L35.82905,85.68015 L35.64805,85.13165 L35.13605,85.40315 L34.42655,85.11915 L34.42755,85.09965 L35.44655,84.68415 Z M35.45755,88.63965 L34.06405,88.08165 L33.59455,89.25615 L35.23305,89.91165 L34.97455,90.55815 L32.52305,89.57815 L34.18355,85.42865 L36.62855,86.40715 L36.36955,87.05365 L34.73705,86.40015 L34.32305,87.43465 L35.71655,87.99265 L35.45755,88.63965 Z" id="Fill-98" fill="#FEFEFE"></path>
                    <polygon id="Fill-100" fill="#FEFEFE" points="38.57545 91.68825 37.74395 91.43525 37.26895 88.30375 37.24995 88.30425 36.41995 91.03225 35.58295 90.77825 36.88345 86.50225 37.72045 86.75725 38.19645 89.88575 38.21595 89.88525 39.04445 87.15975 39.87595 87.41225"></polygon>
                    <path d="M42.1067,90.10035 L42.7752,90.21485 C42.9587,90.24635 43.1107,90.20285 43.2312,90.08435 C43.3512,89.96535 43.4287,89.80185 43.4647,89.59385 C43.5007,89.38335 43.4827,89.20135 43.4107,89.04635 C43.3387,88.89135 43.2102,88.79835 43.0242,88.76635 L42.3562,88.65135 L42.1067,90.10035 Z M41.9887,90.78685 L41.7167,92.36885 L40.8547,92.22035 L41.6117,87.81635 L43.1427,88.07935 C43.5822,88.15485 43.9067,88.34435 44.1162,88.64835 C44.3257,88.95185 44.3942,89.31435 44.3217,89.73535 C44.2492,90.15835 44.0627,90.47735 43.7632,90.69235 C43.4637,90.90735 43.0947,90.97735 42.6577,90.90235 L41.9887,90.78685 Z" id="Fill-102" fill="#FEFEFE"></path>
                    <polygon id="Fill-104" fill="#FEFEFE" points="47.69145 93.074 46.82195 93.0045 46.96995 91.16 45.58695 91.049 45.43945 92.894 44.56745 92.824 44.92395 88.369 45.79595 88.439 45.64295 90.3545 47.02595 90.465 47.17945 88.55 48.04795 88.6195"></polygon>
                    <path d="M49.6145,91.4402 L50.437,91.4292 L50.0135,89.8537 L49.995,89.8537 L49.6145,91.4402 Z M50.069,87.4797 L50.987,87.4677 L50.9965,87.4857 L50.243,88.2942 L49.5405,88.3027 L50.069,87.4797 Z M50.625,92.1232 L49.4465,92.1392 L49.22,93.0967 L48.3395,93.1092 L49.536,88.6232 L50.444,88.6107 L51.7615,93.0617 L50.88,93.0742 L50.625,92.1232 Z" id="Fill-106" fill="#FEFEFE"></path>
                    <polygon id="Fill-108" fill="#FEFEFE" points="54.1812 89.0784 53.1772 89.1579 53.4747 92.9189 52.6057 92.9869 52.3082 89.2264 51.3107 89.3054 51.2557 88.6109 54.1262 88.3839"></polygon>
                    <polygon id="Fill-110" fill="#FEFEFE" points="58.38625 88.3567 57.39675 88.5447 58.10075 92.2507 57.24425 92.4132 56.54075 88.7072 55.55775 88.8937 55.42775 88.2092 58.25625 87.6722"></polygon>
                    <path d="M59.87015,89.3069 L60.43265,89.1514 C60.60365,89.1044 60.71965,89.0159 60.77965,88.8864 C60.83915,88.7574 60.84265,88.5964 60.78915,88.4029 C60.73465,88.2059 60.64715,88.0614 60.52615,87.9694 C60.40515,87.8779 60.26015,87.8554 60.09065,87.9019 L59.52565,88.0579 L59.87015,89.3069 Z M60.05565,89.9784 L60.52915,91.6919 L59.68915,91.9234 L58.49915,87.6189 L59.90465,87.2304 C60.32865,87.1134 60.69265,87.1329 60.99615,87.2904 C61.29915,87.4474 61.50665,87.7254 61.61615,88.1234 C61.67865,88.3484 61.68165,88.5564 61.62615,88.7469 C61.57065,88.9374 61.45965,89.1074 61.29265,89.2574 C61.53465,89.2719 61.72815,89.3519 61.87365,89.4984 C62.01915,89.6449 62.12815,89.8484 62.20015,90.1089 L62.28465,90.4134 C62.31715,90.5319 62.36565,90.6544 62.43065,90.7819 C62.49565,90.9094 62.57115,90.9944 62.65715,91.0369 L62.67415,91.0989 L61.80465,91.3389 C61.71765,91.2949 61.64615,91.2044 61.58915,91.0674 C61.53215,90.9304 61.48315,90.7879 61.44265,90.6399 L61.36165,90.3469 C61.30215,90.1314 61.21215,89.9774 61.09165,89.8829 C60.97115,89.7889 60.82865,89.7649 60.66515,89.8099 L60.05565,89.9784 Z" id="Fill-112" fill="#FEFEFE"></path>
                    <polygon id="Fill-114" fill="#FEFEFE" points="64.10525 90.58325 63.28425 90.86775 61.82025 86.64525 62.64075 86.36075"></polygon>
                    <path d="M64.9136,84.71655 L64.7421,84.42205 C64.8361,84.37655 64.8996,84.33205 64.9331,84.28955 C64.9661,84.24755 64.9721,84.20055 64.9516,84.14905 C64.9256,84.08705 64.8841,84.05205 64.8266,84.04455 C64.7691,84.03755 64.6971,84.05155 64.6101,84.08805 L64.4971,83.76605 C64.7636,83.65605 64.9836,83.61255 65.1571,83.63555 C65.3306,83.65955 65.4476,83.74255 65.5071,83.88605 C65.5496,83.99055 65.5551,84.08255 65.5221,84.16405 C65.4891,84.24555 65.4346,84.30955 65.3591,84.35605 L65.4211,84.50655 L64.9136,84.71655 Z M66.3606,87.57955 L64.9736,88.15305 L65.4571,89.32155 L67.0881,88.64655 L67.3546,89.29055 L64.9151,90.30005 L63.2066,86.17005 L65.6401,85.16355 L65.9066,85.80755 L64.2811,86.47955 L64.7071,87.50905 L66.0941,86.93505 L66.3606,87.57955 Z M65.2806,84.98605 L65.2821,85.00555 L64.5846,85.29455 L64.0536,85.02205 L63.8726,85.58855 L63.1776,85.87655 L63.1651,85.86205 L63.5961,84.85655 L64.2656,84.57955 L65.2806,84.98605 Z" id="Fill-116" fill="#FEFEFE"></path>
                    <polygon id="Fill-118" fill="#FEFEFE" points="70.71855 87.58765 69.94705 87.98665 67.42055 86.07665 67.40705 86.09015 68.71705 88.62265 67.94005 89.02465 65.88655 85.05565 66.66355 84.65365 69.18855 86.56115 69.20205 86.54715 67.89305 84.01715 68.66505 83.61815"></polygon>
                    <path d="M74.7852,84.1565 C74.7947,84.383 74.7417,84.6255 74.6252,84.883 C74.5092,85.1405 74.2987,85.374 73.9937,85.5835 C73.5987,85.855 73.2027,85.9575 72.8057,85.8905 C72.4082,85.8235 72.0627,85.5765 71.7692,85.15 L70.9967,84.027 C70.7057,83.604 70.5952,83.197 70.6657,82.806 C70.7357,82.415 70.9607,82.089 71.3402,81.828 C71.7477,81.547 72.1227,81.437 72.4637,81.4965 C72.8052,81.5555 73.1082,81.7685 73.3722,82.1345 L73.3782,82.153 L72.7027,82.6175 C72.5547,82.4135 72.4042,82.293 72.2522,82.2575 C72.0992,82.222 71.9337,82.2655 71.7547,82.3885 C71.5797,82.509 71.4847,82.6655 71.4707,82.8575 C71.4567,83.05 71.5362,83.273 71.7107,83.5265 L72.4867,84.6555 C72.6642,84.9135 72.8462,85.07 73.0317,85.125 C73.2172,85.1805 73.4067,85.142 73.5982,85.01 C73.7422,84.9115 73.8347,84.819 73.8762,84.733 C73.9177,84.647 73.9342,84.5515 73.9262,84.4455 L73.4722,83.7855 L72.9862,84.1195 L72.6387,83.6135 L73.8427,82.786 L74.7852,84.1565 Z" id="Fill-120" fill="#FEFEFE"></path>
                    <polygon id="Fill-122" fill="#FEFEFE" points="76.5098 83.63355 75.8273 84.17055 73.0633 80.65855 73.7458 80.12155"></polygon>
                    <path d="M76.8855,81.1609 L77.498,80.6119 L76.144,79.7029 L76.13,79.7149 L76.8855,81.1609 Z M78.0955,81.0119 L77.2175,81.7984 L77.6765,82.6694 L77.0205,83.2569 L74.9755,79.0884 L75.6525,78.4824 L79.5695,80.9734 L78.9135,81.5614 L78.0955,81.0119 Z M74.627,77.8759 L75.3105,77.2634 L75.33,77.2714 L75.293,78.3759 L74.7685,78.8434 L74.627,77.8759 Z" id="Fill-124" fill="#FEFEFE"></path>
                    <path d="M79.3042,77.0852 C79.0712,76.8662 78.8542,76.7432 78.6542,76.7182 C78.4542,76.6927 78.2762,76.7627 78.1207,76.9287 C77.9637,77.0957 77.9047,77.2762 77.9442,77.4707 C77.9837,77.6652 78.1207,77.8727 78.3557,78.0937 L79.2747,78.9582 C79.5112,79.1807 79.7282,79.3047 79.9262,79.3307 C80.1237,79.3572 80.3007,79.2872 80.4562,79.1217 C80.6107,78.9577 80.6692,78.7777 80.6327,78.5797 C80.5962,78.3822 80.4597,78.1727 80.2232,77.9502 L79.3042,77.0852 Z M80.8182,77.3172 C81.2002,77.6767 81.4002,78.0602 81.4202,78.4697 C81.4397,78.8787 81.2882,79.2552 80.9642,79.5992 C80.6397,79.9442 80.2737,80.1177 79.8662,80.1212 C79.4577,80.1252 79.0632,79.9477 78.6812,79.5887 L77.7697,78.7302 C77.3892,78.3727 77.1877,77.9897 77.1642,77.5792 C77.1407,77.1697 77.2907,76.7937 77.6132,76.4507 C77.9357,76.1082 78.3037,75.9342 78.7167,75.9292 C79.1297,75.9252 79.5267,76.1012 79.9067,76.4592 L80.8182,77.3172 Z" id="Fill-126" fill="#FEFEFE"></path>
                    <path d="M80.8826,73.76685 L83.3596,75.58985 L83.6126,75.24635 C83.7571,75.04985 83.7826,74.83635 83.6901,74.60435 C83.5976,74.37235 83.4106,74.15235 83.1286,73.94485 L82.5171,73.49485 C82.2366,73.28835 81.9721,73.17585 81.7241,73.15735 C81.4761,73.13835 81.2796,73.22735 81.1351,73.42335 L80.8826,73.76685 Z M83.4021,76.70785 L79.8026,74.05835 L80.6036,72.97035 C80.8751,72.60135 81.2391,72.39985 81.6956,72.36435 C82.1521,72.32935 82.6006,72.47385 83.0406,72.79785 L83.6461,73.24335 C84.0861,73.56735 84.3571,73.95235 84.4581,74.39785 C84.5596,74.84335 84.4746,75.25085 84.2031,75.61985 L83.4021,76.70785 Z" id="Fill-128" fill="#FEFEFE"></path>
                    <path d="M87.54325,72.58915 L87.03875,73.41765 L86.40725,73.03315 L86.91125,72.20415 L87.54325,72.58915 Z M83.31775,68.81115 L85.91575,70.39365 C86.32275,70.64165 86.56425,70.95265 86.63975,71.32565 C86.71575,71.69915 86.63625,72.07865 86.40075,72.46515 C86.16575,72.85115 85.86425,73.09565 85.49725,73.19915 C85.12975,73.30315 84.74325,73.23065 84.33775,72.98365 L81.74025,71.40165 L82.19325,70.65715 L84.79125,72.23915 C85.02375,72.38115 85.22425,72.43715 85.39275,72.40815 C85.56175,72.37865 85.69925,72.27715 85.80575,72.10215 C85.91525,71.92215 85.94675,71.75315 85.89875,71.59515 C85.85175,71.43665 85.70675,71.28365 85.46375,71.13565 L82.86575,69.55365 L83.31775,68.81115 Z" id="Fill-130" fill="#FEFEFE"></path>
                    <path d="M87.4839,67.261 L87.5044,67.261 C87.9459,67.476 88.2259,67.7455 88.3439,68.069 C88.4614,68.393 88.4174,68.762 88.2119,69.176 C88.0054,69.5895 87.7139,69.8575 87.3374,69.979 C86.9604,70.1 86.5394,70.0445 86.0744,69.813 L84.8789,69.219 C84.4149,68.988 84.1149,68.6895 83.9784,68.3235 C83.8414,67.9575 83.8729,67.5735 84.0724,67.172 C84.2839,66.7475 84.5574,66.4825 84.8924,66.3785 C85.2279,66.274 85.6194,66.3295 86.0684,66.543 L86.0809,66.56 L85.7064,67.313 C85.4489,67.171 85.2419,67.1125 85.0849,67.1375 C84.9279,67.1625 84.7984,67.2775 84.6964,67.4825 C84.6089,67.6585 84.6109,67.8275 84.7019,67.9895 C84.7929,68.151 84.9779,68.301 85.2564,68.4395 L86.4589,69.038 C86.7414,69.1785 86.9759,69.2325 87.1634,69.2015 C87.3504,69.17 87.4919,69.058 87.5879,68.8655 C87.6814,68.677 87.6924,68.5185 87.6204,68.39 C87.5484,68.2615 87.3779,68.1365 87.1094,68.0145 L87.4839,67.261 Z" id="Fill-132" fill="#FEFEFE"></path>
                    <polygon id="Fill-134" fill="#FEFEFE" points="89.21635 57.8362 89.63985 59.1397 91.01085 59.1397 89.90185 59.9457 90.32535 61.2492 89.21635 60.4437 88.10735 61.2492 88.53085 59.9457 87.42235 59.1397 88.79285 59.1397"></polygon>
                    <polygon id="Fill-136" fill="#FEFEFE" points="9.9966 57.8362 10.4201 59.1397 11.7911 59.1397 10.6821 59.9457 11.1056 61.2492 9.9966 60.4437 8.8876 61.2492 9.3111 59.9457 8.2021 59.1397 9.5731 59.1397"></polygon>
                    <path d="M82.35645,50.1067 C82.35645,68.1942 67.69345,82.8567 49.60645,82.8562 C31.51895,82.8562 16.85645,68.1937 16.85645,50.1067 C16.85645,32.0192 31.51945,17.3567 49.60645,17.3567 C67.69395,17.3567 82.35645,32.0192 82.35645,50.1067" id="Fill-138" fill="#FEFEFE"></path>
                    <path d="M80.91165,50.1067 C80.91165,67.3957 66.89565,81.4112 49.60665,81.4112 C32.31715,81.4112 18.30115,67.3957 18.30165,50.1067 C18.30165,32.8172 32.31715,18.8012 49.60665,18.8017 C66.89615,18.8017 80.91165,32.8172 80.91165,50.1067" id="Fill-140" fill="#8BC63F"></path>
                    <polygon id="Fill-142" fill="#FEFEFE" points="55.45535 22.81155 55.45535 32.61105 76.68735 56.45605"></polygon>
                    <polygon id="Fill-144" fill="#FEFEFE" points="43.1082 27.64575 43.1082 37.11825 77.0792 59.39575"></polygon>
                    <polygon id="Fill-146" fill="#FEFEFE" points="32.4595 36.5957 32.4595 45.7417 76.687 61.0947"></polygon>
                    <path d="M24.2935,47.44045 L24.2935,68.52495 C29.9855,76.33495 39.2025,81.41145 49.6065,81.41145 C61.66,81.41145 72.1205,74.59845 77.352,64.61395 C77.1865,64.65545 77.079,64.68745 77.079,64.68745 L24.2935,47.44045 Z" id="Fill-148" fill="#FEFEFE"></path>
                    <path d="M118.5962,19.67045 L117.0677,19.67045 C112.7507,19.67045 112.3307,20.66395 111.3372,24.78995 L109.9617,24.78995 C109.9617,24.17895 110.3057,19.05945 110.4582,18.21895 L131.7007,18.21895 C131.8537,19.05945 132.1977,24.17895 132.1977,24.79045 L130.8222,24.79045 C129.8287,20.66395 129.4082,19.67045 125.0912,19.67045 L123.5632,19.67045 L123.5632,37.89495 C123.5632,41.79195 123.5632,41.94445 126.0462,42.32695 L126.9632,42.44145 L126.9632,43.43445 L115.1957,43.43445 L115.1957,42.44145 L116.1127,42.32645 C118.5962,41.94445 118.5962,41.79195 118.5962,37.89495 L118.5962,19.67045 Z" id="Fill-150" fill="#FEFEFE"></path>
                    <path d="M144.4058,42.7273 C148.7123,42.7273 150.6498,38.5133 150.6498,33.6228 C150.6498,28.5473 148.8043,23.8413 144.0368,23.8413 C139.7613,23.8413 137.8233,28.0553 137.8233,32.9463 C137.8233,38.0213 139.6688,42.7273 144.4058,42.7273 M133.3323,33.6843 C133.3323,26.6093 138.4693,22.6723 144.3748,22.6723 C150.3118,22.6723 155.1408,26.0253 155.1408,32.8843 C155.1408,39.9593 150.0038,43.8963 144.0673,43.8963 C138.1613,43.8963 133.3323,40.5433 133.3323,33.6843" id="Fill-152" fill="#FEFEFE"></path>
                    <path d="M158.18485,42.63505 L158.92285,42.54255 C160.36835,42.38905 160.36835,41.95855 160.36835,38.91355 L160.36835,27.68605 C160.36835,24.67155 160.36835,24.21055 158.92285,24.02605 L158.18485,23.93355 L158.18485,23.13405 L166.36635,23.13405 C170.14985,23.13405 174.57935,23.81055 174.57935,28.57805 C174.57935,33.77655 169.53485,35.09905 166.30485,35.19105 L166.30485,34.02255 C168.58135,33.71505 170.58085,32.73055 170.58085,29.00905 C170.58085,25.77905 168.45835,24.30255 165.87435,24.30205 C165.35135,24.30205 164.85935,24.39505 164.36735,24.51805 L164.36735,38.91355 C164.36735,41.95855 164.39785,42.38905 165.84385,42.54255 L167.01285,42.63505 L167.01285,43.43505 L158.18485,43.43505 L158.18485,42.63505 Z" id="Fill-154" fill="#FEFEFE"></path>
                    <path d="M200.3772,35.64065 C200.1097,38.27715 199.7277,40.60765 198.8877,42.48015 C197.3972,43.09065 195.1427,44.00765 190.8642,44.00765 C183.6812,44.00765 176.6132,40.91315 176.6132,30.94165 C176.6132,21.77215 183.7577,17.64615 190.9787,17.64615 C195.0667,17.64615 197.3972,18.56315 198.9257,19.32715 C199.1932,20.58765 199.5752,21.84865 199.5752,25.59265 L198.1997,25.78415 C197.8942,24.21765 197.0537,19.09815 190.8642,19.09815 C185.4772,19.09765 182.1912,23.64415 182.1912,30.36815 C182.1912,31.62915 182.1912,42.55615 191.0167,42.55615 C197.8172,42.55615 198.9257,35.75515 199.0017,35.41165 L200.3772,35.64065 Z" id="Fill-156" fill="#FEFEFE"></path>
                    <path d="M213.8848,42.72755 C218.1913,42.72755 220.1293,38.51355 220.1293,33.62305 C220.1293,28.54755 218.2838,23.84155 213.5158,23.84155 C209.2403,23.84155 207.3023,28.05555 207.3023,32.94605 C207.3023,38.02155 209.1478,42.72755 213.8848,42.72755 M202.8118,33.68455 C202.8118,26.60955 207.9483,22.67255 213.8543,22.67255 C219.7908,22.67255 224.6198,26.02555 224.6198,32.88455 C224.6198,39.95905 219.4828,43.89655 213.5463,43.89655 C207.6408,43.89655 202.8118,40.54355 202.8118,33.68455" id="Fill-158" fill="#FEFEFE"></path>
                    <path d="M244.0586,43.03495 C243.6586,42.57395 243.2896,42.01995 242.8281,42.01995 C242.2746,42.01995 239.7211,43.89645 235.7536,43.89645 C230.1861,43.89645 229.1711,40.54395 229.1711,37.37545 L229.1711,27.65545 C229.1711,24.61045 229.1711,24.24145 227.7256,24.02595 L226.9871,23.93345 L226.9871,23.13395 L235.3536,23.13395 L235.3536,23.93345 L234.6151,24.02595 C233.1696,24.24145 233.1696,24.61045 233.1696,27.65545 L233.1696,35.89945 C233.1696,40.17445 234.4616,42.11245 238.1526,42.11245 C240.2751,42.11245 241.8746,41.06645 242.5511,40.60545 L242.5511,27.65545 C242.5511,24.61045 242.5511,24.24145 241.1056,24.02595 L240.3676,23.93345 L240.3676,23.13395 L248.7341,23.13395 L248.7341,23.93345 L247.9956,24.02595 C246.5496,24.24145 246.5496,24.61045 246.5496,27.65545 L246.5496,43.49645 C245.9656,43.71195 245.4431,43.80445 244.7966,43.89645 L244.0586,43.03495 Z" id="Fill-160" fill="#FEFEFE"></path>
                    <path d="M257.09865,33.469 L258.60615,33.469 C262.94265,33.469 263.03515,30.055 263.03515,28.732 C263.03515,25.9025 261.15915,24.3025 258.69865,24.3025 C258.14465,24.3025 257.62165,24.3645 257.09865,24.518 L257.09865,33.469 Z M257.09865,38.9135 C257.09865,41.9585 257.09865,42.3275 258.54465,42.543 L259.28265,42.6355 L259.28265,43.435 L250.91615,43.435 L250.91615,42.6355 L251.65465,42.543 C253.09965,42.3275 253.09965,41.9585 253.09965,38.883 L253.10015,27.6555 C253.10015,24.549 253.10015,24.2415 251.62365,24.026 L250.91615,23.934 L250.91615,23.134 L259.77515,23.134 C262.60465,23.134 267.03415,23.4415 267.03415,28.2705 C267.03415,30.978 264.85015,32.731 263.09665,33.5305 C263.55815,34.5765 265.80415,39.0055 268.01815,41.805 C268.57215,42.512 269.43315,42.574 269.98665,42.6355 L269.98665,43.435 L267.31065,43.435 C264.20415,43.435 263.00465,41.4665 262.32765,40.113 L261.15915,37.837 C260.08215,35.776 260.02065,34.638 258.08315,34.638 L257.09865,34.638 L257.09865,38.9135 Z" id="Fill-162" fill="#FEFEFE"></path>
                    <path d="M282.4744,28.51685 C282.0744,26.94835 281.4899,23.84135 278.1374,23.84135 C276.3839,23.84135 275.0609,25.01035 275.0609,26.91735 C275.0609,31.65435 284.9039,31.34685 284.9039,37.92935 C284.9039,42.29685 281.0284,43.89685 277.3374,43.89685 C274.6614,43.89685 272.9084,43.18885 271.9239,42.66635 C271.1854,40.72835 271.0314,39.34385 271.0314,36.88335 L272.4774,36.57585 C272.9084,38.42135 273.9234,42.72785 277.8604,42.72785 C279.7984,42.72785 281.0899,41.37435 281.0899,39.31335 C281.0899,34.11485 271.5549,34.51485 271.5549,28.20885 C271.5549,24.30285 274.4459,22.67285 278.4139,22.67285 C280.7214,22.67285 282.1049,23.16485 283.2434,23.81085 C283.4894,25.31785 283.5819,26.94835 283.5819,28.51685 L282.4744,28.51685 Z" id="Fill-164" fill="#FEFEFE"></path>
                    <path d="M287.24075,42.6355 L287.97925,42.543 C289.42475,42.266 289.42475,42.3585 289.42475,38.883 L289.42475,27.6865 C289.42475,24.2105 289.42475,24.3645 287.97925,24.026 L287.24075,23.934 L287.24075,23.134 L301.42075,23.1345 C301.78975,24.703 301.78975,26.5485 301.78975,28.117 L300.68225,28.271 C299.88275,24.3645 298.86775,24.3025 295.63775,24.3025 L293.42325,24.3025 L293.42325,32.208 L295.51475,32.208 C298.25275,32.208 298.68325,32.177 298.86775,30.8855 L299.02175,29.809 L299.82125,29.809 L299.82125,35.93 L299.02175,35.93 L298.86775,34.946 C298.65225,33.5925 298.19125,33.5925 295.63775,33.5925 L293.42325,33.5925 L293.42325,41.805 C294.43825,42.051 295.48425,42.266 296.52975,42.266 C301.14425,42.2665 301.48225,39.898 302.09775,37.591 L303.20475,37.8065 C303.05125,39.9595 302.80475,41.559 302.18975,43.435 L287.24075,43.435 L287.24075,42.6355 Z" id="Fill-166" fill="#FEFEFE"></path>
                    <path d="M316.64555,28.51685 C316.24555,26.94835 315.66105,23.84135 312.30855,23.84135 C310.55505,23.84135 309.23255,25.01035 309.23255,26.91735 C309.23255,31.65435 319.07505,31.34685 319.07505,37.92935 C319.07505,42.29735 315.19955,43.89685 311.50855,43.89685 C308.83305,43.89685 307.07955,43.18885 306.09505,42.66635 C305.35655,40.72835 305.20305,39.34435 305.20305,36.88335 L306.64855,36.57585 C307.07955,38.42135 308.09455,42.72785 312.03155,42.72785 C313.96955,42.72785 315.26105,41.37435 315.26105,39.31335 C315.26105,34.11485 305.72605,34.51485 305.72605,28.20935 C305.72605,24.30285 308.61755,22.67285 312.58505,22.67285 C314.89255,22.67285 316.27655,23.16485 317.41455,23.81085 C317.66055,25.31785 317.75305,26.94835 317.75305,28.51685 L316.64555,28.51685 Z" id="Fill-168" fill="#FEFEFE"></path>
                    <path d="M119.1089,76.9856 C120.0364,75.7486 121.1964,74.3576 122.4074,72.9656 L122.2014,72.5536 C121.0674,74.0736 119.9849,75.5681 119.1089,76.9856 M117.5114,81.9081 C117.4079,81.9336 117.2534,81.9591 117.1244,81.9591 C116.4804,81.9591 115.9909,81.3666 115.9909,80.4131 C116.0164,77.8876 118.4389,74.0996 121.1964,70.3116 C121.0419,69.7446 120.9129,69.2551 120.8609,68.8426 C120.7839,68.3276 120.8354,67.8896 120.9129,67.6831 C121.5829,66.3171 123.5154,66.0591 123.0254,66.3691 C122.7939,66.5231 122.6909,66.8326 122.6909,67.1931 C122.6909,67.4511 122.7424,67.7606 122.8194,68.0956 C125.5254,64.4356 128.1024,60.9826 128.6179,58.8701 C128.8239,57.9676 128.1024,57.6331 127.3809,57.6071 C120.3714,57.4781 107.4349,67.7606 108.5689,71.2901 C108.6719,71.6001 109.0844,71.7031 109.5484,71.7031 C109.8574,71.7031 110.3729,71.6001 110.6819,71.4966 C110.6819,71.6771 109.4194,72.3471 108.4144,72.3216 C107.4349,72.2956 106.7134,71.6001 106.6879,70.8781 C106.4044,64.9516 119.7789,56.9631 127.8449,56.9631 C129.6229,56.9631 130.3699,57.9161 130.3959,59.1016 C130.4734,61.7301 127.0199,66.1626 123.6184,70.6461 C123.6184,70.6721 123.7474,70.9816 123.9019,71.2391 C124.7269,70.2601 125.5514,69.3581 126.2729,68.5851 C133.8749,60.3646 141.3484,55.4166 145.4199,55.4166 C146.0899,55.4166 146.4764,56.1126 146.5019,56.5766 C146.5279,57.5296 145.5999,58.4831 145.2394,58.8956 C145.3684,58.6636 145.5484,58.2256 145.6259,57.6586 C145.6259,57.6071 145.6259,57.3236 145.2394,57.2461 C142.6109,56.7566 134.8284,60.9566 126.5819,69.4871 C125.8604,70.2341 125.0614,71.0586 124.2369,71.9606 C126.6334,76.8826 131.4524,82.5266 136.9929,82.5266 C138.6419,82.5266 140.3689,82.0371 142.1214,80.8511 C142.3789,80.6706 142.4819,80.7226 142.2759,80.8771 C140.0854,82.7066 137.9209,83.4541 135.8589,83.4541 C130.0609,83.4541 125.1389,77.5791 122.7424,73.5586 C119.8564,76.9086 116.1969,81.1091 117.5114,81.9081" id="Fill-170" fill="#FEFEFE"></path>
                    <path d="M143.41115,67.19315 C143.41115,67.19315 143.48865,67.29665 143.30815,67.29665 C142.68965,67.32215 140.85965,66.57515 140.52515,65.23465 C138.90165,66.42015 136.78865,66.80715 135.65465,66.78115 C135.50015,66.83265 135.26815,66.70365 135.34565,66.70365 C137.40715,66.34315 139.82915,64.79665 140.98915,63.45665 C141.16915,63.27615 142.25165,63.86915 142.17415,64.12665 C141.81365,65.18315 142.58665,66.88415 143.41115,67.19315 M134.18565,74.22815 C136.40165,73.97115 140.67965,69.79615 140.83465,68.81665 C137.97365,69.74465 135.03615,72.86315 134.18565,74.22815 M132.79415,76.77965 C132.76815,77.08915 133.00015,77.26915 133.56765,77.26915 C135.44865,77.26915 140.16415,73.68715 142.76715,71.52265 C142.84465,71.47115 143.05065,71.59965 142.97315,71.67715 C141.01465,73.48115 135.91215,78.40315 132.48465,78.40315 C131.66015,78.40315 130.65565,77.47515 130.65565,76.77965 C130.65565,76.16165 130.78415,75.64565 130.99015,75.07865 C131.63415,73.61015 132.92265,71.98665 134.54665,70.62015 C136.68515,68.84265 138.97915,68.04365 140.08715,68.04365 C140.49915,68.04365 141.65915,68.63665 141.65915,69.35815 C141.65915,70.95565 136.73665,74.66615 133.82515,74.74415 C133.38665,75.28515 132.87165,76.10965 132.79415,76.77965" id="Fill-172" fill="#FEFEFE"></path>
                    <path d="M142.2771,69.0496 C142.1226,68.6376 143.1796,68.0956 145.0091,67.3481 C146.3496,65.3641 147.6636,63.5856 148.7461,62.1426 C149.5191,61.1376 150.2666,60.3126 150.9106,59.7976 C151.2716,59.4886 151.6066,59.2826 151.8641,59.2826 C153.2816,59.2051 154.3381,60.6996 153.8486,60.4161 C152.9461,60.0036 151.2456,62.4261 150.1376,63.8176 C149.4931,64.6166 148.9006,65.4151 148.2821,66.3171 C150.4466,65.8021 152.6886,65.5441 152.7916,65.6991 C152.7916,65.7251 152.7916,65.7501 152.6886,65.7761 C150.6011,66.2911 148.9006,66.8586 147.5091,67.4256 L146.6846,68.6366 C144.4166,72.0381 142.4841,75.3106 141.8656,76.9601 C142.9991,77.0891 147.2771,72.8886 148.7716,71.4971 C148.9261,71.3681 149.0551,71.5746 148.9521,71.6516 C147.6891,73.0946 143.2311,77.7851 141.6596,78.3516 C141.3501,78.4806 141.0921,78.3776 140.8346,78.2486 C140.6286,78.1451 140.0616,77.6041 139.9071,77.2176 C139.8811,77.1661 139.8296,77.1151 139.8296,76.8311 C139.8296,76.0841 140.9121,73.7391 143.7981,69.2036 C143.5946,69.3051 143.4426,69.3716 143.2721,69.4501 C142.9901,69.5796 142.4061,69.4361 142.2771,69.0496" id="Fill-174" fill="#FEFEFE"></path>
                    <path d="M154.13235,77.0115 C155.75585,76.5735 159.44085,73.043 161.09035,71.4975 C161.24485,71.368 161.37335,71.5745 161.29635,71.6515 C159.05435,74.1 154.85385,78.352 153.30785,78.352 C153.04985,78.352 152.76635,78.12 152.50835,77.811 C152.22535,77.4755 152.04485,77.089 152.04485,76.8055 C152.04485,75.3365 155.03435,71.033 156.37435,69.822 C154.26085,70.775 150.47335,73.894 148.56585,75.955 C148.23085,76.2905 147.92185,76.677 147.63835,77.0375 C146.94285,77.862 146.76235,78.558 147.14885,78.738 C146.37535,78.9185 145.75685,78.094 145.55085,77.347 C145.49935,77.1665 145.62835,76.4705 146.27285,75.285 C146.89085,74.074 147.87035,72.5535 148.72085,71.368 C149.64835,70.054 150.78185,68.6885 151.45235,68.1725 C151.55535,68.0695 151.70985,68.0435 151.78735,68.0435 C152.43135,68.0435 153.41085,69.0485 153.41085,69.693 C153.41085,69.796 153.30785,69.6675 153.10135,69.6415 C152.76635,69.616 151.81285,70.698 151.03985,71.703 C149.82885,73.301 148.48885,75.208 148.10185,75.9295 C148.38535,75.517 148.87535,75.0015 149.41635,74.486 C152.30235,71.6515 156.83835,68.1725 157.71435,68.1725 C158.33285,68.1725 159.15735,69.564 158.82235,69.848 C158.17835,70.363 154.18385,75.8005 154.13235,77.0115" id="Fill-176" fill="#FEFEFE"></path>
                    <path d="M171.06325,67.3479 C171.06325,67.3479 171.14075,67.4514 170.96025,67.4514 C170.23875,67.4769 168.38325,66.4459 167.97125,64.9774 C166.19275,66.2914 163.71925,66.9099 162.48225,66.8839 C162.35375,66.9359 162.09575,66.8069 162.17275,66.8069 C164.44075,66.3949 167.12075,64.6934 168.40925,63.1989 C168.53825,63.0189 169.74925,63.6629 169.64625,63.9464 C169.31125,65.1064 170.10975,66.9874 171.06325,67.3479 M168.46075,68.4824 C163.79625,68.4824 158.41025,77.1664 159.85375,77.7849 C161.29675,78.3779 164.98175,74.2544 166.70875,71.6259 C166.57925,71.3939 166.32225,70.6209 166.42475,70.3629 C166.50225,70.1054 167.27525,69.3324 167.61025,69.3064 C167.86775,69.2804 168.15125,69.4869 168.20325,69.5644 C168.69275,70.3629 169.31125,70.9559 170.34175,70.8789 C172.06825,70.7239 173.02175,69.7189 173.30575,69.7449 C173.17675,70.1054 172.14575,70.9559 170.88325,71.3679 C170.31575,71.5484 169.77525,71.5999 169.36275,71.5999 C168.97625,71.5999 168.71875,71.5484 168.58925,71.4974 C167.89375,74.9244 162.55975,78.6349 159.82775,78.4809 C158.64225,78.4034 157.86925,77.4239 157.86925,76.4449 C157.86925,72.2444 163.51275,68.0439 167.58425,68.0439 C168.56375,68.0439 168.97625,68.3274 169.15675,68.4824 C169.28525,68.5594 169.20825,68.5594 169.10475,68.5594 C168.84725,68.5334 168.64125,68.4824 168.46075,68.4824" id="Fill-178" fill="#FEFEFE"></path>
                    <path d="M177.32595,65.4412 C177.55795,65.6992 177.71245,66.0852 177.60945,66.0852 C177.55795,66.0852 177.35195,65.9822 177.06845,66.1112 C176.63045,66.2912 175.44445,67.3477 175.13595,67.7857 C174.77445,68.2502 174.23345,67.7087 174.20795,67.2447 C174.18195,66.4977 175.16095,64.8227 175.83145,64.6167 C176.42395,64.5392 176.99095,65.0552 177.32595,65.4412 M198.58595,64.3332 C198.79195,64.3852 198.89545,64.4362 198.58595,64.4102 C193.04545,63.9207 187.96895,63.9722 183.38195,64.7972 C182.50545,65.9307 181.65545,67.1937 180.67595,68.6367 C178.40845,72.0377 176.47545,75.3107 175.85695,76.9602 C176.99095,77.0892 181.26895,72.8887 182.76345,71.4972 C182.91795,71.3682 183.04695,71.5747 182.94345,71.6517 C181.68095,73.0947 177.22295,77.7847 175.65095,78.3517 C175.34195,78.4807 175.08395,78.3777 174.82645,78.2487 C174.61995,78.1457 174.05345,77.6042 173.89845,77.2177 C173.87245,77.1662 173.82145,77.1152 173.82145,76.8312 C173.82145,76.3677 174.25945,75.2847 175.26445,73.4557 C173.02245,75.7487 170.26495,78.3002 169.02795,78.4037 C168.92495,78.4037 168.84745,78.4037 168.71895,78.3777 C168.30645,78.2487 167.66195,77.6042 167.66195,77.1402 C167.66195,75.6457 171.39895,70.0282 173.04795,68.7142 C173.17745,68.5852 173.33195,68.5592 173.43445,68.5592 C174.02745,68.5592 175.05845,69.5902 175.05845,70.2347 C175.05845,70.3372 174.92945,70.2087 174.72295,70.1827 C173.66645,70.0797 170.13645,75.9547 169.82695,77.0117 C171.16745,76.6772 174.07895,73.9962 175.93445,72.2957 C176.50145,71.2652 177.24845,70.0542 178.15045,68.6367 L180.10895,65.7247 C179.92895,65.6212 179.77395,65.4672 179.61945,65.2867 C178.89795,64.4877 179.85145,64.0497 181.52645,63.7662 L182.73745,62.1422 C183.51095,61.1377 184.25795,60.3132 184.90195,59.7977 C185.26295,59.4887 185.59795,59.2827 185.85595,59.2827 C187.27345,59.2047 188.32995,60.6997 187.83995,60.4162 C186.98945,60.0297 185.46945,62.0912 184.28395,63.6117 C188.53595,63.3282 194.56545,63.5087 198.58595,64.3332" id="Fill-180" fill="#FEFEFE"></path>
                    <path d="M183.0989,74.40895 C186.0364,71.29095 190.4689,68.19845 191.3454,68.19845 C191.9379,68.19845 192.7624,69.58995 192.4529,69.87345 C191.7834,70.38895 187.8404,75.82645 187.7634,77.03745 C189.3609,76.59945 193.0199,73.01745 194.6439,71.49745 C194.8239,71.36795 194.9529,71.57445 194.8759,71.65145 C193.0199,73.63595 189.9534,76.85695 188.0209,77.99095 C187.8149,78.11995 187.4284,78.29995 187.1449,78.37745 C187.0414,78.40345 186.9389,78.42895 186.7579,78.37745 C186.2429,78.19695 185.6504,77.29495 185.6504,76.83145 C185.6504,75.36245 188.4074,71.23945 189.7474,70.02795 C188.2269,70.72395 186.0364,72.29545 184.1814,74.04845 C183.9234,74.28045 182.8929,75.36245 182.8929,75.36245 C182.1199,76.18745 181.5524,76.96045 181.2949,77.57895 C181.0629,78.09395 181.1144,78.45495 181.7069,78.53195 C181.3984,78.66095 181.1144,78.55795 180.8569,78.40345 C180.6764,78.32595 180.1094,77.78495 179.9294,77.37245 C179.8519,77.16645 179.9034,76.34145 180.6764,74.64095 C182.0424,71.52295 185.5469,66.47195 187.9694,63.25095 C188.6654,62.29695 189.9794,60.72545 191.0874,59.79745 C191.4999,59.48845 191.8604,59.33395 192.0669,59.33395 C193.5099,59.33395 194.5149,60.85445 194.0254,60.57045 C193.5099,60.31345 192.7364,60.85445 191.7574,61.96195 C189.2319,64.82295 185.1864,70.25995 183.0989,74.40895" id="Fill-182" fill="#FEFEFE"></path>
                    <path d="M205.4934,66.678 C205.5964,66.678 205.3644,66.9875 204.3339,66.9875 C201.1124,66.9875 198.1749,65.055 198.1749,64.101 C198.1749,63.6115 199.4374,63.0445 200.0304,63.0445 C200.2109,63.0445 200.0559,63.0965 200.0559,63.354 C200.0559,64.3335 202.7874,66.678 205.4934,66.678 M199.0249,73.301 C198.2779,74.074 193.2269,78.4035 192.1444,78.4035 C192.0934,78.4035 191.9644,78.352 191.9124,78.326 C191.4489,78.094 190.7789,77.115 190.7789,76.5995 C190.7789,73.7905 196.6804,68.044 201.4214,68.044 C202.4009,68.044 203.6894,68.4565 203.6894,69.6675 C203.6894,70.105 203.4574,70.5435 203.1999,70.8785 C203.1484,70.9045 203.0969,70.8785 203.1224,70.853 C203.2514,70.621 203.4059,70.312 203.4059,69.925 C203.4059,69.152 202.9164,68.7655 202.1434,68.8165 C200.6489,68.8945 198.7674,69.977 197.0924,71.394 C194.6444,73.481 192.7119,76.7285 192.9694,76.857 C192.9949,76.883 193.0464,76.883 193.1239,76.857 C193.9744,76.5735 197.5824,73.971 198.9219,72.837 C199.3859,72.4245 201.0609,70.8015 201.7054,70.4405 C202.2209,70.183 203.0969,71.6 202.9934,71.9095 C202.8649,71.6515 200.5454,74.4605 199.7724,76.1095 C199.6179,76.4705 199.5149,76.7795 199.5149,76.986 C201.1384,76.522 204.8234,72.992 206.4209,71.4975 C206.5499,71.368 206.6789,71.5745 206.6014,71.6515 C204.3594,74.1 200.1589,78.4035 198.6129,78.4035 C198.4839,78.4035 198.3549,78.352 198.1749,78.249 C197.8139,78.0425 197.3244,77.5015 197.3244,77.038 C197.3244,76.7795 197.4274,76.4705 197.5304,76.084 C197.8394,75.1305 198.5354,73.945 199.0249,73.301" id="Fill-184" fill="#FEFEFE"></path>
                    <path d="M211.70435,77.012 C213.32785,76.574 217.01285,73.0435 218.66235,71.4975 C218.81685,71.368 218.94535,71.5745 218.86835,71.652 C216.62635,74.1 212.42585,78.352 210.87985,78.352 C210.62185,78.352 210.33885,78.12 210.08085,77.811 C209.79735,77.476 209.61735,77.089 209.61735,76.806 C209.61735,75.3365 212.60635,71.0335 213.94635,69.822 C211.83335,70.7755 208.04535,73.894 206.13835,75.9555 C205.80285,76.2905 205.49385,76.677 205.21035,77.038 C204.51485,77.862 204.33435,78.5585 204.72085,78.7385 C203.94735,78.9185 203.32935,78.094 203.12285,77.347 C203.07135,77.1665 203.20035,76.4705 203.84485,75.2855 C204.46285,74.074 205.44235,72.554 206.29285,71.368 C207.22035,70.054 208.35435,68.6885 209.02435,68.1725 C209.12735,68.0695 209.28185,68.044 209.35935,68.044 C210.00335,68.044 210.98285,69.049 210.98285,69.693 C210.98285,69.796 210.87985,69.6675 210.67335,69.6415 C210.33885,69.616 209.38535,70.698 208.61185,71.7035 C207.40085,73.301 206.06085,75.208 205.67385,75.9295 C205.95735,75.5175 206.44735,75.0015 206.98835,74.4865 C209.87485,71.6515 214.41035,68.1725 215.28635,68.1725 C215.90485,68.1725 216.72935,69.5645 216.39435,69.848 C215.75035,70.3635 211.75585,75.8005 211.70435,77.012" id="Fill-186" fill="#FEFEFE"></path>
                    <path d="M218.45705,74.40895 C221.39505,71.29095 225.82755,68.19895 226.70355,68.19895 C227.29605,68.19895 228.12055,69.58995 227.81155,69.87395 C227.14155,70.38895 223.19855,75.82645 223.12155,77.03795 C224.71905,76.59995 228.37805,73.01745 230.00205,71.49745 C230.18205,71.36845 230.31105,71.57445 230.23405,71.65195 C228.37805,73.63595 225.31155,76.85695 223.37905,77.99095 C223.17305,78.11995 222.78655,78.30045 222.50305,78.37745 C222.39955,78.40345 222.29705,78.42895 222.11605,78.37745 C221.60105,78.19695 221.00855,77.29495 221.00855,76.83195 C221.00855,75.36245 223.76555,71.23945 225.10555,70.02795 C223.58505,70.72395 221.39505,72.29595 219.53955,74.04845 C219.28155,74.28045 218.25105,75.36245 218.25105,75.36245 C217.47805,76.18745 216.91055,76.96045 216.65305,77.57895 C216.42105,78.09445 216.47255,78.45495 217.06555,78.53245 C216.75605,78.66095 216.47255,78.55845 216.21505,78.40345 C216.03455,78.32645 215.46755,77.78495 215.28755,77.37245 C215.21005,77.16645 215.26155,76.34145 216.03455,74.64095 C217.40055,71.52295 220.90505,66.47195 223.32755,63.25095 C224.02355,62.29695 225.33755,60.72545 226.44555,59.79745 C226.85805,59.48845 227.21855,59.33395 227.42505,59.33395 C228.86805,59.33395 229.87355,60.85445 229.38355,60.57045 C228.86805,60.31345 228.09455,60.85445 227.11555,61.96245 C224.59055,64.82295 220.54455,70.25995 218.45705,74.40895" id="Fill-188" fill="#FEFEFE"></path>
                    <path d="M229.53835,77.2952 C231.90885,77.0377 236.23835,73.5587 238.73785,71.5227 C238.81535,71.4717 238.99585,71.5747 238.91835,71.6522 C236.70235,73.7392 231.72885,78.4037 228.53335,78.4037 C227.70835,78.4037 226.78085,77.6307 226.65185,76.8057 C226.62635,76.5997 226.62635,76.3422 226.70385,76.0327 C226.90985,74.9507 227.83785,73.1467 229.56435,71.4717 C231.67685,69.3842 234.27985,68.0442 236.10935,68.0442 C236.70235,68.0442 237.57885,68.9202 237.57885,69.3067 C237.57885,70.2857 236.31585,71.2397 235.46535,71.8842 C235.41385,71.9352 235.28485,71.8842 235.33685,71.8062 C235.74885,71.3942 236.80535,69.3582 236.59935,69.1782 C233.84185,69.2292 228.79085,75.0537 228.79085,76.8572 C228.79085,77.2697 229.30635,77.3212 229.53835,77.2952" id="Fill-190" fill="#FEFEFE"></path>
                    <path d="M248.866,67.3484 C248.866,67.3484 248.943,67.4514 248.763,67.4514 C248.0415,67.4769 246.186,66.4464 245.7735,64.9779 C243.9955,66.2919 241.5215,66.9104 240.2845,66.8844 C240.156,66.9364 239.898,66.8069 239.9755,66.8069 C242.243,66.3949 244.9235,64.6939 246.212,63.1994 C246.3405,63.0194 247.552,63.6634 247.4485,63.9464 C247.114,65.1064 247.9125,66.9874 248.866,67.3484 M246.263,68.4824 C241.599,68.4824 236.213,77.1664 237.6565,77.7849 C239.0995,78.3779 242.7845,74.2549 244.511,71.6264 C244.382,71.3944 244.1245,70.6209 244.2275,70.3634 C244.3045,70.1059 245.078,69.3329 245.4125,69.3069 C245.6705,69.2809 245.954,69.4874 246.0055,69.5649 C246.495,70.3634 247.114,70.9564 248.1445,70.8789 C249.871,70.7244 250.8245,69.7189 251.108,69.7449 C250.979,70.1059 249.9485,70.9564 248.6855,71.3684 C248.1185,71.5484 247.5775,71.6004 247.165,71.6004 C246.7785,71.6004 246.521,71.5484 246.392,71.4974 C245.6965,74.9244 240.362,78.6349 237.6305,78.4809 C236.445,78.4034 235.672,77.4244 235.672,76.4449 C235.672,72.2444 241.3155,68.0444 245.387,68.0444 C246.3665,68.0444 246.7785,68.3274 246.959,68.4824 C247.088,68.5594 247.0105,68.5594 246.9075,68.5594 C246.65,68.5334 246.444,68.4824 246.263,68.4824" id="Fill-192" fill="#FEFEFE"></path>
                    <path d="M254.20045,77.012 C255.82395,76.574 259.50895,73.0435 261.15845,71.4975 C261.31295,71.3685 261.44145,71.5745 261.36445,71.652 C259.12245,74.1 254.92195,78.352 253.37595,78.352 C253.11795,78.352 252.83495,78.12 252.57695,77.811 C252.29345,77.476 252.11345,77.089 252.11345,76.806 C252.11345,75.3365 255.10245,71.0335 256.44245,69.822 C254.32945,70.7755 250.54145,73.894 248.63445,75.9555 C248.29895,76.2905 247.98995,76.677 247.70645,77.038 C247.01095,77.8625 246.83045,78.5585 247.21695,78.7385 C246.44345,78.919 245.82545,78.0945 245.61895,77.347 C245.56745,77.167 245.69645,76.4705 246.34095,75.2855 C246.95895,74.074 247.93845,72.554 248.78895,71.3685 C249.71695,70.054 250.85045,68.6885 251.52045,68.173 C251.62345,68.0695 251.77795,68.044 251.85545,68.044 C252.49945,68.044 253.47895,69.049 253.47895,69.6935 C253.47895,69.796 253.37595,69.668 253.16995,69.642 C252.83495,69.616 251.88145,70.6985 251.10795,71.7035 C249.89695,73.301 248.55695,75.208 248.17045,75.93 C248.45345,75.5175 248.94345,75.0015 249.48445,74.4865 C252.37095,71.652 256.90645,68.173 257.78245,68.173 C258.40095,68.173 259.22545,69.5645 258.89045,69.848 C258.24645,70.3635 254.25195,75.8005 254.20045,77.012" id="Fill-194" fill="#FEFEFE"></path>
                    <path d="M263.42655,78.19705 C258.73655,80.67105 255.15455,83.60905 253.35055,86.95855 C253.06705,87.47455 252.93805,87.83505 252.93805,88.09305 C252.93805,88.45405 253.17005,88.58255 253.50555,88.58255 C253.86605,88.58255 254.30405,88.42805 254.71655,88.22205 C257.73155,86.59855 260.79805,82.44955 263.42655,78.19705 L263.42655,78.19705 Z M267.06005,76.05855 C267.62705,75.85255 268.19405,75.64605 268.76055,75.46605 C269.17355,75.33655 269.58555,75.41455 269.22505,75.54305 C268.40005,75.87805 267.57555,76.23855 266.77655,76.57405 C263.47855,82.32055 259.22605,88.78905 254.27805,90.10305 C253.99505,90.18005 253.71155,90.20605 253.42805,90.20605 C252.47455,90.20605 251.67555,89.76805 251.67555,88.68555 C251.67555,88.40205 251.72705,88.06705 251.85605,87.68055 C252.88655,84.40805 257.96355,80.23305 263.89055,77.39855 C264.45705,76.41905 266.62205,72.52805 266.62205,72.52805 C266.64755,72.50205 266.00355,72.96605 265.51355,73.40405 C265.12755,73.76505 263.71005,75.02755 262.26705,76.16205 C260.79805,77.29505 259.27805,78.40355 258.73655,78.40355 C258.68505,78.40355 258.55605,78.37755 258.47855,78.32655 C258.01455,78.04255 257.37055,77.11505 257.37055,76.60005 C257.37055,73.79055 263.29755,68.04405 268.01355,68.04405 C269.01905,68.04405 270.30705,68.45655 270.30705,69.66755 C270.30705,70.10555 270.04955,70.54355 269.81755,70.87855 C269.76605,70.90455 269.74005,70.87855 269.76605,70.85305 C269.86905,70.62105 270.02355,70.31205 270.02355,69.92555 C270.02355,69.15205 269.53405,68.76605 268.76055,68.81705 C267.26605,68.89455 265.41105,69.97705 263.71005,71.39455 C261.26205,73.48105 259.38055,76.65105 259.63855,76.85705 C259.74105,76.96055 260.77255,76.29055 261.90605,75.54305 C263.14305,74.71855 264.35405,73.76505 265.20455,73.04305 C266.98305,71.54855 267.36955,71.16255 267.80755,70.95655 C268.29705,70.72455 269.37955,72.11555 269.27605,72.42505 C269.19905,72.34755 269.07005,72.27005 268.63205,73.14655 L267.06005,76.05855 Z" id="Fill-196" fill="#FEFEFE"></path>
                    <path d="M171.052,61.90065 C170.9485,61.90065 171.2065,62.20965 172.2115,62.20965 C175.407,62.20965 178.3705,60.25115 178.3705,59.32365 C178.3705,58.83365 177.0825,58.24165 176.515,58.24165 C176.3605,58.24165 176.515,58.31865 176.515,58.57665 C176.515,59.55565 173.7835,61.90065 171.052,61.90065" id="Fill-198" fill="#FEFEFE"></path>
                    <path d="M142.30985,61.90015 C142.20685,61.90015 142.46485,62.20965 143.46985,62.20965 C146.66485,62.20965 149.62835,60.25115 149.62835,59.32365 C149.62835,58.83365 148.34035,58.24115 147.77285,58.24115 C147.61835,58.24115 147.77285,58.31865 147.77285,58.57665 C147.77285,59.55565 145.04185,61.90015 142.30985,61.90015" id="Fill-200" fill="#FEFEFE"></path>
                </g>
            </g>
        </g>
    </g>
</svg>