<?xml version="1.0" encoding="UTF-8"?>
<svg width="77px" height="71px" viewBox="0 0 77 71" version="1.1" xmlns="http://www.w3.org/2000/svg" xmlns:xlink="http://www.w3.org/1999/xlink">
    <!-- Generator: Sketch 41.2 (35397) - http://www.bohemiancoding.com/sketch -->
    <title>vision-icon</title>
    <desc>Created with Sketch.</desc>
    <defs></defs>
    <g id="Page-1" stroke="none" stroke-width="1" fill="none" fill-rule="evenodd">
        <g id="TopCourses_Aboutus_1366px" transform="translate(-727.000000, -3362.000000)">
            <g id="Group-2" transform="translate(727.000000, 3362.000000)">
                <g id="vision-icon">
                    <path d="M38.5,24.638 C41.601,24.638 44.124,22.115 44.124,19.013 C44.124,15.912 41.601,13.389 38.5,13.389 C35.399,13.389 32.876,15.912 32.876,19.013 C32.876,22.115 35.399,24.638 38.5,24.638 Z" id="Shape"></path>
                    <path d="M49.499,53.211 C50.969,54.68 52.928,55.492 55.015,55.499 C55.802,55.493 56.566,55.378 57.287,55.157 C57.507,54.411 57.621,53.646 57.627,52.88 C57.627,50.805 56.814,48.847 55.338,47.37 C53.862,45.894 51.903,45.081 49.824,45.081 C49.061,45.088 48.297,45.202 47.552,45.422 C46.719,48.15 47.467,51.178 49.499,53.211 Z" id="Shape"></path>
                    <path d="M13.466,42.612 C17.957,42.612 22.139,40.191 24.397,36.369 C24.171,36.356 23.949,36.324 23.721,36.324 L14.857,36.324 C14.525,36.324 14.257,36.055 14.257,35.724 C14.257,35.393 14.526,35.124 14.857,35.124 L23.721,35.124 C23.959,35.124 24.195,35.135 24.431,35.148 C23.872,34.2 23.211,33.326 22.444,32.547 C20.053,30.155 16.863,28.837 13.465,28.837 C10.067,28.837 6.877,30.156 4.483,32.551 C3.568,33.48 2.79,34.547 2.171,35.72 C2.758,36.868 3.536,37.936 4.486,38.901 C6.895,41.292 10.085,42.612 13.466,42.612 Z" id="Shape"></path>
                    <path d="M62.143,35.124 C62.475,35.124 62.743,35.393 62.743,35.724 C62.743,36.055 62.474,36.324 62.143,36.324 L53.279,36.324 C53.052,36.324 52.831,36.357 52.605,36.369 C53.138,37.271 53.786,38.121 54.554,38.901 C56.962,41.292 60.152,42.612 63.533,42.612 C68.274,42.612 72.675,39.916 74.827,35.72 C74.208,34.547 73.431,33.48 72.512,32.547 C70.121,30.155 66.931,28.837 63.533,28.837 C60.135,28.837 56.945,30.156 54.55,32.551 C53.787,33.327 53.126,34.201 52.567,35.148 C52.803,35.136 53.04,35.124 53.278,35.124 L62.143,35.124 Z" id="Shape"></path>
                    <path d="M38.5,29.398 C43.56,29.398 48.311,27.434 51.877,23.868 C53.274,22.448 54.455,20.817 55.386,19.021 C54.504,17.264 53.324,15.628 51.874,14.155 C48.287,10.592 43.536,8.628 38.5,8.628 C31.391,8.628 24.796,12.697 21.614,19.021 C22.545,20.818 23.725,22.448 25.126,23.872 C28.689,27.435 33.44,29.398 38.5,29.398 Z M38.5,12.189 C42.263,12.189 45.324,15.251 45.324,19.013 C45.324,22.776 42.262,25.838 38.5,25.838 C34.738,25.838 31.676,22.776 31.676,19.013 C31.676,15.25 34.737,12.189 38.5,12.189 Z" id="Shape"></path>
                    <path d="M29.448,45.422 C28.703,45.202 27.938,45.088 27.171,45.081 C25.096,45.081 23.138,45.894 21.662,47.37 C20.186,48.847 19.373,50.805 19.373,52.885 C19.379,53.648 19.493,54.411 19.713,55.157 C20.434,55.378 21.199,55.493 21.991,55.499 C24.072,55.492 26.031,54.68 27.501,53.21 C29.533,51.178 30.281,48.15 29.448,45.422 Z" id="Shape"></path>
                    <path d="M20.407,19.294 C21.414,21.307 22.714,23.131 24.275,24.717 C28.068,28.51 33.12,30.599 38.501,30.599 C43.882,30.599 48.934,28.51 52.73,24.714 C54.287,23.131 55.587,21.308 56.594,19.295 C56.677,19.128 56.678,18.934 56.598,18.766 C55.646,16.79 54.345,14.955 52.725,13.309 C48.907,9.517 43.855,7.429 38.501,7.429 C30.835,7.429 23.732,11.879 20.404,18.765 C20.322,18.932 20.324,19.127 20.407,19.294 Z M38.5,8.628 C43.535,8.628 48.287,10.592 51.874,14.155 C53.324,15.628 54.504,17.264 55.386,19.021 C54.455,20.817 53.275,22.448 51.877,23.868 C48.311,27.434 43.56,29.398 38.5,29.398 C33.44,29.398 28.689,27.434 25.126,23.871 C23.725,22.448 22.544,20.817 21.614,19.02 C24.796,12.698 31.391,8.628 38.5,8.628 Z" id="Shape" fill="#1B6DA3"></path>
                    <path d="M3.637,39.748 C6.275,42.368 9.766,43.811 13.467,43.811 C18.566,43.811 23.297,40.958 25.696,36.501 C29.345,37.096 32.594,39.298 34.453,42.569 L36.289,45.799 C37.343,47.655 37.9,49.764 37.9,51.898 L37.9,63.745 L31.063,63.745 C30.731,63.745 30.463,64.014 30.463,64.345 L30.463,69.32 L24.58,69.32 C24.248,69.32 23.98,69.589 23.98,69.92 C23.98,70.251 24.249,70.52 24.58,70.52 L52.42,70.52 C52.752,70.52 53.02,70.251 53.02,69.92 C53.02,69.589 52.751,69.32 52.42,69.32 L31.663,69.32 L31.663,64.945 L45.338,64.945 L45.338,66.539 C45.338,66.87 45.607,67.139 45.938,67.139 C46.269,67.139 46.538,66.87 46.538,66.539 L46.538,64.346 C46.538,64.015 46.269,63.746 45.938,63.746 L39.1,63.746 L39.1,51.898 C39.1,49.764 39.657,47.656 40.711,45.8 L42.547,42.569 C44.406,39.297 47.657,37.095 51.307,36.501 C51.933,37.666 52.729,38.758 53.703,39.748 C56.342,42.368 59.833,43.811 63.533,43.811 C68.831,43.811 73.74,40.736 76.039,35.977 C76.12,35.81 76.119,35.614 76.036,35.447 C75.341,34.057 74.443,32.798 73.364,31.702 C70.743,29.08 67.252,27.637 63.533,27.637 C59.815,27.637 56.323,29.081 53.698,31.706 C52.659,32.761 51.792,33.974 51.107,35.308 C47.104,35.962 43.543,38.389 41.504,41.976 L39.668,45.208 C39.176,46.074 38.789,46.991 38.5,47.938 C38.21,46.991 37.823,46.073 37.332,45.207 L35.496,41.976 C33.457,38.389 29.896,35.961 25.893,35.308 C25.209,33.974 24.34,32.761 23.298,31.703 C20.677,29.081 17.186,27.638 13.467,27.638 C9.748,27.638 6.257,29.082 3.633,31.707 C2.558,32.799 1.66,34.058 0.965,35.449 C0.882,35.616 0.881,35.81 0.961,35.978 C1.618,37.343 2.517,38.61 3.637,39.748 Z M54.551,32.551 C56.946,30.156 60.136,28.837 63.534,28.837 C66.932,28.837 70.122,30.156 72.513,32.547 C73.431,33.48 74.209,34.547 74.828,35.72 C72.676,39.916 68.275,42.612 63.534,42.612 C60.153,42.612 56.962,41.292 54.555,38.901 C53.787,38.121 53.138,37.271 52.606,36.369 C52.831,36.357 53.053,36.324 53.28,36.324 L62.144,36.324 C62.476,36.324 62.744,36.055 62.744,35.724 C62.744,35.393 62.475,35.124 62.144,35.124 L53.28,35.124 C53.042,35.124 52.806,35.135 52.569,35.148 C53.127,34.201 53.787,33.326 54.551,32.551 Z M4.484,32.551 C6.879,30.156 10.068,28.837 13.466,28.837 C16.864,28.837 20.054,30.156 22.445,32.547 C23.211,33.325 23.872,34.2 24.432,35.148 C24.196,35.136 23.96,35.124 23.722,35.124 L14.858,35.124 C14.526,35.124 14.258,35.393 14.258,35.724 C14.258,36.055 14.527,36.324 14.858,36.324 L23.722,36.324 C23.95,36.324 24.172,36.357 24.398,36.369 C22.139,40.191 17.958,42.612 13.467,42.612 C10.086,42.612 6.895,41.292 4.488,38.901 C3.538,37.936 2.76,36.868 2.173,35.72 C2.791,34.546 3.569,33.48 4.484,32.551 Z" id="Shape" fill="#1B6DA3"></path>
                    <path d="M30.488,44.745 C30.427,44.569 30.288,44.432 30.112,44.373 C29.158,44.056 28.172,43.89 27.175,43.882 C24.775,43.882 22.515,44.82 20.812,46.523 C19.109,48.225 18.172,50.485 18.172,52.89 C18.18,53.88 18.345,54.867 18.663,55.821 C18.722,55.998 18.859,56.136 19.034,56.198 C19.961,56.523 20.953,56.692 21.989,56.699 C24.395,56.692 26.654,55.755 28.35,54.059 C30.775,51.633 31.615,47.977 30.488,44.745 Z M21.991,55.499 C21.199,55.493 20.433,55.378 19.713,55.157 C19.493,54.411 19.379,53.647 19.373,52.885 C19.373,50.805 20.186,48.847 21.662,47.37 C23.138,45.894 25.097,45.081 27.171,45.081 C27.938,45.088 28.703,45.202 29.448,45.422 C30.281,48.151 29.533,51.178 27.501,53.21 C26.031,54.68 24.072,55.492 21.991,55.499 Z" id="Shape" fill="#1B6DA3"></path>
                    <path d="M46.888,44.373 C46.712,44.432 46.573,44.569 46.512,44.745 C45.386,47.976 46.225,51.633 48.651,54.059 C50.347,55.753 52.606,56.691 55.018,56.698 C56.047,56.691 57.039,56.522 57.966,56.197 C58.141,56.135 58.278,55.997 58.337,55.82 C58.655,54.866 58.82,53.88 58.828,52.884 C58.828,50.484 57.89,48.224 56.188,46.522 C54.485,44.819 52.226,43.881 49.82,43.881 C48.829,43.89 47.842,44.056 46.888,44.373 Z M55.339,47.37 C56.815,48.847 57.628,50.805 57.628,52.88 C57.622,53.647 57.508,54.411 57.288,55.157 C56.567,55.378 55.803,55.493 55.016,55.499 C52.929,55.492 50.97,54.68 49.5,53.211 C47.468,51.178 46.72,48.15 47.553,45.422 C48.298,45.202 49.062,45.088 49.825,45.081 C51.904,45.081 53.863,45.895 55.339,47.37 Z" id="Shape" fill="#1B6DA3"></path>
                    <path d="M38.5,25.838 C42.263,25.838 45.324,22.776 45.324,19.013 C45.324,15.25 42.262,12.189 38.5,12.189 C34.738,12.189 31.676,15.251 31.676,19.013 C31.676,22.776 34.737,25.838 38.5,25.838 Z M38.5,13.389 C41.601,13.389 44.124,15.912 44.124,19.013 C44.124,22.115 41.601,24.638 38.5,24.638 C35.399,24.638 32.876,22.115 32.876,19.013 C32.876,15.912 35.399,13.389 38.5,13.389 Z" id="Shape" fill="#1B6DA3"></path>
                    <path d="M23.753,10.698 C23.907,10.698 24.06,10.639 24.177,10.522 C24.411,10.288 24.411,9.908 24.177,9.673 L22.258,7.754 C22.024,7.52 21.644,7.521 21.409,7.754 C21.175,7.988 21.175,8.368 21.409,8.603 L23.328,10.522 C23.446,10.64 23.6,10.698 23.753,10.698 Z" id="Shape" fill="#1B6DA3"></path>
                    <path d="M53.247,10.698 C53.4,10.698 53.554,10.639 53.671,10.522 L55.59,8.603 C55.824,8.369 55.824,7.989 55.59,7.754 C55.357,7.521 54.977,7.52 54.741,7.754 L52.822,9.673 C52.588,9.907 52.588,10.287 52.822,10.522 C52.94,10.64 53.093,10.698 53.247,10.698 Z" id="Shape" fill="#1B6DA3"></path>
                    <path d="M39.1,4.665 L39.1,1.045 C39.1,0.713 38.831,0.445 38.5,0.445 C38.169,0.445 37.9,0.714 37.9,1.045 L37.9,4.665 C37.9,4.997 38.169,5.265 38.5,5.265 C38.831,5.265 39.1,4.997 39.1,4.665 Z" id="Shape" fill="#1B6DA3"></path>
                </g>
            </g>
        </g>
    </g>
</svg>