<?xml version="1.0" encoding="UTF-8"?>
<svg width="150px" height="135px" viewBox="0 0 150 135" version="1.1" xmlns="http://www.w3.org/2000/svg" xmlns:xlink="http://www.w3.org/1999/xlink">
    <!-- Generator: Sketch 41.2 (35397) - http://www.bohemiancoding.com/sketch -->
    <title>hoptac-icon</title>
    <desc>Created with Sketch.</desc>
    <defs></defs>
    <g id="Page-1" stroke="none" stroke-width="1" fill="none" fill-rule="evenodd">
        <g id="TopCourses_Aboutus_1366px" transform="translate(-996.000000, -2288.000000)" stroke="#1B6DA3" stroke-width="0.75" fill="#1B6DA3">
            <g id="hoptac-icon" transform="translate(996.000000, 2288.000000)">
                <path d="M5.49532313,50.5102041 C5.9630102,50.5102041 6.31377551,50.1594388 6.31377551,49.6917517 L6.31377551,37.6488095 C6.31377551,37.1811224 5.9630102,36.8303571 5.49532313,36.8303571 C5.02763605,36.8303571 4.67687075,37.1811224 4.67687075,37.6488095 L4.67687075,49.6917517 C4.55994898,50.1594388 4.91071429,50.5102041 5.49532313,50.5102041 Z" id="Shape"></path>
                <path d="M5.49532313,58.4608844 C5.9630102,58.4608844 6.31377551,58.110119 6.31377551,57.642432 L6.31377551,53.7840136 C6.31377551,53.3163265 5.9630102,52.9655612 5.49532313,52.9655612 C5.02763605,52.9655612 4.67687075,53.3163265 4.67687075,53.7840136 L4.67687075,57.642432 C4.55994898,58.110119 4.91071429,58.4608844 5.49532313,58.4608844 Z" id="Shape"></path>
                <path d="M145.801446,93.4204932 C145.333759,93.4204932 144.982993,93.7712585 144.982993,94.2389456 L144.982993,106.281888 C144.982993,106.749575 145.333759,107.10034 145.801446,107.10034 C146.269133,107.10034 146.619898,106.749575 146.619898,106.281888 L146.619898,94.2389456 C146.73682,93.7712585 146.269133,93.4204932 145.801446,93.4204932 Z" id="Shape"></path>
                <path d="M145.801446,109.438776 C145.333759,109.438776 144.982993,109.789541 144.982993,110.257228 L144.982993,114.115646 C144.982993,114.583333 145.333759,114.934099 145.801446,114.934099 C146.269133,114.934099 146.619898,114.583333 146.619898,114.115646 L146.619898,110.257228 C146.73682,109.789541 146.269133,109.438776 145.801446,109.438776 Z" id="Shape"></path>
                <path d="M137.032313,18.1228741 C137.149235,18.2397959 137.383078,18.3567177 137.616922,18.3567177 C137.850765,18.3567177 138.084609,18.2397959 138.201531,18.1228741 C138.552296,17.7721088 138.552296,17.1875 138.201531,16.9536565 L136.330782,15.0829082 C135.980017,14.7321429 135.395408,14.7321429 135.161565,15.0829082 C134.810799,15.4336735 134.810799,16.0182823 135.161565,16.2521259 L137.032313,18.1228741 Z" id="Shape"></path>
                <path d="M142.995323,23.9689626 C143.112245,24.0858844 143.346088,24.2028061 143.579932,24.2028061 C143.813776,24.2028061 144.047619,24.0858844 144.164541,23.9689626 C144.515306,23.6181973 144.515306,23.0335884 144.164541,22.7997449 L142.293793,20.9289966 C141.943027,20.5782313 141.358418,20.5782313 141.124575,20.9289966 C140.77381,21.2797619 140.77381,21.8643707 141.124575,22.0982143 L142.995323,23.9689626 Z" id="Shape"></path>
                <path d="M135.863095,24.3197279 C136.096939,24.3197279 136.330782,24.2028061 136.447704,24.0858844 L138.318452,22.2151361 C138.669218,21.8643707 138.669218,21.2797619 138.318452,21.0459184 C137.967687,20.6951531 137.383078,20.6951531 137.149235,21.0459184 L135.278486,22.9166667 C134.927721,23.267432 134.927721,23.8520408 135.278486,24.0858844 C135.395408,24.2028061 135.629252,24.3197279 135.863095,24.3197279 Z" id="Shape"></path>
                <path d="M141.826105,18.3567177 C142.059949,18.3567177 142.293793,18.2397959 142.410714,18.1228741 L144.281463,16.2521259 C144.632228,15.9013605 144.632228,15.3167517 144.281463,15.0829082 C143.930697,14.7321429 143.346088,14.7321429 143.112245,15.0829082 L141.241497,16.9536565 C140.890731,17.3044218 140.890731,17.8890306 141.241497,18.1228741 C141.358418,18.2397959 141.592262,18.3567177 141.826105,18.3567177 Z" id="Shape"></path>
                <path d="M6.43069728,103.592687 C6.07993197,103.241922 5.49532313,103.241922 5.26147959,103.592687 C4.91071429,103.943452 4.91071429,104.528061 5.26147959,104.761905 L7.13222789,106.632653 C7.24914966,106.749575 7.4829932,106.866497 7.71683673,106.866497 C7.95068027,106.866497 8.18452381,106.749575 8.30144558,106.632653 C8.65221088,106.281888 8.65221088,105.697279 8.30144558,105.463435 L6.43069728,103.592687 Z" id="Shape"></path>
                <path d="M12.3937075,109.555697 C12.0429422,109.204932 11.4583333,109.204932 11.2244898,109.555697 C10.8737245,109.906463 10.8737245,110.491071 11.2244898,110.724915 L13.0952381,112.595663 C13.2121599,112.712585 13.4460034,112.829507 13.6798469,112.829507 C13.9136905,112.829507 14.147534,112.712585 14.2644558,112.595663 C14.6152211,112.244898 14.6152211,111.660289 14.2644558,111.426446 L12.3937075,109.555697 Z" id="Shape"></path>
                <path d="M7.01530612,109.555697 L5.14455782,111.426446 C4.79379252,111.777211 4.79379252,112.36182 5.14455782,112.595663 C5.26147959,112.712585 5.49532313,112.829507 5.72916667,112.829507 C5.9630102,112.829507 6.19685374,112.712585 6.31377551,112.595663 L8.18452381,110.724915 C8.53528912,110.37415 8.53528912,109.789541 8.18452381,109.555697 C7.8337585,109.204932 7.36607143,109.204932 7.01530612,109.555697 Z" id="Shape"></path>
                <path d="M12.9783163,103.592687 L11.107568,105.463435 C10.7568027,105.814201 10.7568027,106.39881 11.107568,106.632653 C11.2244898,106.749575 11.4583333,106.866497 11.6921769,106.866497 C11.9260204,106.866497 12.1598639,106.749575 12.2767857,106.632653 L14.147534,104.761905 C14.4982993,104.411139 14.4982993,103.826531 14.147534,103.592687 C13.7967687,103.241922 13.3290816,103.241922 12.9783163,103.592687 Z" id="Shape"></path>
                <path d="M115.869473,15.4336735 C118.090986,15.4336735 119.844813,13.6798469 119.844813,11.4583333 C119.844813,9.23681973 118.090986,7.4829932 115.869473,7.4829932 C113.647959,7.4829932 111.894133,9.23681973 111.894133,11.4583333 C111.894133,13.6798469 113.531037,15.4336735 115.869473,15.4336735 Z M115.869473,9.23681973 C117.03869,9.23681973 118.090986,10.1721939 118.090986,11.4583333 C118.090986,12.627551 117.155612,13.6798469 115.869473,13.6798469 C114.700255,13.6798469 113.647959,12.7444728 113.647959,11.4583333 C113.531037,10.2891156 114.466412,9.23681973 115.869473,9.23681973 Z" id="Shape"></path>
                <path d="M35.0765306,125.924745 C32.855017,125.924745 31.1011905,127.678571 31.1011905,129.900085 C31.1011905,132.121599 32.855017,133.875425 35.0765306,133.875425 C37.2980442,133.875425 39.0518707,132.121599 39.0518707,129.900085 C39.0518707,127.678571 37.2980442,125.924745 35.0765306,125.924745 Z M35.0765306,132.121599 C33.9073129,132.121599 32.855017,131.186224 32.855017,129.900085 C32.855017,128.730867 33.7903912,127.678571 35.0765306,127.678571 C36.2457483,127.678571 37.2980442,128.613946 37.2980442,129.900085 C37.2980442,131.069303 36.3626701,132.121599 35.0765306,132.121599 Z" id="Shape"></path>
                <path d="M21.2797619,15.667517 C21.2797619,16.1352041 21.6305272,16.4859694 22.0982143,16.4859694 L36.5965136,16.4859694 C37.0642007,16.4859694 37.414966,16.1352041 37.414966,15.667517 C37.414966,15.1998299 37.0642007,14.8490646 36.5965136,14.8490646 L22.0982143,14.8490646 C21.6305272,14.7321429 21.2797619,15.1998299 21.2797619,15.667517 Z" id="Shape"></path>
                <path d="M12.627551,16.4859694 L17.3044218,16.4859694 C17.7721088,16.4859694 18.1228741,16.1352041 18.1228741,15.667517 C18.1228741,15.1998299 17.7721088,14.8490646 17.3044218,14.8490646 L12.627551,14.8490646 C12.1598639,14.8490646 11.8090986,15.1998299 11.8090986,15.667517 C11.8090986,16.1352041 12.1598639,16.4859694 12.627551,16.4859694 Z" id="Shape"></path>
                <path d="M12.627551,11.4583333 L22.7997449,11.4583333 C23.267432,11.4583333 23.6181973,11.107568 23.6181973,10.639881 C23.6181973,10.1721939 23.267432,9.82142857 22.7997449,9.82142857 L12.627551,9.82142857 C12.1598639,9.82142857 11.8090986,10.1721939 11.8090986,10.639881 C11.8090986,11.107568 12.1598639,11.4583333 12.627551,11.4583333 Z" id="Shape"></path>
                <path d="M27.1258503,11.4583333 L30.3996599,11.4583333 C30.8673469,11.4583333 31.2181122,11.107568 31.2181122,10.639881 C31.2181122,10.1721939 30.8673469,9.82142857 30.3996599,9.82142857 L27.1258503,9.82142857 C26.6581633,9.82142857 26.307398,10.1721939 26.307398,10.639881 C26.307398,11.107568 26.6581633,11.4583333 27.1258503,11.4583333 Z" id="Shape"></path>
                <path d="M125.223214,126.743197 C125.223214,126.27551 124.872449,125.924745 124.404762,125.924745 L109.789541,125.924745 C109.321854,125.924745 108.971088,126.27551 108.971088,126.743197 C108.971088,127.210884 109.321854,127.56165 109.789541,127.56165 L124.28784,127.56165 C124.872449,127.56165 125.223214,127.210884 125.223214,126.743197 Z" id="Shape"></path>
                <path d="M133.758503,125.924745 L129.081633,125.924745 C128.613946,125.924745 128.26318,126.27551 128.26318,126.743197 C128.26318,127.210884 128.613946,127.56165 129.081633,127.56165 L133.758503,127.56165 C134.22619,127.56165 134.576956,127.210884 134.576956,126.743197 C134.693878,126.27551 134.22619,125.924745 133.758503,125.924745 Z" id="Shape"></path>
                <path d="M133.758503,130.835459 L123.58631,130.835459 C123.118622,130.835459 122.767857,131.186224 122.767857,131.653912 C122.767857,132.121599 123.118622,132.472364 123.58631,132.472364 L133.758503,132.472364 C134.22619,132.472364 134.576956,132.121599 134.576956,131.653912 C134.693878,131.303146 134.22619,130.835459 133.758503,130.835459 Z" id="Shape"></path>
                <path d="M119.377126,130.835459 L116.103316,130.835459 C115.635629,130.835459 115.284864,131.186224 115.284864,131.653912 C115.284864,132.121599 115.635629,132.472364 116.103316,132.472364 L119.377126,132.472364 C119.844813,132.472364 120.195578,132.121599 120.195578,131.653912 C120.195578,131.303146 119.844813,130.835459 119.377126,130.835459 Z" id="Shape"></path>
                <path d="M148.958333,79.389881 C148.72449,79.0391156 148.139881,78.9221939 147.789116,79.1560374 C142.059949,83.0144558 136.330782,87.2236395 130.835459,91.4328231 C129.783163,92.2512755 128.613946,92.6020408 127.56165,92.485119 C127.093963,92.3681973 126.392432,92.1343537 125.924745,91.5497449 L106.515731,63.2546769 C106.048044,62.5531463 106.048044,61.8516156 106.164966,61.3839286 C106.39881,60.3316327 107.217262,59.2793367 108.269558,58.6947279 C112.36182,56.2393707 116.454082,53.5501701 120.429422,50.9778912 C120.780187,50.7440476 120.897109,50.1594388 120.663265,49.8086735 C120.429422,49.4579082 119.844813,49.3409864 119.494048,49.5748299 C115.518707,52.1471088 111.426446,54.8363095 107.334184,57.2916667 C105.931122,58.110119 104.878827,59.3962585 104.528061,60.7993197 L68.8669218,60.7993197 L66.1777211,60.7993197 L45.1318027,60.7993197 C44.7810374,59.3962585 43.7287415,58.110119 42.3256803,57.2916667 C38.2334184,54.8363095 34.1411565,52.2640306 30.1658163,49.5748299 C29.815051,49.3409864 29.2304422,49.4579082 28.9965986,49.8086735 C28.7627551,50.1594388 28.8796769,50.7440476 29.2304422,50.9778912 C33.2057823,53.6670918 37.2980442,56.2393707 41.3903061,58.6947279 C42.442602,59.3962585 43.2610544,60.3316327 43.494898,61.3839286 L43.494898,61.6177721 C43.494898,61.7346939 43.494898,61.9685374 43.6118197,62.0854592 C43.6118197,62.4362245 43.494898,62.9039116 43.2610544,63.2546769 L23.8520408,91.5497449 C23.3843537,92.2512755 22.6828231,92.485119 22.2151361,92.485119 C21.1628401,92.6020408 19.8767007,92.2512755 18.9413265,91.4328231 C13.3290816,87.1067177 7.59991497,83.0144558 1.98767007,79.1560374 C1.63690476,78.9221939 1.05229592,79.0391156 0.818452381,79.389881 C0.584608844,79.7406463 0.701530612,80.3252551 1.05229592,80.5590986 C6.66454082,84.417517 12.3937075,88.5097789 17.8890306,92.8358844 C19.0582483,93.7712585 20.4613095,94.2389456 21.747449,94.2389456 C21.9812925,94.2389456 22.2151361,94.2389456 22.5659014,94.1220238 C23.735119,93.8881803 24.6704932,93.3035714 25.255102,92.485119 L27.2427721,89.6789966 C28.4119898,90.6143707 30.8673469,92.7189626 31.9196429,94.9404762 C32.2704082,95.525085 32.3873299,95.9927721 32.6211735,96.4604592 C32.7380952,96.8112245 32.855017,97.045068 33.0888605,97.3958333 C32.6211735,97.7465986 32.1534864,98.2142857 31.6857993,98.6819728 L30.2827381,100.669643 C28.5289116,103.125 28.9965986,106.515731 31.4519558,108.38648 L33.6734694,110.023384 C34.6088435,110.724915 35.7780612,111.07568 36.9472789,111.07568 C37.1811224,111.07568 37.5318878,111.07568 37.7657313,110.958759 C37.9995748,110.958759 38.2334184,110.841837 38.4672619,110.724915 C38.2334184,112.712585 38.934949,114.817177 40.6887755,116.103316 L42.6764456,117.623299 L42.6764456,117.623299 C43.6118197,118.32483 44.7810374,118.675595 46.0671769,118.675595 C46.3010204,118.675595 46.6517857,118.675595 46.8856293,118.558673 C47.3533163,118.441752 47.7040816,118.32483 48.1717687,118.207908 L48.1717687,119.494048 C48.4056122,121.014031 49.2240646,122.30017 50.3932823,123.235544 L52.3809524,124.755527 L52.3809524,124.755527 C53.3163265,125.457058 54.4855442,125.807823 55.7716837,125.807823 C56.0055272,125.807823 56.3562925,125.807823 56.5901361,125.690901 C57.1747449,125.57398 57.642432,125.457058 58.110119,125.223214 C58.110119,126.860119 58.8116497,128.380102 60.0977891,129.432398 L61.8516156,130.718537 C62.670068,131.420068 63.7223639,131.653912 64.7746599,131.653912 L65.4761905,131.653912 C66.7623299,131.420068 67.9315476,130.718537 68.75,129.666241 L69.8022959,128.26318 C69.9192177,128.380102 69.9192177,128.613946 70.1530612,128.730867 C71.4392007,129.54932 72.8422619,130.017007 74.2453231,130.017007 C76.5837585,130.017007 78.8052721,128.964711 80.2083333,126.860119 C81.4944728,124.989371 81.7283163,122.767857 81.1437075,120.780187 L84.7682823,123.352466 C85.9375,124.170918 87.3405612,124.638605 88.8605442,124.638605 C89.3282313,124.638605 89.7959184,124.638605 90.1466837,124.521684 C92.017432,124.170918 93.6543367,123.118622 94.7066327,121.481718 C95.7589286,119.844813 96.2266156,117.974065 95.8758503,116.103316 C95.8758503,115.869473 95.7589286,115.752551 95.7589286,115.518707 L97.8635204,116.921769 C99.0327381,117.740221 100.435799,118.207908 101.955782,118.207908 C102.423469,118.207908 102.891156,118.207908 103.241922,118.090986 C105.11267,117.740221 106.749575,116.687925 107.801871,115.05102 C108.854167,113.414116 109.321854,111.543367 108.971088,109.672619 C108.971088,109.438776 108.854167,109.321854 108.854167,109.08801 L111.543367,110.841837 C112.712585,111.660289 114.115646,112.127976 115.635629,112.127976 C116.103316,112.127976 116.571003,112.127976 116.921769,112.011054 C118.792517,111.660289 120.429422,110.607993 121.481718,108.971088 C122.534014,107.334184 123.001701,105.463435 122.650935,103.592687 C122.30017,101.721939 121.247874,100.085034 119.610969,99.0327381 L94.005102,81.8452381 C93.7712585,81.7283163 93.537415,81.7283163 93.3035714,81.7283163 L88.8605442,81.7283163 C79.5068027,81.7283163 78.337585,74.1284014 78.2206633,73.7776361 C78.2206633,73.309949 77.7529762,73.0761054 77.4022109,73.0761054 L62.4362245,73.0761054 C61.9685374,73.0761054 61.6177721,73.4268707 61.6177721,73.7776361 C60.7993197,78.2206633 59.2793367,81.2606293 56.8239796,82.7806122 C54.9532313,83.9498299 53.082483,83.8329082 52.1471088,83.7159864 L52.1471088,70.3869048 L66.4115646,62.4362245 L68.8669218,62.4362245 L104.411139,62.4362245 C104.528061,63.0208333 104.644983,63.7223639 104.995748,64.190051 L124.404762,92.485119 C124.989371,93.4204932 126.041667,94.005102 127.093963,94.1220238 C127.327806,94.1220238 127.56165,94.2389456 127.912415,94.2389456 C129.198554,94.2389456 130.601616,93.7712585 131.770833,92.8358844 C137.266156,88.6267007 142.995323,84.417517 148.607568,80.5590986 C149.075255,80.3252551 149.192177,79.7406463 148.958333,79.389881 Z M37.414966,109.321854 C36.4795918,109.438776 35.4272959,109.204932 34.6088435,108.620323 L34.6088435,108.620323 L32.3873299,106.983418 C30.7504252,105.697279 30.3996599,103.358844 31.5688776,101.721939 L32.9719388,99.7342687 C33.3227041,99.2665816 33.9073129,98.7988946 34.375,98.565051 L34.4919218,98.565051 L34.4919218,98.565051 C34.7257653,98.4481293 35.0765306,98.3312075 35.4272959,98.3312075 L36.0119048,98.3312075 C36.8303571,98.3312075 37.5318878,98.565051 38.2334184,99.0327381 L40.454932,100.669643 C41.2733844,101.254252 41.7410714,102.189626 41.974915,103.125 C42.0918367,103.826531 41.974915,104.528061 41.7410714,105.11267 L39.4026361,108.269558 C39.4026361,108.269558 39.4026361,108.38648 39.2857143,108.38648 C38.8180272,108.854167 38.1164966,109.204932 37.414966,109.321854 Z M46.5348639,116.921769 C45.482568,117.03869 44.4302721,116.804847 43.6118197,116.220238 L43.6118197,116.220238 L41.6241497,114.700255 C39.9872449,113.531037 39.6364796,111.192602 40.6887755,109.438776 C40.922619,109.204932 41.1564626,108.971088 41.2733844,108.737245 L42.6764456,106.749575 C42.9102891,106.39881 43.1441327,106.164966 43.2610544,105.814201 L44.8979592,103.592687 C45.7164116,102.540391 46.8856293,101.955782 48.0548469,101.955782 C48.8732993,101.955782 49.6917517,102.189626 50.3932823,102.774235 L52.3809524,104.294218 C54.1347789,105.580357 54.4855442,108.035714 53.1994048,109.789541 L49.1071429,115.401786 C48.522534,116.220238 47.5871599,116.804847 46.5348639,116.921769 Z M56.2393707,124.170918 C55.1870748,124.28784 54.1347789,124.053997 53.3163265,123.469388 L53.3163265,123.469388 L51.3286565,121.949405 C50.5102041,121.364796 49.9255952,120.429422 49.8086735,119.377126 C49.6917517,118.32483 49.9255952,117.272534 50.5102041,116.454082 L57.0578231,107.684949 C57.642432,106.866497 58.5778061,106.281888 59.630102,106.164966 L60.2147109,106.164966 C61.0331633,106.164966 61.8516156,106.39881 62.5531463,106.983418 L64.5408163,108.503401 C66.2946429,109.789541 66.6454082,112.244898 65.3592687,113.998724 L58.8116497,122.767857 C58.110119,123.469388 57.2916667,123.937075 56.2393707,124.170918 Z M67.4638605,128.730867 C66.9961735,129.432398 66.1777211,129.900085 65.2423469,130.017007 C64.4238946,130.133929 63.4885204,129.900085 62.7869898,129.432398 L62.7869898,129.432398 L61.0331633,128.146259 C59.5131803,127.093963 59.2793367,124.989371 60.3316327,123.469388 L62.3193027,120.780187 C62.7869898,120.078656 63.6054422,119.610969 64.5408163,119.494048 L65.0085034,119.494048 C65.710034,119.494048 66.4115646,119.727891 66.9961735,120.195578 L68.75,121.481718 C70.269983,122.534014 70.5038265,124.638605 69.4515306,126.158588 L67.4638605,128.730867 Z M50.8609694,69.2176871 C50.6271259,69.3346088 50.3932823,69.6853741 50.3932823,69.9192177 L50.3932823,84.3005952 C50.3932823,84.6513605 50.6271259,85.0021259 50.9778912,85.1190476 C51.0948129,85.1190476 51.9132653,85.4698129 53.1994048,85.4698129 C54.3686224,85.4698129 56.0055272,85.2359694 57.642432,84.3005952 C60.3316327,82.6636905 62.202381,79.5068027 63.1377551,74.829932 L76.5837585,74.829932 C77.1683673,77.0514456 79.6237245,83.4821429 88.7436224,83.4821429 L93.3035714,83.4821429 L93.3035714,83.4821429 L118.558673,100.786565 C119.727891,101.605017 120.546344,102.891156 120.780187,104.294218 C121.014031,105.697279 120.780187,107.217262 119.961735,108.38648 C119.143282,109.555697 117.857143,110.37415 116.454082,110.607993 C115.05102,110.841837 113.531037,110.607993 112.36182,109.789541 L105.931122,105.463435 L105.931122,105.463435 L87.8082483,92.9528061 C87.457483,92.7189626 86.8728741,92.8358844 86.6390306,93.1866497 C86.4051871,93.537415 86.5221088,94.1220238 86.8728741,94.3558673 L104.995748,106.749575 C106.164966,107.568027 106.983418,108.854167 107.217262,110.257228 C107.451105,111.660289 107.217262,113.180272 106.39881,114.34949 C104.644983,116.804847 101.254252,117.506378 98.7988946,115.752551 L80.6760204,103.358844 C80.3252551,103.125 79.857568,103.241922 79.5068027,103.475765 C79.389881,103.592687 79.2729592,103.592687 79.2729592,103.709609 C79.0391156,104.060374 79.1560374,104.644983 79.5068027,104.878827 L91.9005102,113.06335 C93.0697279,113.881803 93.8881803,115.167942 94.1220238,116.571003 C94.3558673,117.974065 94.1220238,119.494048 93.3035714,120.663265 C92.485119,121.832483 91.1989796,122.650935 89.7959184,122.884779 C88.3928571,123.118622 86.8728741,122.884779 85.7036565,122.066327 L74.0114796,113.764881 C73.6607143,113.531037 73.0761054,113.531037 72.8422619,113.998724 C72.6084184,114.34949 72.6084184,114.934099 73.0761054,115.167942 L76.9345238,117.974065 C77.0514456,118.090986 77.0514456,118.32483 77.2852891,118.32483 C79.7406463,120.078656 80.4421769,123.469388 78.6883503,125.924745 C76.9345238,128.380102 73.5437925,129.081633 71.0884354,127.327806 C70.9715136,127.210884 70.8545918,127.210884 70.6207483,127.210884 L70.7376701,126.977041 C72.3745748,124.755527 71.9068878,121.598639 69.6853741,119.961735 L67.9315476,118.675595 C66.8792517,117.857143 65.5931122,117.623299 64.4238946,117.740221 L66.6454082,114.817177 C68.5161565,112.36182 67.9315476,108.737245 65.4761905,106.983418 L63.4885204,105.463435 C61.0331633,103.592687 57.5255102,104.177296 55.6547619,106.632653 C55.4209184,105.229592 54.7193878,103.943452 53.4332483,103.008078 L51.4455782,101.488095 C48.9902211,99.7342687 45.5994898,100.201956 43.7287415,102.540391 C43.494898,101.254252 42.7933673,100.085034 41.6241497,99.2665816 L39.4026361,97.6296769 C38.2334184,96.8112245 36.8303571,96.3435374 35.3103741,96.577381 C35.0765306,96.577381 34.8426871,96.6943027 34.6088435,96.6943027 C34.4919218,96.3435374 34.2580782,95.9927721 34.1411565,95.7589286 C33.9073129,95.2912415 33.6734694,94.8235544 33.4396259,94.1220238 C32.1534864,91.5497449 29.3473639,89.2113095 28.1781463,88.1590136 L44.6641156,64.190051 C45.014881,63.6054422 45.2487245,63.0208333 45.2487245,62.4362245 L62.9039116,62.4362245 L50.8609694,69.2176871 Z" id="Shape"></path>
                <path d="M129.54932,83.1313776 C131.53699,83.1313776 133.290816,81.4944728 133.290816,79.389881 C133.290816,77.4022109 131.653912,75.6483844 129.54932,75.6483844 C127.56165,75.6483844 125.807823,77.2852891 125.807823,79.389881 C125.807823,81.4944728 127.56165,83.1313776 129.54932,83.1313776 Z M129.54932,77.4022109 C130.601616,77.4022109 131.53699,78.337585 131.53699,79.389881 C131.53699,80.4421769 130.601616,81.377551 129.54932,81.377551 C128.497024,81.377551 127.56165,80.4421769 127.56165,79.389881 C127.56165,78.337585 128.497024,77.4022109 129.54932,77.4022109 Z" id="Shape"></path>
                <path d="M16.3690476,79.389881 C16.3690476,81.377551 18.0059524,83.1313776 20.1105442,83.1313776 C22.0982143,83.1313776 23.8520408,81.4944728 23.8520408,79.389881 C23.8520408,77.4022109 22.2151361,75.6483844 20.1105442,75.6483844 C18.0059524,75.7653061 16.3690476,77.4022109 16.3690476,79.389881 Z M22.0982143,79.389881 C22.0982143,80.4421769 21.1628401,81.377551 20.1105442,81.377551 C19.0582483,81.377551 18.1228741,80.4421769 18.1228741,79.389881 C18.1228741,78.337585 19.0582483,77.4022109 20.1105442,77.4022109 C21.1628401,77.4022109 22.0982143,78.337585 22.0982143,79.389881 Z" id="Shape"></path>
                <path d="M113.06335,60.9162415 C112.712585,61.150085 112.595663,61.7346939 112.829507,62.0854592 L117.389456,68.8669218 C117.506378,69.1007653 117.857143,69.2176871 118.090986,69.2176871 C118.207908,69.2176871 118.441752,69.2176871 118.558673,69.1007653 C118.909439,68.8669218 119.026361,68.2823129 118.792517,67.9315476 L114.232568,61.150085 C113.998724,60.682398 113.414116,60.5654762 113.06335,60.9162415 Z" id="Shape"></path>
                <path d="M32.7380952,68.8669218 L37.2980442,62.0854592 C37.5318878,61.7346939 37.414966,61.150085 37.0642007,60.9162415 C36.7134354,60.682398 36.1288265,60.7993197 35.894983,61.150085 L31.335034,67.9315476 C31.1011905,68.2823129 31.2181122,68.8669218 31.5688776,69.1007653 C31.6857993,69.2176871 31.9196429,69.2176871 32.0365646,69.2176871 C32.2704082,69.2176871 32.6211735,69.1007653 32.7380952,68.8669218 Z" id="Shape"></path>
                <path d="M48.9902211,26.5412415 C48.8732993,40.8056973 60.4485544,52.6147959 74.7130102,52.6147959 L74.7130102,52.6147959 L74.829932,52.6147959 C81.7283163,52.6147959 88.1590136,49.9255952 93.0697279,45.1318027 C95.8758503,42.442602 97.8635204,39.1687925 99.1496599,35.6611395 C99.1496599,35.5442177 99.2665816,35.5442177 99.2665816,35.4272959 C100.201956,32.7380952 100.786565,29.815051 100.786565,26.775085 C100.903486,12.5106293 89.3282313,0.701530612 75.0637755,0.701530612 L75.0637755,0.701530612 L74.9468537,0.701530612 C60.682398,0.701530612 48.9902211,12.2767857 48.9902211,26.5412415 Z M85.0021259,26.775085 C85.0021259,29.3473639 84.7682823,31.9196429 84.417517,34.2580782 L65.2423469,34.1411565 C64.8915816,31.8027211 64.7746599,29.2304422 64.7746599,26.5412415 C64.7746599,23.9689626 65.0085034,21.3966837 65.3592687,19.0582483 L84.5344388,19.1751701 C84.8852041,21.6305272 85.0021259,24.0858844 85.0021259,26.775085 Z M63.4885204,34.1411565 L51.9132653,34.0242347 C51.0948129,31.6857993 50.7440476,29.1135204 50.7440476,26.4243197 C50.7440476,23.735119 51.2117347,21.2797619 52.0301871,18.9413265 L63.6054422,19.0582483 C63.2546769,21.3966837 63.0208333,23.9689626 63.0208333,26.5412415 C63.0208333,29.2304422 63.1377551,31.8027211 63.4885204,34.1411565 Z M52.4978741,35.7780612 L63.7223639,35.894983 C64.7746599,42.3256803 66.9961735,47.4702381 69.8022959,50.2763605 C61.9685374,48.6394558 55.5378401,43.1441327 52.4978741,35.7780612 Z M65.4761905,35.894983 L84.1836735,36.0119048 C83.5990646,39.0518707 82.7806122,41.7410714 81.7283163,44.0795068 C79.857568,48.4056122 77.2852891,50.8609694 74.7130102,50.8609694 L74.7130102,50.8609694 C70.6207483,50.8609694 66.9961735,44.5471939 65.4761905,35.894983 Z M91.9005102,43.8456633 C88.5097789,47.2363946 84.3005952,49.4579082 79.7406463,50.2763605 C81.1437075,48.9902211 82.3129252,47.1194728 83.4821429,44.6641156 C84.6513605,42.0918367 85.4698129,39.1687925 86.0544218,35.894983 L97.2789116,36.0119048 C95.9927721,38.934949 94.1220238,41.6241497 91.9005102,43.8456633 Z M97.8635204,34.375 L86.2882653,34.2580782 C86.6390306,31.8027211 86.8728741,29.3473639 86.8728741,26.775085 C86.8728741,24.0858844 86.7559524,21.6305272 86.4051871,19.1751701 L97.9804422,19.2920918 C98.7988946,21.6305272 99.1496599,24.2028061 99.1496599,26.8920068 C99.0327381,29.4642857 98.565051,31.9196429 97.8635204,34.375 Z M97.2789116,17.5382653 L86.0544218,17.4213435 C85.0021259,10.9906463 82.7806122,5.84608844 79.9744898,3.03996599 C87.8082483,4.67687075 94.2389456,10.2891156 97.2789116,17.5382653 Z M75.0637755,2.45535714 C79.1560374,2.45535714 82.7806122,8.76913265 84.3005952,17.4213435 L65.5931122,17.3044218 C67.230017,8.65221088 70.9715136,2.45535714 75.0637755,2.45535714 L75.0637755,2.45535714 Z M70.1530612,2.92304422 C67.230017,5.72916667 65.0085034,10.8737245 63.8392857,17.3044218 L52.6147959,17.1875 C55.7716837,9.93835034 62.202381,4.55994898 70.1530612,2.92304422 Z" id="Shape"></path>
            </g>
        </g>
    </g>
</svg>