<?xml version="1.0" encoding="UTF-8"?>
<svg width="71px" height="61px" viewBox="0 0 71 61" version="1.1" xmlns="http://www.w3.org/2000/svg" xmlns:xlink="http://www.w3.org/1999/xlink">
    <!-- Generator: Sketch 41.2 (35397) - http://www.bohemiancoding.com/sketch -->
    <title>mission-icon</title>
    <desc>Created with Sketch.</desc>
    <defs></defs>
    <g id="Page-1" stroke="none" stroke-width="1" fill="none" fill-rule="evenodd">
        <g id="TopCourses_Aboutus_1366px" transform="translate(-162.000000, -3362.000000)">
            <g id="Group-3" transform="translate(162.000000, 3362.000000)">
                <g id="mission-icon">
                    <path d="M44.487,49.737 C44.223,49.296 43.758,49.031 43.244,49.031 L41.131,49.031 C40.616,49.031 40.152,49.296 39.887,49.737 C39.623,50.179 39.612,50.714 39.856,51.168 L41.502,54.221 C41.777,54.735 42.596,54.734 42.872,54.222 L42.872,54.221 L44.518,51.167 C44.763,50.714 44.751,50.18 44.487,49.737 Z" id="Shape"></path>
                    <path d="M19.994,18.121 C20.509,18.121 20.974,17.856 21.238,17.415 C21.502,16.973 21.513,16.438 21.269,15.986 L19.623,12.932 C19.485,12.675 19.229,12.523 18.938,12.523 C18.647,12.523 18.391,12.675 18.253,12.931 L18.253,12.932 L16.607,15.986 C16.363,16.438 16.375,16.972 16.638,17.415 C16.902,17.856 17.367,18.121 17.881,18.121 L19.994,18.121 L19.994,18.121 Z" id="Shape"></path>
                    <path d="M55.7,17.467 L55.7,5.576 C55.7,3.195 53.763,1.258 51.383,1.258 L22.073,1.258 C19.692,1.258 17.755,3.196 17.755,5.576 L17.755,6.212 L45.217,6.212 C48.259,6.212 50.735,8.692 50.735,11.741 L50.735,20.509 L55.7,17.467 Z" id="Shape"></path>
                    <path d="M16.792,22.444 L21.082,22.444 C21.414,22.444 21.682,22.175 21.682,21.844 C21.682,21.513 21.413,21.244 21.082,21.244 L16.792,21.244 C16.46,21.244 16.192,21.513 16.192,21.844 C16.192,22.175 16.46,22.444 16.792,22.444 Z" id="Shape" fill="#1B6DA3"></path>
                    <path d="M44.332,45.908 C44.664,45.908 44.932,45.639 44.932,45.308 C44.932,44.977 44.663,44.708 44.332,44.708 L40.042,44.708 C39.71,44.708 39.442,44.977 39.442,45.308 C39.442,45.639 39.711,45.908 40.042,45.908 L44.332,45.908 Z" id="Shape" fill="#1B6DA3"></path>
                    <path d="M70.366,11.706 L67.301,10.624 L67.301,7.174 C67.301,6.95 67.176,6.745 66.979,6.642 C66.781,6.54 66.542,6.554 66.358,6.682 L61.821,9.842 C61.811,9.849 61.808,9.86 61.799,9.867 C61.739,9.914 61.69,9.969 61.651,10.035 C61.645,10.046 61.636,10.055 61.63,10.066 C61.589,10.147 61.56,10.236 61.56,10.333 L61.56,13.875 L56.9,16.731 L56.9,5.576 C56.9,2.533 54.425,0.058 51.382,0.058 L22.072,0.058 C19.03,0.058 16.554,2.533 16.554,5.576 L16.554,6.212 L15.907,6.212 C12.865,6.212 10.389,8.692 10.389,11.741 L10.389,55.412 C10.389,58.461 12.864,60.941 15.907,60.941 L45.217,60.941 C48.259,60.941 50.735,58.461 50.735,55.412 L50.735,54.776 L51.382,54.776 C54.424,54.776 56.9,52.296 56.9,49.247 L56.9,26.077 C56.9,25.746 56.631,25.477 56.3,25.477 C55.969,25.477 55.7,25.746 55.7,26.077 L55.7,49.247 C55.7,51.635 53.763,53.577 51.383,53.577 L50.736,53.577 L50.736,28.107 C50.736,27.776 50.467,27.507 50.136,27.507 C49.805,27.507 49.536,27.776 49.536,28.107 L49.536,55.412 C49.536,57.8 47.599,59.742 45.218,59.742 L15.908,59.742 C13.527,59.742 11.591,57.8 11.591,55.412 L11.591,11.741 C11.591,9.353 13.528,7.411 15.908,7.411 L45.218,7.411 C47.599,7.411 49.536,9.353 49.536,11.741 L49.536,21.245 L39.035,27.68 C38.687,27.181 38.308,26.701 37.873,26.266 C35.921,24.314 33.325,23.24 30.561,23.24 C27.797,23.24 25.201,24.314 23.25,26.266 C21.298,28.217 20.224,30.814 20.224,33.577 C20.224,39.277 24.861,43.914 30.561,43.914 C33.325,43.914 35.921,42.84 37.873,40.889 C39.825,38.938 40.899,36.341 40.899,33.577 C40.899,33.223 40.885,32.883 40.846,32.543 C40.808,32.213 40.511,31.977 40.181,32.016 C39.852,32.054 39.616,32.351 39.654,32.68 C39.688,32.975 39.699,33.271 39.699,33.577 C39.699,36.02 38.749,38.315 37.025,40.041 C35.301,41.765 33.005,42.715 30.562,42.715 C25.524,42.715 21.425,38.615 21.425,33.577 C21.425,31.135 22.375,28.84 24.1,27.114 C25.825,25.389 28.12,24.439 30.562,24.439 C33.004,24.439 35.3,25.389 37.025,27.114 C37.393,27.483 37.715,27.888 38.012,28.308 L34.505,30.457 C34.383,30.303 34.255,30.159 34.121,30.025 C33.176,29.065 31.912,28.537 30.562,28.537 C29.212,28.537 27.948,29.065 27.01,30.018 C26.051,30.962 25.522,32.226 25.522,33.577 C25.522,36.356 27.783,38.617 30.563,38.617 C31.914,38.617 33.178,38.089 34.119,37.133 C34.861,36.391 35.346,35.472 35.521,34.477 C35.579,34.151 35.36,33.84 35.034,33.783 C34.702,33.728 34.396,33.943 34.339,34.27 C34.207,35.021 33.837,35.717 33.267,36.289 C32.549,37.018 31.589,37.419 30.562,37.419 C28.444,37.419 26.722,35.695 26.722,33.578 C26.722,32.552 27.123,31.592 27.859,30.868 C28.576,30.139 29.537,29.737 30.563,29.737 C31.589,29.737 32.549,30.139 33.271,30.872 C33.339,30.94 33.403,31.018 33.468,31.094 L30.25,33.066 C29.967,33.239 29.878,33.608 30.051,33.891 C30.164,34.076 30.361,34.177 30.563,34.177 C30.67,34.177 30.778,34.149 30.876,34.089 L34.639,31.783 C34.646,31.779 34.654,31.779 34.661,31.775 C34.667,31.771 34.671,31.764 34.677,31.76 L39.177,29.002 C39.177,29 39.179,29 39.181,28.999 C39.183,28.998 39.184,28.996 39.185,28.995 L62.235,14.87 L65.429,15.998 C65.495,16.021 65.562,16.033 65.629,16.033 C65.876,16.033 66.108,15.879 66.195,15.633 C66.305,15.32 66.141,14.978 65.829,14.867 L62.764,13.785 L62.764,10.649 L66.101,8.325 L66.101,11.05 C66.101,11.056 66.104,11.061 66.104,11.067 C66.105,11.112 66.119,11.152 66.13,11.195 C66.139,11.229 66.142,11.264 66.156,11.295 C66.171,11.329 66.197,11.356 66.218,11.387 C66.241,11.419 66.26,11.454 66.288,11.481 C66.312,11.504 66.343,11.518 66.371,11.537 C66.408,11.562 66.443,11.589 66.486,11.605 C66.492,11.607 66.496,11.612 66.501,11.614 L69.967,12.838 C70.033,12.861 70.1,12.873 70.167,12.873 C70.414,12.873 70.646,12.719 70.733,12.473 C70.843,12.159 70.679,11.816 70.366,11.706 Z M45.217,6.212 L17.755,6.212 L17.755,5.576 C17.755,3.195 19.692,1.258 22.073,1.258 L51.383,1.258 C53.764,1.258 55.7,3.196 55.7,5.576 L55.7,17.467 L50.735,20.51 L50.735,11.742 C50.735,8.692 48.259,6.212 45.217,6.212 Z" id="Shape" fill="#1B6DA3"></path>
                    <path d="M1.434,32.574 C1.434,30.114 1.863,27.715 2.71,25.443 C2.826,25.132 2.668,24.787 2.357,24.671 C2.05,24.557 1.701,24.713 1.586,25.024 C0.689,27.431 0.233,29.971 0.233,32.575 C0.233,35.179 0.692,37.721 1.598,40.134 C1.688,40.374 1.917,40.524 2.16,40.524 C2.23,40.524 2.302,40.511 2.371,40.485 C2.681,40.369 2.838,40.023 2.722,39.713 C1.867,37.435 1.434,35.033 1.434,32.574 Z" id="Shape" fill="#1B6DA3"></path>
                    <path d="M5.548,32.576 C5.548,31.493 5.737,30.436 6.11,29.436 C6.226,29.125 6.068,28.78 5.757,28.664 C5.45,28.551 5.101,28.706 4.986,29.017 C4.563,30.153 4.348,31.35 4.348,32.577 C4.348,33.805 4.564,35.004 4.992,36.14 C5.082,36.38 5.311,36.53 5.554,36.53 C5.624,36.53 5.696,36.517 5.765,36.491 C6.075,36.375 6.232,36.029 6.116,35.719 C5.738,34.717 5.548,33.659 5.548,32.576 Z" id="Shape" fill="#1B6DA3"></path>
                    <path d="M64.919,24.672 C64.609,24.788 64.452,25.134 64.568,25.444 C65.422,27.72 65.855,30.122 65.855,32.58 C65.855,35.041 65.426,37.44 64.579,39.712 C64.463,40.023 64.621,40.368 64.932,40.484 C65.001,40.509 65.072,40.522 65.141,40.522 C65.384,40.522 65.613,40.373 65.703,40.131 C66.6,37.724 67.056,35.184 67.056,32.579 C67.056,29.976 66.597,27.433 65.692,25.021 C65.576,24.713 65.229,24.556 64.919,24.672 Z" id="Shape" fill="#1B6DA3"></path>
                    <path d="M61.526,28.665 C61.216,28.781 61.059,29.127 61.175,29.437 C61.551,30.439 61.741,31.496 61.741,32.579 C61.741,33.662 61.552,34.719 61.179,35.719 C61.063,36.03 61.221,36.375 61.532,36.491 C61.601,36.516 61.672,36.529 61.741,36.529 C61.984,36.529 62.213,36.38 62.303,36.138 C62.726,35.002 62.941,33.805 62.941,32.578 C62.941,31.35 62.725,30.151 62.297,29.015 C62.182,28.706 61.836,28.548 61.526,28.665 Z" id="Shape" fill="#1B6DA3"></path>
                </g>
            </g>
        </g>
    </g>
</svg>