<?xml version="1.0" encoding="UTF-8"?>
<svg width="150px" height="133px" viewBox="0 0 150 133" version="1.1" xmlns="http://www.w3.org/2000/svg" xmlns:xlink="http://www.w3.org/1999/xlink">
    <!-- Generator: Sketch 41.2 (35397) - http://www.bohemiancoding.com/sketch -->
    <title>nghiencuuvaphatrien-icon</title>
    <desc>Created with Sketch.</desc>
    <defs></defs>
    <g id="Page-1" stroke="none" stroke-width="1" fill="none" fill-rule="evenodd">
        <g id="TopCourses_Aboutus_1366px" transform="translate(-221.000000, -2287.000000)" stroke="#1B6DA3" stroke-width="0.5" fill="#1B6DA3">
            <g id="nghiencuuvaphatrien-icon" transform="translate(221.000000, 2288.000000)">
                <path d="M11.484375,52.3828125 L11.484375,64.5703125 C11.484375,65.0390625 11.8359375,65.5078125 12.421875,65.5078125 C12.890625,65.5078125 13.359375,65.15625 13.359375,64.5703125 L13.359375,52.3828125 C13.359375,51.9140625 13.0078125,51.4453125 12.421875,51.4453125 C11.8359375,51.4453125 11.484375,51.796875 11.484375,52.3828125 Z" id="Shape"></path>
                <path d="M12.421875,73.359375 C12.890625,73.359375 13.359375,73.0078125 13.359375,72.421875 L13.359375,68.4375 C13.359375,67.96875 13.0078125,67.5 12.421875,67.5 C11.953125,67.5 11.484375,67.8515625 11.484375,68.4375 L11.484375,72.421875 C11.484375,73.0078125 11.8359375,73.359375 12.421875,73.359375 Z" id="Shape"></path>
                <path d="M141.679688,59.296875 C142.148438,59.296875 142.617188,58.9453125 142.617188,58.359375 L142.617188,46.171875 C142.617188,45.703125 142.265625,45.234375 141.679688,45.234375 C141.210938,45.234375 140.742188,45.5859375 140.742188,46.171875 L140.742188,58.359375 C140.742187,58.828125 141.09375,59.296875 141.679688,59.296875 Z" id="Shape"></path>
                <path d="M141.796875,67.3828125 C142.265625,67.3828125 142.734375,67.03125 142.734375,66.4453125 L142.734375,62.4609375 C142.617187,61.875 142.265625,61.5234375 141.796875,61.5234375 C141.328125,61.5234375 140.859375,61.875 140.859375,62.4609375 L140.859375,66.4453125 C140.859375,66.9140625 141.210938,67.3828125 141.796875,67.3828125 Z" id="Shape"></path>
                <path d="M7.734375,114.84375 C7.3828125,114.492188 6.796875,114.492188 6.4453125,114.84375 C6.09375,115.195312 6.09375,115.78125 6.4453125,116.132812 L8.203125,117.890625 C8.3203125,118.007812 8.5546875,118.125 8.7890625,118.125 C9.0234375,118.125 9.2578125,118.007812 9.375,117.890625 C9.7265625,117.539062 9.7265625,116.953125 9.375,116.601562 L7.734375,114.84375 Z" id="Shape"></path>
                <path d="M13.2421875,120.351563 C12.890625,120 12.3046875,120 11.953125,120.351563 C11.6015625,120.703125 11.6015625,121.289062 11.953125,121.640625 L13.7109375,123.398438 C13.828125,123.515625 14.0625,123.632812 14.296875,123.632812 C14.53125,123.632812 14.765625,123.515625 14.8828125,123.398438 C15.234375,123.046875 15.234375,122.460938 14.8828125,122.109375 L13.2421875,120.351563 Z" id="Shape"></path>
                <path d="M8.203125,120.351563 L6.4453125,122.109375 C6.09375,122.460938 6.09375,123.046875 6.4453125,123.398438 C6.5625,123.515625 6.796875,123.632812 7.03125,123.632812 C7.265625,123.632812 7.5,123.515625 7.6171875,123.398438 L9.375,121.640625 C9.7265625,121.289062 9.7265625,120.703125 9.375,120.351563 C9.0234375,120 8.4375,120 8.203125,120.351563 Z" id="Shape"></path>
                <path d="M13.7109375,114.84375 L11.953125,116.601562 C11.6015625,116.953125 11.6015625,117.539062 11.953125,117.890625 C12.0703125,118.007812 12.3046875,118.125 12.5390625,118.125 C12.7734375,118.125 13.0078125,118.007812 13.125,117.890625 L14.8828125,116.132812 C15.234375,115.78125 15.234375,115.195312 14.8828125,114.84375 C14.53125,114.492188 14.0625,114.492188 13.7109375,114.84375 Z" id="Shape"></path>
                <path d="M98.671875,109.335938 C98.3203125,108.984375 97.734375,108.984375 97.3828125,109.335938 C97.03125,109.6875 97.03125,110.273438 97.3828125,110.625 L99.140625,112.382812 C99.2578125,112.5 99.4921875,112.617188 99.7265625,112.617188 C99.9609375,112.617188 100.195313,112.5 100.3125,112.382812 C100.664062,112.03125 100.664062,111.445312 100.3125,111.09375 L98.671875,109.335938 Z" id="Shape"></path>
                <path d="M104.179687,114.84375 C103.828125,114.492188 103.242187,114.492188 102.890625,114.84375 C102.539062,115.195312 102.539062,115.78125 102.890625,116.132812 L104.648437,117.890625 C104.765625,118.007812 105,118.125 105.234375,118.125 C105.46875,118.125 105.703125,118.007812 105.820312,117.890625 C106.171875,117.539062 106.171875,116.953125 105.820312,116.601562 L104.179687,114.84375 Z" id="Shape"></path>
                <path d="M99.140625,114.84375 L97.3828125,116.601562 C97.03125,116.953125 97.03125,117.539062 97.3828125,117.890625 C97.5,118.007812 97.734375,118.125 97.96875,118.125 C98.203125,118.125 98.4375,118.007812 98.5546875,117.890625 L100.3125,116.132812 C100.664062,115.78125 100.664062,115.195312 100.3125,114.84375 C100.078125,114.492188 99.4921875,114.492188 99.140625,114.84375 Z" id="Shape"></path>
                <path d="M104.648437,109.335938 L102.890625,111.09375 C102.539062,111.445312 102.539062,112.03125 102.890625,112.382812 C103.007812,112.5 103.242187,112.617188 103.476562,112.617188 C103.710938,112.617188 103.945312,112.5 104.0625,112.382812 L105.820312,110.625 C106.171875,110.273438 106.171875,109.6875 105.820312,109.335938 C105.585937,108.984375 105,108.984375 104.648437,109.335938 Z" id="Shape"></path>
                <path d="M82.8515625,13.7109375 C82.96875,13.828125 83.203125,13.9453125 83.4375,13.9453125 C83.671875,13.9453125 83.90625,13.828125 84.0234375,13.7109375 C84.375,13.359375 84.375,12.7734375 84.0234375,12.421875 L82.265625,10.6640625 C81.9140625,10.3125 81.328125,10.3125 80.9765625,10.6640625 C80.625,11.015625 80.625,11.6015625 80.9765625,11.953125 L82.8515625,13.7109375 Z" id="Shape"></path>
                <path d="M88.359375,19.21875 C88.4765625,19.3359375 88.7109375,19.453125 88.9453125,19.453125 C89.1796875,19.453125 89.4140625,19.3359375 89.53125,19.21875 C89.8828125,18.8671875 89.8828125,18.28125 89.53125,17.9296875 L87.7734375,16.171875 C87.421875,15.8203125 86.8359375,15.8203125 86.484375,16.171875 C86.1328125,16.5234375 86.1328125,17.109375 86.484375,17.4609375 L88.359375,19.21875 Z" id="Shape"></path>
                <path d="M82.8515625,16.171875 L81.09375,17.9296875 C80.7421875,18.28125 80.7421875,18.8671875 81.09375,19.21875 C81.328125,19.3359375 81.5625,19.453125 81.796875,19.453125 C82.03125,19.453125 82.265625,19.3359375 82.3828125,19.21875 L84.140625,17.4609375 C84.4921875,17.109375 84.4921875,16.5234375 84.140625,16.171875 C83.7890625,15.8203125 83.203125,15.8203125 82.8515625,16.171875 Z" id="Shape"></path>
                <path d="M87.3046875,13.9453125 C87.5390625,13.9453125 87.7734375,13.828125 87.890625,13.7109375 L89.6484375,11.953125 C90,11.6015625 90,11.015625 89.6484375,10.6640625 C89.296875,10.3125 88.7109375,10.3125 88.359375,10.6640625 L86.71875,12.421875 C86.3671875,12.7734375 86.3671875,13.359375 86.71875,13.7109375 C86.8359375,13.828125 87.0703125,13.9453125 87.3046875,13.9453125 Z" id="Shape"></path>
                <path d="M4.1015625,34.921875 C4.3359375,35.15625 4.453125,35.2734375 4.6875,35.2734375 C4.921875,35.2734375 5.15625,35.15625 5.2734375,35.0390625 C5.625,34.6875 5.625,34.1015625 5.2734375,33.75 L3.515625,31.9921875 C3.28125,31.640625 2.6953125,31.640625 2.34375,31.9921875 C1.9921875,32.34375 1.9921875,32.9296875 2.34375,33.28125 L4.1015625,34.921875 Z" id="Shape"></path>
                <path d="M9.140625,37.5 C8.7890625,37.1484375 8.203125,37.1484375 7.8515625,37.5 C7.5,37.8515625 7.5,38.4375 7.8515625,38.7890625 L9.609375,40.546875 C9.7265625,40.6640625 9.9609375,40.78125 10.1953125,40.78125 C10.4296875,40.78125 10.6640625,40.6640625 10.78125,40.546875 C11.1328125,40.1953125 11.1328125,39.609375 10.78125,39.2578125 L9.140625,37.5 Z" id="Shape"></path>
                <path d="M2.9296875,40.78125 C3.1640625,40.78125 3.3984375,40.6640625 3.515625,40.546875 L5.2734375,38.7890625 C5.625,38.4375 5.625,37.8515625 5.2734375,37.5 C4.921875,37.1484375 4.3359375,37.1484375 3.984375,37.5 L2.34375,39.2578125 C2.109375,39.609375 2.109375,40.1953125 2.34375,40.546875 C2.4609375,40.6640625 2.6953125,40.78125 2.9296875,40.78125 Z" id="Shape"></path>
                <path d="M9.609375,31.9921875 L7.8515625,33.75 C7.5,34.1015625 7.5,34.6875 7.8515625,35.0390625 C7.96875,35.15625 8.203125,35.2734375 8.4375,35.2734375 C8.671875,35.2734375 8.90625,35.15625 9.0234375,35.0390625 L10.78125,33.28125 C11.1328125,32.9296875 11.1328125,32.34375 10.78125,31.9921875 C10.546875,31.640625 9.9609375,31.640625 9.609375,31.9921875 Z" id="Shape"></path>
                <path d="M141.09375,77.6953125 C138.984375,77.6953125 137.226562,79.453125 137.226562,81.5625 C137.226562,83.671875 138.984375,85.4296875 141.09375,85.4296875 C143.203125,85.4296875 144.960938,83.671875 144.960938,81.5625 C144.960938,79.453125 143.203125,77.6953125 141.09375,77.6953125 Z M141.09375,83.671875 C139.921875,83.671875 138.984375,82.734375 138.984375,81.5625 C138.984375,80.390625 139.921875,79.453125 141.09375,79.453125 C142.265625,79.453125 143.203125,80.390625 143.203125,81.5625 C143.203125,82.734375 142.265625,83.671875 141.09375,83.671875 Z" id="Shape"></path>
                <path d="M101.25,9.2578125 C103.359375,9.2578125 105.117187,7.5 105.117187,5.390625 C105.117187,3.28125 103.359375,1.5234375 101.25,1.5234375 C99.140625,1.5234375 97.3828125,3.28125 97.3828125,5.390625 C97.265625,7.5 99.0234375,9.2578125 101.25,9.2578125 Z M101.25,3.28125 C102.421875,3.28125 103.359375,4.21875 103.359375,5.390625 C103.359375,6.5625 102.421875,7.5 101.25,7.5 C100.078125,7.5 99.140625,6.5625 99.140625,5.390625 C99.140625,4.21875 100.078125,3.28125 101.25,3.28125 Z" id="Shape"></path>
                <path d="M6.09375,82.8515625 C3.984375,82.8515625 2.34375,84.4921875 2.34375,86.6015625 C2.34375,88.7109375 3.984375,90.3515625 6.09375,90.3515625 C8.203125,90.3515625 9.84375,88.7109375 9.84375,86.6015625 C9.84375,84.4921875 8.0859375,82.8515625 6.09375,82.8515625 Z M6.09375,88.59375 C5.0390625,88.59375 4.1015625,87.65625 4.1015625,86.6015625 C4.1015625,85.546875 5.0390625,84.609375 6.09375,84.609375 C7.1484375,84.609375 8.0859375,85.546875 8.0859375,86.6015625 C8.0859375,87.65625 7.1484375,88.59375 6.09375,88.59375 Z" id="Shape"></path>
                <path d="M143.554688,117.890625 L130.3125,117.890625 C129.84375,117.890625 129.375,118.242188 129.375,118.828125 C129.375,119.296875 129.726562,119.765625 130.3125,119.765625 L143.554688,119.765625 C144.023438,119.765625 144.492188,119.414062 144.492188,118.828125 C144.375,118.242188 144.023438,117.890625 143.554688,117.890625 Z" id="Shape"></path>
                <path d="M121.757812,117.890625 C121.289062,117.890625 120.820312,118.242188 120.820312,118.828125 C120.820312,119.296875 121.171875,119.765625 121.757812,119.765625 L125.976562,119.765625 C126.445312,119.765625 126.914062,119.414062 126.914062,118.828125 C126.914062,118.359375 126.5625,117.890625 125.976562,117.890625 L121.757812,117.890625 Z" id="Shape"></path>
                <path d="M130.898438,122.34375 L121.640625,122.34375 C121.171875,122.34375 120.703125,122.695312 120.703125,123.28125 C120.703125,123.75 121.054688,124.21875 121.640625,124.21875 L130.898438,124.21875 C131.367188,124.21875 131.835938,123.867188 131.835938,123.28125 C131.835938,122.8125 131.367188,122.34375 130.898438,122.34375 Z" id="Shape"></path>
                <path d="M137.8125,122.34375 L134.882812,122.34375 C134.414062,122.34375 133.945312,122.695312 133.945312,123.28125 C133.945312,123.75 134.296875,124.21875 134.882812,124.21875 L137.8125,124.21875 C138.28125,124.21875 138.75,123.867188 138.75,123.28125 C138.75,122.8125 138.398437,122.34375 137.8125,122.34375 Z" id="Shape"></path>
                <path d="M10.078125,10.78125 L23.3203125,10.78125 C23.7890625,10.78125 24.2578125,10.4296875 24.2578125,9.84375 C24.2578125,9.375 23.90625,8.90625 23.3203125,8.90625 L10.078125,8.90625 C9.609375,8.90625 9.140625,9.2578125 9.140625,9.84375 C9.140625,10.4296875 9.609375,10.78125 10.078125,10.78125 Z" id="Shape"></path>
                <path d="M1.5234375,10.78125 L5.7421875,10.78125 C6.2109375,10.78125 6.6796875,10.4296875 6.6796875,9.84375 C6.6796875,9.375 6.328125,8.90625 5.7421875,8.90625 L1.5234375,8.90625 C1.0546875,8.90625 0.5859375,9.2578125 0.5859375,9.84375 C0.5859375,10.4296875 0.9375,10.78125 1.5234375,10.78125 Z" id="Shape"></path>
                <path d="M10.6640625,13.59375 L1.5234375,13.59375 C1.0546875,13.59375 0.5859375,13.9453125 0.5859375,14.53125 C0.5859375,15 0.9375,15.46875 1.5234375,15.46875 L10.78125,15.46875 C11.25,15.46875 11.71875,15.1171875 11.71875,14.53125 C11.6015625,13.9453125 11.1328125,13.59375 10.6640625,13.59375 Z" id="Shape"></path>
                <path d="M17.578125,13.4765625 L14.6484375,13.4765625 C14.1796875,13.4765625 13.7109375,13.828125 13.7109375,14.4140625 C13.7109375,14.8828125 14.0625,15.3515625 14.6484375,15.3515625 L17.578125,15.3515625 C18.1640625,15.3515625 18.515625,14.8828125 18.515625,14.4140625 C18.515625,13.9453125 18.1640625,13.4765625 17.578125,13.4765625 Z" id="Shape"></path>
                <path d="M40.6640625,117.1875 L27.5390625,117.1875 C27.0703125,117.1875 26.6015625,117.539062 26.6015625,118.125 C26.6015625,118.59375 26.953125,119.0625 27.5390625,119.0625 L40.78125,119.0625 C41.25,119.0625 41.71875,118.710938 41.71875,118.125 C41.6015625,117.539062 41.25,117.1875 40.6640625,117.1875 Z" id="Shape"></path>
                <path d="M49.3359375,117.1875 L45.1171875,117.1875 C44.6484375,117.1875 44.1796875,117.539062 44.1796875,118.125 C44.1796875,118.59375 44.53125,119.0625 45.1171875,119.0625 L49.3359375,119.0625 C49.8046875,119.0625 50.2734375,118.710938 50.2734375,118.125 C50.15625,117.539062 49.8046875,117.1875 49.3359375,117.1875 Z" id="Shape"></path>
                <path d="M49.3359375,112.617188 L40.078125,112.617188 C39.609375,112.617188 39.140625,112.96875 39.140625,113.554688 C39.140625,114.023438 39.4921875,114.492188 40.078125,114.492188 L49.3359375,114.492188 C49.8046875,114.492188 50.2734375,114.140625 50.2734375,113.554688 C50.15625,113.085938 49.8046875,112.617188 49.3359375,112.617188 Z" id="Shape"></path>
                <path d="M36.09375,114.375 C36.5625,114.375 37.03125,114.023438 37.03125,113.4375 C37.03125,112.96875 36.6796875,112.5 36.09375,112.5 L33.1640625,112.5 C32.6953125,112.5 32.2265625,112.851562 32.2265625,113.4375 C32.2265625,113.90625 32.578125,114.375 33.1640625,114.375 L36.09375,114.375 Z" id="Shape"></path>
                <path d="M91.640625,122.8125 L86.1328125,122.8125 L82.1484375,104.296875 L125.742188,104.296875 C130.078125,104.296875 133.476562,100.78125 133.476562,96.5625 L133.476562,39.84375 C142.734375,37.8515625 149.414062,29.765625 149.414062,20.2734375 C149.414062,9.2578125 140.390625,0.234375 129.375,0.234375 C118.359375,0.234375 109.335937,9.2578125 109.335937,20.2734375 C109.335937,21.5625 109.453125,22.734375 109.6875,23.90625 L73.4765625,23.90625 L73.4765625,13.9453125 L73.4765625,13.828125 C73.59375,13.59375 73.4765625,13.2421875 73.2421875,13.0078125 L64.6875,4.453125 C64.5703125,4.3359375 64.5703125,4.3359375 64.453125,4.3359375 C64.453125,4.3359375 64.453125,4.3359375 64.3359375,4.3359375 L64.1015625,4.3359375 L56.8359375,4.3359375 C56.6015625,1.9921875 54.609375,0.1171875 52.265625,0.1171875 C49.921875,0.1171875 47.9296875,1.9921875 47.6953125,4.3359375 L46.171875,4.3359375 C45.9375,1.9921875 43.9453125,0.1171875 41.6015625,0.1171875 C39.2578125,0.1171875 37.265625,1.9921875 37.03125,4.3359375 L35.9765625,4.3359375 C34.1015625,4.3359375 32.4609375,5.859375 32.4609375,7.8515625 L32.4609375,24.140625 L26.015625,24.140625 C21.6796875,24.140625 18.28125,27.65625 18.28125,31.875 L18.28125,96.6796875 C18.28125,101.015625 21.796875,104.414062 26.015625,104.414062 L69.609375,104.414062 L65.625,122.929688 L60.1171875,122.929688 C58.125,122.929688 56.3671875,124.570313 56.3671875,126.679688 L56.3671875,127.851563 C56.3671875,129.84375 58.0078125,131.601563 60.1171875,131.601563 L91.875,131.601563 C93.8671875,131.601563 95.625,129.960938 95.625,127.851563 L95.625,126.679688 C95.390625,124.453125 93.75,122.8125 91.640625,122.8125 Z M129.375,1.9921875 C139.453125,1.9921875 147.65625,10.1953125 147.65625,20.2734375 C147.65625,29.1796875 141.328125,36.796875 132.539062,38.3203125 C131.484375,38.5546875 130.429687,38.5546875 129.375,38.5546875 C120.9375,38.5546875 113.554687,32.8125 111.5625,24.609375 C111.210937,23.203125 111.09375,21.796875 111.09375,20.2734375 C111.09375,10.1953125 119.296875,1.9921875 129.375,1.9921875 Z M64.921875,7.1484375 L70.546875,12.7734375 L64.921875,12.7734375 L64.921875,7.1484375 Z M52.1484375,1.7578125 C53.5546875,1.7578125 54.7265625,2.8125 54.9609375,4.21875 L49.21875,4.21875 C49.5703125,2.6953125 50.7421875,1.7578125 52.1484375,1.7578125 Z M41.484375,1.7578125 C42.890625,1.7578125 44.0625,2.8125 44.296875,4.21875 L38.5546875,4.21875 C38.90625,2.6953125 40.078125,1.7578125 41.484375,1.7578125 Z M33.984375,7.6171875 L33.984375,7.6171875 C34.1015625,6.6796875 34.921875,5.859375 35.859375,5.859375 L44.1796875,5.859375 C43.7109375,6.796875 42.7734375,7.5 41.6015625,7.5 C41.1328125,7.5 40.6640625,7.8515625 40.6640625,8.4375 C40.6640625,8.90625 41.015625,9.375 41.6015625,9.375 C43.7109375,9.375 45.46875,7.96875 46.0546875,5.9765625 L54.9609375,5.9765625 C54.4921875,6.9140625 53.5546875,7.6171875 52.3828125,7.6171875 C51.9140625,7.6171875 51.4453125,7.96875 51.4453125,8.5546875 C51.4453125,9.0234375 51.796875,9.4921875 52.3828125,9.4921875 C54.4921875,9.4921875 56.25,8.0859375 56.8359375,6.09375 L63.28125,6.09375 L63.28125,13.828125 C63.28125,14.296875 63.6328125,14.765625 64.21875,14.765625 L71.953125,14.765625 L71.953125,53.90625 C71.953125,54.84375 71.1328125,55.6640625 70.1953125,55.6640625 L35.7421875,55.6640625 C34.8046875,55.6640625 33.984375,54.84375 33.984375,53.90625 L33.984375,7.6171875 Z M19.921875,31.7578125 C19.921875,28.4765625 22.6171875,25.78125 25.8984375,25.78125 L32.34375,25.78125 L32.34375,53.90625 C32.34375,55.78125 33.8671875,57.421875 35.859375,57.421875 L70.078125,57.421875 C71.953125,57.421875 73.59375,55.8984375 73.59375,53.90625 L73.59375,25.6640625 L110.15625,25.6640625 C112.617187,34.3359375 120.46875,40.3125 129.492188,40.3125 C130.3125,40.3125 131.015625,40.1953125 131.835938,40.1953125 L131.835938,93.515625 L19.921875,93.515625 L19.921875,31.7578125 Z M25.8984375,102.539063 C22.6171875,102.539063 19.921875,99.84375 19.921875,96.5625 L19.921875,95.390625 L131.835938,95.390625 L131.835938,96.5625 C131.835938,99.84375 129.140625,102.539063 125.859375,102.539063 L81.09375,102.539063 L70.546875,102.539063 L25.8984375,102.539063 Z M71.25,104.296875 L80.2734375,104.296875 L84.2578125,122.8125 L67.265625,122.8125 L71.25,104.296875 Z M91.7578125,129.492187 L60,129.492187 C58.9453125,129.492187 58.125,128.671875 58.125,127.617187 L58.125,126.445312 C58.125,125.390625 58.9453125,124.570312 60,124.570312 L66.2109375,124.570312 L85.4296875,124.570312 L91.640625,124.570312 C92.6953125,124.570312 93.515625,125.390625 93.515625,126.445312 L93.515625,127.617187 L93.6328125,127.617187 C93.6328125,128.671875 92.8125,129.492187 91.7578125,129.492187 Z" id="Shape"></path>
                <path d="M97.734375,54.0234375 C94.6875,56.953125 94.6875,61.7578125 97.6171875,64.8046875 C99.140625,66.328125 101.132812,67.1484375 103.007812,67.1484375 C104.882812,67.1484375 106.875,66.4453125 108.28125,65.0390625 C111.328125,62.109375 111.328125,57.3046875 108.398437,54.2578125 C105.585937,51.09375 100.78125,51.09375 97.734375,54.0234375 Z M107.109375,63.6328125 C104.765625,65.859375 101.132812,65.859375 98.90625,63.515625 C96.6796875,61.171875 96.6796875,57.5390625 99.0234375,55.3125 C101.367187,53.0859375 105,53.0859375 107.226562,55.4296875 C109.453125,57.65625 109.453125,61.40625 107.109375,63.6328125 Z" id="Shape"></path>
                <path d="M122.226562,54.4921875 C122.109375,54.0234375 121.640625,53.7890625 121.171875,53.90625 L116.015625,55.078125 C115.429687,53.3203125 114.609375,51.796875 113.320312,50.390625 L117.070312,46.640625 C117.421875,46.2890625 117.421875,45.703125 117.070312,45.3515625 C116.71875,45 116.132812,45 115.78125,45.3515625 L112.03125,49.1015625 C110.625,47.8125 108.984375,46.9921875 107.226562,46.40625 L108.515625,41.3671875 C108.632812,40.8984375 108.398438,40.4296875 107.929687,40.3125 C107.460937,40.1953125 106.992188,40.4296875 106.875,40.8984375 L105.585937,45.9375 C103.828125,45.5859375 102.070312,45.5859375 100.3125,45.9375 L98.90625,41.015625 C98.7890625,40.546875 98.3203125,40.3125 97.8515625,40.4296875 C97.3828125,40.546875 97.1484375,41.015625 97.265625,41.484375 L98.671875,46.5234375 C97.03125,47.109375 95.5078125,47.9296875 94.1015625,49.21875 L90.46875,45.5859375 C90.1171875,45.234375 89.53125,45.234375 89.1796875,45.5859375 C88.828125,45.9375 88.828125,46.5234375 89.1796875,46.875 L92.8125,50.5078125 C91.640625,51.9140625 90.703125,53.4375 90.1171875,55.1953125 L85.1953125,53.90625 C84.7265625,53.7890625 84.2578125,54.0234375 84.140625,54.4921875 C84.0234375,54.9609375 84.2578125,55.4296875 84.7265625,55.546875 L89.6484375,56.8359375 C89.296875,58.59375 89.296875,60.46875 89.6484375,62.2265625 L84.7265625,63.515625 C84.2578125,63.6328125 84.0234375,64.1015625 84.140625,64.5703125 C84.2578125,64.921875 84.609375,65.2734375 84.9609375,65.2734375 L85.1953125,65.2734375 L90.1171875,63.984375 C90.5859375,65.2734375 91.171875,66.4453125 91.875,67.5 L90,69.375 C89.296875,69.140625 88.59375,69.2578125 88.0078125,69.7265625 L75.8203125,81.796875 C74.6484375,82.96875 74.6484375,84.9609375 75.8203125,86.1328125 L76.40625,86.71875 C76.9921875,87.3046875 77.8125,87.65625 78.515625,87.65625 C79.3359375,87.65625 80.0390625,87.3046875 80.625,86.71875 L92.8125,74.53125 C93.1640625,74.1796875 93.3984375,73.7109375 93.3984375,73.2421875 C93.3984375,73.0078125 93.3984375,72.7734375 93.28125,72.5390625 L95.15625,70.6640625 C96.2109375,71.484375 97.5,72.0703125 98.671875,72.421875 L97.3828125,77.34375 C97.265625,77.8125 97.5,78.28125 97.96875,78.3984375 L98.203125,78.3984375 C98.5546875,78.3984375 98.90625,78.1640625 99.0234375,77.6953125 L100.3125,72.7734375 C101.132812,72.890625 102.070312,73.0078125 103.007812,73.0078125 C103.945312,73.0078125 104.882812,72.890625 105.703125,72.7734375 L106.992187,77.6953125 C107.109375,78.046875 107.460937,78.3984375 107.8125,78.3984375 L108.046875,78.3984375 C108.515625,78.28125 108.75,77.8125 108.632812,77.34375 L107.34375,72.421875 C108.984375,71.8359375 110.625,71.015625 111.914062,69.7265625 L115.546875,73.359375 C115.664062,73.4765625 115.898437,73.59375 116.132812,73.59375 C116.367187,73.59375 116.601562,73.4765625 116.71875,73.359375 C117.070312,73.0078125 117.070312,72.421875 116.71875,72.0703125 L113.085937,68.4375 C114.257812,67.03125 115.195312,65.5078125 115.78125,63.8671875 L120.820312,65.2734375 L121.054687,65.2734375 C121.40625,65.2734375 121.757812,65.0390625 121.875,64.5703125 C121.992187,64.1015625 121.757812,63.6328125 121.289062,63.515625 L116.484375,62.109375 C116.835937,60.3515625 116.835937,58.59375 116.484375,56.8359375 L121.523437,55.546875 C121.992187,55.4296875 122.34375,54.9609375 122.226562,54.4921875 Z M79.453125,85.4296875 C78.984375,85.8984375 78.1640625,85.8984375 77.578125,85.4296875 L76.9921875,84.84375 C76.5234375,84.375 76.5234375,83.5546875 76.9921875,82.96875 L89.296875,70.78125 L91.640625,73.125 L79.453125,85.4296875 Z M92.109375,71.1328125 L91.2890625,70.3125 L92.9296875,68.671875 L93.75,69.4921875 L92.109375,71.1328125 Z M111.328125,67.96875 C106.640625,72.5390625 99.0234375,72.421875 94.453125,67.734375 C89.8828125,63.046875 90,55.4296875 94.6875,50.859375 C99.375,46.2890625 106.992188,46.40625 111.5625,51.09375 C116.132813,55.78125 116.132813,63.3984375 111.328125,67.96875 Z" id="Shape"></path>
                <path d="M68.3203125,64.5703125 L27.5390625,64.5703125 C27.0703125,64.5703125 26.6015625,64.921875 26.6015625,65.5078125 C26.6015625,65.9765625 26.953125,66.4453125 27.5390625,66.4453125 L68.4375,66.4453125 C68.90625,66.4453125 69.375,66.09375 69.375,65.5078125 C69.2578125,64.921875 68.7890625,64.5703125 68.3203125,64.5703125 Z" id="Shape"></path>
                <path d="M68.3203125,71.3671875 L27.5390625,71.3671875 C27.0703125,71.3671875 26.6015625,71.71875 26.6015625,72.3046875 C26.6015625,72.7734375 26.953125,73.2421875 27.5390625,73.2421875 L68.4375,73.2421875 C68.90625,73.2421875 69.375,72.890625 69.375,72.3046875 C69.2578125,71.71875 68.7890625,71.3671875 68.3203125,71.3671875 Z" id="Shape"></path>
                <path d="M68.3203125,78.046875 L27.5390625,78.046875 C27.0703125,78.046875 26.6015625,78.3984375 26.6015625,78.984375 C26.6015625,79.453125 26.953125,79.921875 27.5390625,79.921875 L68.4375,79.921875 C68.90625,79.921875 69.375,79.5703125 69.375,78.984375 C69.2578125,78.515625 68.7890625,78.046875 68.3203125,78.046875 Z" id="Shape"></path>
                <path d="M56.015625,84.84375 L27.5390625,84.84375 C27.0703125,84.84375 26.6015625,85.1953125 26.6015625,85.78125 C26.6015625,86.25 26.953125,86.71875 27.5390625,86.71875 L56.015625,86.71875 C56.484375,86.71875 56.953125,86.3671875 56.953125,85.78125 C56.8359375,85.1953125 56.484375,84.84375 56.015625,84.84375 Z" id="Shape"></path>
                <path d="M42.5390625,23.3203125 L63.28125,23.3203125 C63.75,23.3203125 64.21875,22.96875 64.21875,22.3828125 C64.21875,21.9140625 63.8671875,21.4453125 63.28125,21.4453125 L42.5390625,21.4453125 C42.0703125,21.4453125 41.6015625,21.796875 41.6015625,22.3828125 C41.6015625,22.96875 42.0703125,23.3203125 42.5390625,23.3203125 Z" id="Shape"></path>
                <path d="M42.5390625,30.1171875 L63.28125,30.1171875 C63.75,30.1171875 64.21875,29.765625 64.21875,29.1796875 C64.21875,28.7109375 63.8671875,28.2421875 63.28125,28.2421875 L42.5390625,28.2421875 C42.0703125,28.2421875 41.6015625,28.59375 41.6015625,29.1796875 C41.6015625,29.765625 42.0703125,30.1171875 42.5390625,30.1171875 Z" id="Shape"></path>
                <path d="M42.5390625,36.9140625 L63.28125,36.9140625 C63.75,36.9140625 64.21875,36.5625 64.21875,35.9765625 C64.21875,35.5078125 63.8671875,35.0390625 63.28125,35.0390625 L42.5390625,35.0390625 C42.0703125,35.0390625 41.6015625,35.390625 41.6015625,35.9765625 C41.6015625,36.4453125 42.0703125,36.9140625 42.5390625,36.9140625 Z" id="Shape"></path>
                <path d="M42.5390625,43.59375 L57.0703125,43.59375 C57.5390625,43.59375 58.0078125,43.2421875 58.0078125,42.65625 C58.0078125,42.1875 57.65625,41.71875 57.0703125,41.71875 L42.5390625,41.71875 C42.0703125,41.71875 41.6015625,42.0703125 41.6015625,42.65625 C41.6015625,43.2421875 42.0703125,43.59375 42.5390625,43.59375 Z" id="Shape"></path>
                <path d="M138.632812,20.390625 C138.632812,20.859375 138.984375,21.328125 139.453125,21.328125 L143.789062,21.328125 C144.257812,21.328125 144.726562,20.9765625 144.726562,20.5078125 C144.726562,20.0390625 144.375,19.5703125 143.90625,19.5703125 L139.570312,19.5703125 C139.101562,19.5703125 138.632812,19.921875 138.632812,20.390625 Z" id="Shape"></path>
                <path d="M129.140625,10.78125 C129.609375,10.78125 130.078125,10.4296875 130.078125,9.84375 L130.078125,5.625 C130.078125,5.15625 129.726562,4.6875 129.140625,4.6875 C128.671875,4.6875 128.203125,5.0390625 128.203125,5.625 L128.203125,9.9609375 L128.203125,9.9609375 L128.203125,9.9609375 C128.320312,10.4296875 128.671875,10.78125 129.140625,10.78125 Z" id="Shape"></path>
                <path d="M123.046875,11.8359375 C123.164062,12.0703125 123.515625,12.3046875 123.75,12.3046875 C123.867187,12.3046875 124.101562,12.3046875 124.21875,12.1875 C124.453125,12.0703125 124.570312,11.8359375 124.6875,11.6015625 C124.804687,11.3671875 124.6875,11.1328125 124.570312,10.8984375 L122.34375,7.1484375 C122.226562,6.9140625 121.875,6.6796875 121.523437,6.6796875 C121.40625,6.6796875 121.171875,6.6796875 121.054687,6.796875 C120.820312,6.9140625 120.703125,7.1484375 120.585937,7.3828125 C120.46875,7.6171875 120.585937,7.8515625 120.703125,8.0859375 L123.046875,11.8359375 Z" id="Shape"></path>
                <path d="M115.898437,13.828125 L119.648437,15.9375 C119.765625,16.0546875 120,16.0546875 120.117187,16.0546875 C120.46875,16.0546875 120.703125,15.9375 120.9375,15.5859375 C121.171875,15.1171875 121.054687,14.53125 120.585937,14.296875 L116.835937,12.1875 C116.71875,12.0703125 116.484375,12.0703125 116.367187,12.0703125 C116.015625,12.0703125 115.78125,12.1875 115.664062,12.5390625 C115.546875,12.7734375 115.429687,12.890625 115.429687,13.125 C115.429687,13.4765625 115.546875,13.7109375 115.898437,13.828125 Z" id="Shape"></path>
                <path d="M114.375,21.328125 L118.710937,21.328125 C119.179687,21.328125 119.53125,20.859375 119.53125,20.390625 C119.53125,19.921875 119.179687,19.5703125 118.59375,19.5703125 L114.257812,19.5703125 C114.023437,19.5703125 113.671875,19.6875 113.554687,19.921875 C113.4375,20.15625 113.320312,20.390625 113.4375,20.625 C113.4375,20.9765625 113.789062,21.328125 114.375,21.328125 Z" id="Shape"></path>
                <path d="M120.117188,24.7265625 C120,24.7265625 119.765625,24.7265625 119.648438,24.84375 L115.898438,27.0703125 C115.664063,27.1875 115.546875,27.421875 115.429688,27.65625 C115.3125,27.890625 115.429688,28.125 115.546875,28.359375 C115.664063,28.59375 116.015625,28.828125 116.367188,28.828125 C116.484375,28.828125 116.71875,28.828125 116.835938,28.7109375 L120.585938,26.484375 C120.820313,26.3671875 120.9375,26.1328125 121.054688,25.8984375 C121.171875,25.6640625 121.054688,25.4296875 120.9375,25.1953125 C120.703125,24.84375 120.46875,24.7265625 120.117188,24.7265625 Z" id="Shape"></path>
                <path d="M142.382813,27.0703125 L138.632812,24.84375 C138.515625,24.7265625 138.28125,24.7265625 138.164062,24.7265625 C137.8125,24.7265625 137.578125,24.9609375 137.460938,25.1953125 C137.34375,25.4296875 137.34375,25.6640625 137.34375,25.8984375 C137.460938,26.1328125 137.578125,26.3671875 137.8125,26.484375 L141.5625,28.7109375 C141.679688,28.828125 141.914063,28.828125 142.03125,28.828125 C142.382813,28.828125 142.617188,28.7109375 142.851563,28.359375 L142.851563,28.359375 L142.851563,28.359375 C142.96875,27.7734375 142.851563,27.3046875 142.382813,27.0703125 Z" id="Shape"></path>
                <path d="M137.34375,15 C137.226563,15.234375 137.34375,15.46875 137.460938,15.703125 C137.578125,16.0546875 137.929688,16.171875 138.164063,16.171875 C138.28125,16.171875 138.515625,16.171875 138.632813,16.0546875 L142.382813,13.9453125 C142.617188,13.828125 142.734375,13.59375 142.851563,13.359375 C142.96875,13.125 142.851563,12.890625 142.734375,12.65625 C142.617188,12.421875 142.265625,12.1875 141.914063,12.1875 C141.796875,12.1875 141.5625,12.1875 141.445313,12.3046875 L137.695313,14.4140625 C137.578125,14.53125 137.460938,14.765625 137.34375,15 Z" id="Shape"></path>
                <path d="M134.0625,12.0703125 C134.179688,12.1875 134.414062,12.1875 134.53125,12.1875 C134.882812,12.1875 135.117188,12.0703125 135.234375,11.71875 L137.460938,7.96875 C137.578125,7.734375 137.578125,7.5 137.578125,7.265625 C137.460938,7.03125 137.34375,6.796875 137.109375,6.6796875 C136.992188,6.5625 136.757812,6.5625 136.640625,6.5625 C136.289062,6.5625 136.054688,6.796875 135.9375,7.03125 L133.710938,10.78125 C133.59375,11.015625 133.59375,11.25 133.59375,11.484375 C133.710938,11.8359375 133.828125,11.953125 134.0625,12.0703125 Z" id="Shape"></path>
                <path d="M129.609375,13.125 L129.140625,13.125 C127.382812,13.125 125.742188,13.828125 124.453125,15 C123.046875,16.2890625 122.34375,18.046875 122.34375,20.0390625 C122.34375,21.09375 122.578125,22.03125 123.046875,23.0859375 C123.046875,23.203125 123.164062,23.203125 123.164062,23.3203125 C123.28125,23.4375 123.28125,23.5546875 123.28125,23.671875 C123.398437,23.7890625 123.398437,24.0234375 123.515625,24.140625 C124.335937,25.6640625 125.039062,27.5390625 125.507812,29.6484375 C125.625,30.1171875 125.625,30.703125 125.742188,31.171875 L125.742188,31.2890625 L125.742188,31.40625 L125.742188,31.5234375 L125.742188,31.5234375 C126.09375,32.2265625 126.679688,32.6953125 127.382812,32.6953125 L130.664062,32.6953125 C131.484375,32.6953125 132.1875,32.109375 132.421875,31.2890625 C132.421875,31.0546875 132.421875,30.9375 132.539062,30.703125 L132.539062,30.234375 C132.890625,27.890625 133.710938,25.6640625 134.765625,23.7890625 C134.882812,23.671875 134.882812,23.671875 134.882812,23.5546875 C134.882812,23.5546875 134.882812,23.5546875 134.882812,23.4375 L134.882812,23.3203125 L134.882812,23.3203125 C135.46875,22.1484375 135.820312,20.9765625 135.703125,19.6875 C135.820313,16.171875 133.007813,13.359375 129.609375,13.125 Z M131.367188,28.7109375 C131.25,29.0625 131.25,29.53125 131.132812,30 C131.015625,30.3515625 131.015625,30.703125 131.015625,30.9375 C131.015625,31.0546875 130.898438,31.171875 130.78125,31.171875 L127.5,31.171875 C127.382813,31.171875 127.382813,31.171875 127.265625,31.0546875 L127.265625,30.9375 C127.265625,30.46875 127.148438,29.8828125 127.03125,29.4140625 C127.03125,29.1796875 126.914062,29.0625 126.914062,28.828125 L131.367188,28.828125 L131.367188,28.7109375 Z M134.53125,19.8046875 C134.53125,20.7421875 134.296875,21.796875 133.828125,22.6171875 C133.828125,22.6171875 133.828125,22.734375 133.710938,22.734375 C133.710938,22.734375 133.59375,22.8515625 133.59375,22.96875 C132.890625,24.140625 132.304688,25.546875 131.71875,27.1875 L126.445312,27.1875 C125.976562,25.6640625 125.390625,24.375 124.804687,23.3203125 L124.6875,23.0859375 C124.570312,22.8515625 124.453125,22.734375 124.335938,22.5 C123.984375,21.6796875 123.75,20.859375 123.75,20.15625 C123.75,18.6328125 124.335938,17.2265625 125.507812,16.2890625 C126.445312,15.3515625 127.734375,14.8828125 129.140625,14.8828125 L129.492188,14.8828125 C132.1875,15 134.296875,17.109375 134.53125,19.8046875 Z" id="Shape"></path>
            </g>
        </g>
    </g>
</svg>