<svg xmlns="http://www.w3.org/2000/svg" id="linkedin10" width="13.78" height="13.19" viewBox="0 0 13.78 13.19" class="dc_svg replaced-svg svg-replaced-1">
  <g id="Group" stroke="none" fill="#ffffff" stroke-width="1px">
    <path id="Rectangle-path" class="cls-1" d="M1723.22,1690.3v8.91h2.97v-8.91h-2.97Z" transform="translate(-1723.06 -1686.03)" stroke="none" fill="#ffffff" stroke-width="1px"></path>
    <path id="Shape" class="cls-1" d="M1735.92,1691.12a3.191,3.191,0,0,0-2.47-1.02,3.665,3.665,0,0,0-1.03.14,2.376,2.376,0,0,0-.78.39,3.48,3.48,0,0,0-.51.47,3.719,3.719,0,0,0-.35.48v-1.27h-2.96l0.01,0.43c0.01,0.29.01,1.18,0.01,2.66s-0.01,3.43-.02,5.82h2.96v-4.97a2.066,2.066,0,0,1,.1-0.73,1.811,1.811,0,0,1,.57-0.77,1.43,1.43,0,0,1,.95-0.31,1.281,1.281,0,0,1,1.13.53,2.553,2.553,0,0,1,.37,1.48v4.77h2.95v-5.11a4.3,4.3,0,0,0-.93-2.99h0Z" transform="translate(-1723.06 -1686.03)" stroke="none" fill="#ffffff" stroke-width="1px"></path>
    <path id="Shape-2" data-name="Shape" class="cls-1" d="M1724.72,1686.02a1.7,1.7,0,0,0-1.21.44,1.442,1.442,0,0,0-.46,1.1,1.486,1.486,0,0,0,.45,1.1,1.624,1.624,0,0,0,1.18.44h0.02a1.722,1.722,0,0,0,1.22-.44,1.414,1.414,0,0,0,.45-1.1,1.479,1.479,0,0,0-.46-1.1,1.616,1.616,0,0,0-1.19-.44h0Z" transform="translate(-1723.06 -1686.03)" stroke="none" fill="#ffffff" stroke-width="1px"></path>
  </g>
</svg>