<svg xmlns="http://www.w3.org/2000/svg" xmlns:xlink="http://www.w3.org/1999/xlink" version="1.1" id="Layer_1" x="0px" y="0px" viewBox="0 0 64 64" style="enable-background:new 0 0 64 64;" xml:space="preserve" class="dc_svg aligncenter replaced-svg svg-replaced-7">
<g stroke="none" fill="#1b6da3" stroke-width="1px">
	<path class="st0" d="M59.4,17.9c-0.5,0.2-0.7,0.8-0.5,1.3c2,4.1,3,8.4,3,13c0,16.5-13.4,29.9-30,29.9c-1.8,0-3.6-0.2-5.3-0.5   c-0.5-0.1-1,0.3-1.1,0.8c-0.1,0.5,0.3,1,0.8,1.1c1.9,0.3,3.8,0.5,5.7,0.5c17.6,0,31.9-14.3,31.9-31.8c0-4.8-1.1-9.5-3.2-13.8   C60.5,17.9,59.9,17.6,59.4,17.9z" stroke="none" fill="#1b6da3" stroke-width="1px"></path>
	<path class="st0" d="M2.6,38.2c-0.4-2-0.6-4-0.6-6c0-16.5,13.4-29.9,30-29.9c4.3,0,8.5,0.9,12.4,2.7c0.5,0.2,1.1,0,1.3-0.5   c0.2-0.5,0-1.1-0.5-1.3C41,1.3,36.6,0.4,31.9,0.4C14.3,0.4,0,14.6,0,32.2c0,2.2,0.2,4.3,0.6,6.4c0.1,0.5,0.5,0.8,1,0.8   c0.1,0,0.1,0,0.2,0C2.3,39.2,2.7,38.7,2.6,38.2z" stroke="none" fill="#1b6da3" stroke-width="1px"></path>
	<path class="st0" d="M56.1,15.8c2,0,4.1-0.8,5.6-2.3c3.1-3.1,3.1-8.1,0-11.2c-3.1-3.1-8.1-3.1-11.2,0c-3.1,3.1-3.1,8.1,0,11.2   C52,15,54.1,15.8,56.1,15.8z M51.9,3.7C53,2.5,54.6,2,56.1,2s3,0.6,4.2,1.7c2.3,2.3,2.3,6.1,0,8.4c-2.3,2.3-6.1,2.3-8.4,0   C49.6,9.8,49.6,6,51.9,3.7z" stroke="none" fill="#1b6da3" stroke-width="1px"></path>
	<path class="st0" d="M47.7,15.2C47.7,15.1,47.7,15.1,47.7,15.2C47.7,15.1,47.6,15.1,47.7,15.2c-4.3-3.9-9.8-6.3-16-6.3   c-6.1,0-11.7,2.4-15.9,6.2c0,0,0,0-0.1,0c0,0,0,0,0,0c-4.6,4.3-7.4,10.3-7.4,17c0,3,0.6,5.8,1.6,8.4c-1.9,0.5-3.6,1.4-5,2.8   c-4.3,4.3-4.3,11.2,0,15.5c2.1,2.1,4.8,3.2,7.8,3.2s5.7-1.1,7.8-3.2c1.4-1.4,2.4-3.2,2.9-5c2.6,1,5.5,1.6,8.4,1.6   c6.1,0,11.6-2.3,15.8-6.1c0.1,0,0.1-0.1,0.2-0.1c0,0,0-0.1,0.1-0.1c4.5-4.3,7.4-10.3,7.4-17C55.1,25.5,52.3,19.4,47.7,15.2z    M25.5,11.7c-1.6,1.6-2.9,3.8-4,6.4c-1.2-0.7-2.4-1.4-3.4-2.3C20.2,14,22.7,12.6,25.5,11.7z M16.5,17.1c1.3,1.1,2.7,2.1,4.2,2.9   c-1.1,3.3-1.7,7.1-1.8,11.2h-8.6C10.6,25.7,12.9,20.8,16.5,17.1z M18.9,33.2c0.1,3.7,0.6,7.2,1.5,10.3c0,0,0,0,0,0   c-2.1-2.1-4.8-3.2-7.8-3.2c-0.3,0-0.5,0-0.8,0c-0.9-2.2-1.5-4.6-1.6-7.1H18.9z M21.4,53.1C21.4,53.2,21.4,53.2,21.4,53.1   c-0.1,0.4-0.2,0.8-0.3,1.1c0,0,0,0.1,0,0.1c-0.1,0.4-0.3,0.7-0.5,1.1c0,0.1-0.1,0.1-0.1,0.2c-0.1,0.3-0.3,0.5-0.5,0.7   c-0.1,0.1-0.2,0.2-0.2,0.3c-0.2,0.2-0.4,0.4-0.6,0.7c-0.1,0.1-0.1,0.1-0.2,0.2c-1.7,1.7-4,2.6-6.4,2.6S8,59.2,6.3,57.5   c-3.5-3.5-3.5-9.2,0-12.7c0.1-0.1,0.1-0.1,0.2-0.2c0.2-0.2,0.4-0.4,0.6-0.5c0.1-0.1,0.2-0.2,0.4-0.3c0.2-0.1,0.4-0.3,0.6-0.4   c0.1-0.1,0.2-0.1,0.3-0.2c0.3-0.2,0.6-0.3,1-0.4c0.1,0,0.2-0.1,0.3-0.1c0.3-0.1,0.6-0.2,0.8-0.2c0.1,0,0.1,0,0.2-0.1c0,0,0,0,0,0   c0.7-0.2,1.4-0.2,2.1-0.2c0,0,0,0,0,0c0.1,0,0.3,0,0.4,0c0.1,0,0.2,0,0.3,0c0.2,0,0.4,0.1,0.6,0.1c0.1,0,0.1,0,0.2,0   c0.3,0,0.5,0.1,0.8,0.2c0,0,0,0,0.1,0c1.4,0.4,2.7,1.2,3.8,2.3c0.1,0.1,0.2,0.2,0.3,0.4c0,0,0,0,0,0c0.5,0.5,0.8,1,1.2,1.6   c0,0,0,0,0,0c0,0,0,0,0,0c0.4,0.6,0.6,1.3,0.8,2c0,0,0,0.1,0,0.1c0.1,0.3,0.1,0.6,0.2,0.9c0,0.1,0,0.1,0,0.2c0,0.3,0.1,0.7,0.1,1   c0,0,0,0,0,0c0,0,0,0,0,0C21.7,51.7,21.6,52.4,21.4,53.1C21.4,53.1,21.4,53.1,21.4,53.1z M23.6,52c0-0.5,0-1.1,0-1.6   c0.6,0.8,1.2,1.6,1.8,2.3C24.8,52.4,24.2,52.2,23.6,52z M30.7,53.4c-3-0.6-5.6-3.6-7.5-8.1c2.3-1,4.9-1.6,7.5-1.7V53.4z M30.7,41.7   c-2.8,0.1-5.6,0.7-8.1,1.8c-1-3-1.6-6.6-1.7-10.3h9.8V41.7z M30.7,31.2h-9.8c0.1-3.7,0.7-7.3,1.7-10.3c2.6,1.1,5.3,1.7,8.1,1.8   V31.2z M30.7,20.7c-2.6-0.1-5.1-0.7-7.5-1.7c1.8-4.5,4.5-7.6,7.5-8.1V20.7z M53.1,31.2h-8.6c-0.1-4.1-0.7-7.9-1.8-11.2   c1.5-0.8,2.9-1.8,4.2-2.9C50.5,20.8,52.9,25.7,53.1,31.2z M45.4,15.8c-1.1,0.9-2.2,1.7-3.4,2.3c-1.1-2.6-2.4-4.8-4-6.4   C40.7,12.6,43.3,14,45.4,15.8z M32.7,10.9c3,0.6,5.7,3.6,7.5,8.1c-2.3,1-4.9,1.6-7.5,1.7V10.9z M32.7,22.7c2.8-0.1,5.6-0.7,8.1-1.8   c1,3,1.6,6.6,1.7,10.3h-9.8V22.7z M32.7,33.2h9.8c-0.1,3.8-0.7,7.3-1.7,10.3c-2.6-1.1-5.3-1.7-8.1-1.8V33.2z M32.7,53.4v-9.8   c2.6,0.1,5.1,0.7,7.5,1.7C38.3,49.8,35.7,52.9,32.7,53.4z M38,52.6c1.6-1.6,2.9-3.8,4-6.4c1.2,0.7,2.4,1.4,3.4,2.3   C43.3,50.4,40.7,51.8,38,52.6z M46.9,47.2c-1.3-1.1-2.7-2.1-4.2-2.9c1.1-3.3,1.7-7.1,1.8-11.2h8.6C52.9,38.6,50.5,43.6,46.9,47.2z" stroke="none" fill="#1b6da3" stroke-width="1px"></path>
</g>
</svg>