<?xml version="1.0" encoding="UTF-8"?>
<svg width="150px" height="160px" viewBox="0 0 150 160" version="1.1" xmlns="http://www.w3.org/2000/svg" xmlns:xlink="http://www.w3.org/1999/xlink">
    <!-- Generator: Sketch 41.2 (35397) - http://www.bohemiancoding.com/sketch -->
    <title>trienkhai-icon</title>
    <desc>Created with Sketch.</desc>
    <defs></defs>
    <g id="Page-1" stroke="none" stroke-width="1" fill="none" fill-rule="evenodd">
        <g id="TopCourses_Aboutus_1366px" transform="translate(-609.000000, -2268.000000)" stroke="#1B6DA3" stroke-width="0.35" fill="#1B6DA3">
            <g id="trienkhai-icon" transform="translate(609.000000, 2268.000000)">
                <path d="M141.75,27.875 C141.875,28 142.125,28.125 142.375,28.125 C142.625,28.125 142.875,28 143,27.875 C143.375,27.5 143.375,26.875 143,26.5 L141,24.5 C140.625,24.125 140,24.125 139.625,24.5 C139.25,24.875 139.25,25.5 139.625,25.875 L141.75,27.875 Z" id="Shape"></path>
                <path d="M147.5,30.875 C147.125,30.5 146.5,30.5 146.125,30.875 C145.75,31.25 145.75,31.875 146.125,32.25 L148.125,34.25 C148.25,34.375 148.5,34.5 148.75,34.5 C149,34.5 149.25,34.375 149.375,34.25 C149.75,33.875 149.75,33.25 149.375,32.875 L147.5,30.875 Z" id="Shape"></path>
                <path d="M140.375,34.5 C140.625,34.5 140.875,34.375 141,34.25 L143,32.25 C143.375,31.875 143.375,31.25 143,30.875 C142.625,30.5 142,30.5 141.625,30.875 L139.625,32.875 C139.25,33.25 139.25,33.875 139.625,34.25 C139.875,34.375 140.125,34.5 140.375,34.5 Z" id="Shape"></path>
                <path d="M146.875,28.125 C147.125,28.125 147.375,28 147.5,27.875 L149.5,25.875 C149.875,25.5 149.875,24.875 149.5,24.5 C149.125,24.125 148.5,24.125 148.125,24.5 L146.125,26.5 C145.75,26.875 145.75,27.5 146.125,27.875 C146.375,28 146.625,28.125 146.875,28.125 Z" id="Shape"></path>
                <path d="M105.75,149.375 C105.375,149 104.75,149 104.375,149.375 C104,149.75 104,150.375 104.375,150.75 L106.375,152.75 C106.5,152.875 106.75,153 107,153 C107.25,153 107.5,152.875 107.625,152.75 C108,152.375 108,151.75 107.625,151.375 L105.75,149.375 Z" id="Shape"></path>
                <path d="M112.125,155.75 C111.75,155.375 111.125,155.375 110.75,155.75 C110.375,156.125 110.375,156.75 110.75,157.125 L112.75,159.125 C112.875,159.25 113.125,159.375 113.375,159.375 C113.625,159.375 113.875,159.25 114,159.125 C114.375,158.75 114.375,158.125 114,157.75 L112.125,155.75 Z" id="Shape"></path>
                <path d="M106.375,155.75 L104.375,157.75 C104,158.125 104,158.75 104.375,159.125 C104.5,159.25 104.75,159.375 105,159.375 C105.25,159.375 105.5,159.25 105.625,159.125 L107.625,157.125 C108,156.75 108,156.125 107.625,155.75 C107.375,155.375 106.75,155.375 106.375,155.75 Z" id="Shape"></path>
                <path d="M112.75,149.375 L110.75,151.375 C110.375,151.75 110.375,152.375 110.75,152.75 C110.875,152.875 111.125,153 111.375,153 C111.625,153 111.875,152.875 112,152.75 L114,150.75 C114.375,150.375 114.375,149.75 114,149.375 C113.75,149 113.125,149 112.75,149.375 Z" id="Shape"></path>
                <path d="M41.5,136.5 C39.125,136.5 37.25,138.375 37.25,140.75 C37.25,143.125 39.125,145 41.5,145 C43.875,145 45.75,143.125 45.75,140.75 C45.75,138.375 43.875,136.5 41.5,136.5 Z M41.5,143.125 C40.125,143.125 39.125,142 39.125,140.75 C39.125,139.375 40.25,138.375 41.5,138.375 C42.875,138.375 43.875,139.5 43.875,140.75 C43.875,142.125 42.75,143.125 41.5,143.125 Z" id="Shape"></path>
                <path d="M13.625,18.25 C16,18.25 17.875,16.375 17.875,14 C17.875,11.625 16,9.75 13.625,9.75 C11.25,9.75 9.375,11.625 9.375,14 C9.25,16.375 11.25,18.25 13.625,18.25 Z M13.625,11.625 C15,11.625 16,12.75 16,14 C16,15.375 14.875,16.375 13.625,16.375 C12.25,16.375 11.25,15.25 11.25,14 C11.25,12.625 12.25,11.625 13.625,11.625 Z" id="Shape"></path>
                <path d="M106.125,16.875 L121.25,16.875 C121.75,16.875 122.25,16.5 122.25,15.875 C122.25,15.375 121.875,14.875 121.25,14.875 L106.125,14.875 C105.625,14.875 105.125,15.25 105.125,15.875 C105.125,16.375 105.5,16.875 106.125,16.875 Z" id="Shape"></path>
                <path d="M126.25,16.875 L131.125,16.875 C131.625,16.875 132.125,16.5 132.125,15.875 C132.125,15.375 131.75,14.875 131.125,14.875 L126.25,14.875 C125.75,14.875 125.25,15.25 125.25,15.875 C125.25,16.375 125.75,16.875 126.25,16.875 Z" id="Shape"></path>
                <path d="M131.125,20.125 L120.5,20.125 C120,20.125 119.5,20.5 119.5,21.125 C119.5,21.625 119.875,22.125 120.5,22.125 L131.125,22.125 C131.625,22.125 132.125,21.75 132.125,21.125 C132.125,20.625 131.625,20.125 131.125,20.125 Z" id="Shape"></path>
                <path d="M112.625,20.125 C112.125,20.125 111.625,20.5 111.625,21.125 C111.625,21.625 112,22.125 112.625,22.125 L116,22.125 C116.5,22.125 117,21.75 117,21.125 C117,20.625 116.625,20.125 116,20.125 L112.625,20.125 Z" id="Shape"></path>
                <path d="M26.25,145.75 L11.125,145.75 C10.625,145.75 10.125,146.125 10.125,146.75 C10.125,147.25 10.5,147.75 11.125,147.75 L26.25,147.75 C26.75,147.75 27.25,147.375 27.25,146.75 C27.25,146.25 26.75,145.75 26.25,145.75 Z" id="Shape"></path>
                <path d="M6.125,145.75 L1.25,145.75 C0.75,145.75 0.25,146.125 0.25,146.75 C0.25,147.25 0.625,147.75 1.25,147.75 L6.125,147.75 C6.625,147.75 7.125,147.375 7.125,146.75 C7,146.25 6.625,145.75 6.125,145.75 Z" id="Shape"></path>
                <path d="M1.25,142.5 L11.875,142.5 C12.375,142.5 12.875,142.125 12.875,141.5 C12.875,141 12.5,140.5 11.875,140.5 L1.25,140.5 C0.75,140.5 0.25,140.875 0.25,141.5 C0.25,142 0.625,142.5 1.25,142.5 Z" id="Shape"></path>
                <path d="M19.75,142.5 C20.25,142.5 20.75,142.125 20.75,141.5 C20.75,141 20.375,140.5 19.75,140.5 L16.375,140.5 C15.875,140.5 15.375,140.875 15.375,141.5 C15.375,142 15.75,142.5 16.375,142.5 L19.75,142.5 Z" id="Shape"></path>
                <path d="M3.625,57.75 C4.125,57.75 4.625,57.375 4.625,56.75 L4.625,40.5 C4.625,40 4.25,39.5 3.625,39.5 C3.125,39.5 2.625,39.875 2.625,40.5 L2.625,56.75 C2.75,57.25 3.125,57.75 3.625,57.75 Z" id="Shape"></path>
                <path d="M3.625,68.25 C4.125,68.25 4.625,67.875 4.625,67.25 L4.625,62 C4.625,61.5 4.25,61 3.625,61 C3.125,61 2.625,61.375 2.625,62 L2.625,67.25 C2.75,67.875 3.125,68.25 3.625,68.25 Z" id="Shape"></path>
                <path d="M74.25,4.75 L74.5,4.75 L82.375,3 C82.75,2.875 83.125,2.5 83.125,2.125 L83.125,1.875 C83,1.375 82.5,1 82,1.125 L74.125,2.875 C73.75,3 73.375,3.375 73.375,3.75 L73.375,4 C73.5,4.375 73.875,4.75 74.25,4.75 Z" id="Shape"></path>
                <path d="M75,11.125 L75,11.375 C75.125,11.75 75.5,12.125 75.875,12.125 L76.125,12.125 L86.875,9.625 C87.25,9.5 87.625,9.125 87.625,8.75 L87.625,8.5 C87.5,8 87,7.625 86.5,7.75 L75.75,10.25 C75.375,10.375 75,10.75 75,11.125 Z" id="Shape"></path>
                <path d="M76.75,18.5 L76.75,18.75 C76.875,19.125 77.25,19.5 77.625,19.5 L77.875,19.5 L89.5,16.75 C89.875,16.625 90.25,16.25 90.25,15.875 L90.25,15.625 C90.125,15.125 89.625,14.75 89.125,14.875 L77.5,17.625 C77,17.625 76.75,18 76.75,18.5 Z" id="Shape"></path>
                <path d="M89.875,22.375 L79.125,24.875 C78.75,25 78.375,25.375 78.375,25.75 L78.375,26 C78.5,26.375 78.875,26.75 79.25,26.75 L79.5,26.75 L90.25,24.25 C90.625,24.125 91,23.75 91,23.375 L91,23.125 C90.875,22.625 90.375,22.25 89.875,22.375 Z" id="Shape"></path>
                <path d="M88.75,30.5 L80.875,32.25 C80.5,32.375 80.125,32.75 80.125,33.125 L80.125,33.375 C80.25,33.75 80.625,34.125 81,34.125 L81.25,34.125 L89.125,32.375 C89.5,32.25 89.875,31.875 89.875,31.5 L89.875,31.25 C89.75,30.625 89.25,30.375 88.75,30.5 Z" id="Shape"></path>
                <path d="M53.5,19.5 C53.75,19.5 53.875,19.375 54.125,19.25 L64.875,10.125 C65.25,9.75 65.375,9.25 65,8.75 C64.625,8.375 64.125,8.25 63.625,8.625 L52.875,17.75 C52.5,18.125 52.375,18.625 52.75,19.125 C52.875,19.375 53.25,19.5 53.5,19.5 Z" id="Shape"></path>
                <path d="M30.875,63.75 C31,64.125 31.375,64.5 31.75,64.5 L32,64.5 C32.5,64.375 32.875,63.875 32.75,63.375 L32.125,60.875 C32,60.375 31.5,60 31,60.125 C30.5,60.25 30.125,60.75 30.25,61.25 L30.875,63.75 Z" id="Shape"></path>
                <path d="M141.75,88.625 L141.75,45.875 C141.75,42.75 139.125,40.125 136,40.125 L49.125,40.125 L47.75,34 L50.875,33.25 L71.5,38.75 L72.125,38.875 C72.5,39 73,39 73.375,39 C73.75,39 74.125,39 74.5,38.875 L78.25,38 C78.75,37.875 79.125,37.375 79,36.875 L78.875,36.125 C78.875,36 78.75,35.875 78.625,35.75 C76.25,33.125 73.75,26.625 72.125,19.375 C70.625,12.375 70.125,5.875 70.875,2.25 L70.875,1.875 L70.75,1.5 C70.75,1.25 70.5,1 70.375,0.875 C70.125,0.75 69.875,0.625 69.625,0.75 L66,1.625 C65.25,1.75 64.5,2.125 63.75,2.75 L47.125,16.75 L31.75,20.25 C27.25,21.25 24.375,25.875 25.375,30.375 C26.375,34.875 31,37.75 35.5,36.75 L38.875,36 L39.75,40 L15,40 C11.875,40 9.25,42.625 9.25,45.75 L9.25,124.125 C9.25,127.25 11.875,129.875 15,129.875 L52.875,129.875 L54.125,131.125 C54.25,131.25 54.5,131.375 54.75,131.375 C55,131.375 55.25,131.25 55.375,131.125 L56.625,129.875 L68,129.875 L63.625,143.625 L56.5,143.625 C54.5,143.625 52.875,145.25 52.875,147.25 L52.875,147.375 C52.875,149.375 54.5,151 56.5,151 L94.125,151 C96.125,151 97.75,149.375 97.75,147.375 L97.75,147.25 C97.75,145.25 96.125,143.625 94.125,143.625 L87,143.625 L82.625,129.875 L111.125,129.875 L111.125,136.875 L111.125,137.875 L111.125,138.75 C111.125,142.375 114.125,145.375 117.75,145.375 L141.5,145.375 C142.125,145.375 142.875,145.25 143.375,145.125 C143.5,145.125 143.625,145 143.75,145 L143.875,145 C144,145 144,145 144.125,144.875 C144.375,144.75 144.5,144.75 144.625,144.625 C144.875,144.5 145.25,144.25 145.5,144 C145.625,143.875 145.75,143.75 145.875,143.75 C146,143.625 146.125,143.5 146.25,143.375 L146.375,143.25 C146.5,143.125 146.625,142.875 146.75,142.875 C146.875,142.625 147,142.5 147.125,142.375 C147.25,142.25 147.375,142.125 147.375,142 C147.5,141.875 147.5,141.625 147.625,141.5 C148,140.625 148.125,139.75 148.125,138.875 L148.125,138 L148.125,137 L148.125,97.625 L148.125,95.75 L148.125,95.25 C148.375,91.625 145.375,88.625 141.75,88.625 Z M135.875,41.875 C138,41.875 139.75,43.625 139.75,45.75 L139.75,88.5 L136.625,88.5 L136.625,46 C136.625,45.5 136.25,45 135.625,45 L58.75,45 C58,43.875 56.625,43.375 55.375,43.75 L51.875,44.625 C51.875,44.375 52,44.125 52,43.875 C52,43.625 52,43.375 51.875,43.125 C51.875,42.875 51.75,42.625 51.625,42.5 C51.625,42.375 51.5,42.375 51.5,42.25 C51.375,42.125 51.375,42 51.25,41.875 C51.25,41.875 135.875,41.875 135.875,41.875 Z M48.125,42.5 L48.125,42.5 L48.875,42.5 C49,42.5 49.25,42.625 49.375,42.75 C49.75,43 49.875,43.25 50,43.625 L50,44 C50,44.5 49.75,45 49.25,45.25 C49.25,45.25 49.125,45.375 49,45.375 L45.375,46.25 C44.875,46.375 44.5,46.875 44.625,47.375 C44.75,47.75 45.125,48.125 45.5,48.125 L45.75,48.125 L49.375,47.25 C49.5,47.25 49.625,47.25 49.625,47.125 L49.875,47.125 L50.375,47 L55.875,45.75 C56.5,45.625 57.25,45.875 57.5,46.5 C57.5,46.625 57.625,46.75 57.625,46.75 L57.625,47.125 C57.625,47.75 57.125,48.375 56.5,48.5 L50.5,49.875 C50,50 49.625,50.5 49.75,51 C49.875,51.375 50.25,51.75 50.625,51.75 L50.875,51.75 L53,51.25 L59,49.875 C59.375,49.75 59.75,49.875 60.125,50 C60.5,50.25 60.625,50.5 60.75,50.875 C60.875,51.625 60.5,52.375 59.625,52.625 L57.75,53 C57.75,53 57.75,53 57.625,53 L51.625,54.375 C51.125,54.5 50.75,55 50.875,55.5 C51,56 51.5,56.375 52,56.25 L53.875,55.875 L54,55.875 L58.125,54.875 C58.5,54.75 58.875,54.875 59.125,55 C59.5,55.25 59.625,55.5 59.75,55.875 C59.875,56.25 59.75,56.625 59.625,57 C59.375,57.375 59.125,57.5 58.75,57.625 L56.25,58.25 L51.375,59.375 C50.875,59.5 50.5,60 50.625,60.5 C50.75,61 51.25,61.375 51.75,61.25 L53.125,60.875 L56.875,60 L57.125,60 C57.5,59.875 57.875,60 58.25,60.125 C58.5,60.25 58.75,60.625 58.875,61 C59,61.75 58.625,62.5 57.75,62.75 C54.75,63.625 46.375,65.75 44.375,65.75 C42.125,65.75 41,65.375 40,65 C39.75,64.875 39.5,64.875 39.25,64.75 C38.375,64.5 37.375,64.5 36.625,64.625 L36.625,64.5 L33.375,50.625 L34,50.5 C35.75,50.125 37.25,48.75 38,47.125 C38.125,46.875 38.25,46.625 38.375,46.375 C39.125,45.125 40.375,44.125 41.75,43.875 L44,43.375 L48.125,42.5 Z M40.625,35.625 L41.75,35.375 L45.875,34.5 L47.375,40.875 L42.125,42.125 L41.875,40.875 L40.625,35.625 Z M35.125,34.875 C31.625,35.625 28.125,33.5 27.25,29.875 C26.5,26.375 28.625,22.75 32.25,22 L47.875,18.375 C48,18.375 48.125,18.25 48.25,18.125 L64.5,4.5 L65.125,4 C65.5,3.625 66,3.375 66.5,3.375 L68.875,2.875 C68.25,6.875 68.75,13.125 70.25,19.75 C71.875,27 74.375,33.375 76.75,36.5 L74.125,37.125 C73.625,37.25 73.125,37.25 72.625,37.125 L51.125,31.5 L50.875,31.5 L50.625,31.5 L46.375,32.5 C46.375,32.5 46.375,32.5 46.25,32.5 L40,34 L35.125,34.875 Z M15,128 C12.875,128 11.125,126.25 11.125,124.125 L11.125,45.75 C11.125,43.625 12.875,41.875 15,41.875 L40.125,41.875 L40.25,42.5 L40.125,42.5 C40,42.5 39.875,42.625 39.875,42.625 C39.625,42.75 39.375,42.875 39.125,43 C39,43.125 38.875,43.125 38.75,43.25 C38.5,43.375 38.25,43.625 38.125,43.75 C38,43.875 38,43.875 37.875,44 C37.625,44.25 37.375,44.625 37.125,44.875 L15.25,44.875 C14.75,44.875 14.25,45.25 14.25,45.875 L14.25,123.75 C14.25,124.25 14.625,124.75 15.25,124.75 L43.75,124.75 L44.375,126.5 C44.5,126.875 44.875,127.125 45.25,127.125 C45.625,127.125 46,126.875 46.125,126.625 L47,124.75 L47.875,124.75 L51,128 L15,128 Z M55.75,128.25 L54.875,129.125 L54,128.25 L48.875,123.125 L47.625,121.875 C47.5,121.75 47.375,121.75 47.25,121.625 L47.125,121.625 L46.875,121.625 L46.75,121.625 C46.5,121.625 46.25,121.875 46,122.125 L45.375,123.375 L45.125,123.75 L45,123.375 L41.25,113.75 L46.75,115.875 L51.25,117.625 L49.625,118.375 C49.375,118.5 49.125,118.75 49.125,119.125 C49.125,119.375 49.125,119.75 49.375,120 L53.875,124.5 L56.5,127.125 L55.75,128.25 Z M39,112.5 L39.625,114.125 L26.25,114.125 C25.5,114.125 24.875,113.5 24.875,112.75 L24.875,95.25 C24.875,94.5 25.5,93.875 26.25,93.875 L52.875,93.875 C53.625,93.875 54.25,94.5 54.25,95.25 L54.25,112.75 C54.25,113.5 53.625,114.125 52.875,114.125 L47.5,114.125 L40.125,111.25 C39.75,111.125 39.375,111.25 39.125,111.5 C38.875,111.875 38.875,112.25 39,112.5 Z M94.25,145.5 C95.25,145.5 96,146.25 96,147.25 L96,147.375 C96,148.375 95.25,149.125 94.25,149.125 L56.75,149.125 C55.75,149.125 55,148.375 55,147.375 L55,147.25 C55,146.25 55.75,145.5 56.75,145.5 L64.5,145.5 L86.5,145.5 L94.25,145.5 Z M85.25,143.625 L65.75,143.625 L70.125,129.875 L80.75,129.875 L85.25,143.625 Z M58.625,128 L58.625,128 C58.875,127.75 59,127.5 59,127.25 C59,127 58.875,126.75 58.75,126.625 L57,124.875 L111.25,124.875 L111.25,128 L58.625,128 Z M113,90.875 C112.75,91.125 112.625,91.375 112.5,91.625 L112.375,91.75 C111.75,92.875 111.375,94 111.375,95.25 L111.375,95.75 L111.375,97.625 L111.375,123 L55.125,123 L51.875,119.75 L53.875,118.75 C54.25,118.625 54.375,118.25 54.375,117.875 L54.375,117.5 C54.375,117.125 54.125,116.75 53.75,116.625 L52.25,116 L52.75,116 C54.625,116 56,114.5 56,112.75 L56,95.25 C56,93.375 54.5,92 52.75,92 L26.25,92 C24.375,92 23,93.5 23,95.25 L23,112.75 C23,114.625 24.5,116 26.25,116 L40.375,116 L43,122.875 L16.25,122.875 L16.25,47 L36.125,47 C35.625,47.875 34.75,48.625 33.625,48.875 L32.5,49.125 C32.375,49.125 32.375,49 32.25,49 C31.625,48.625 30.75,48.5 30,48.75 C28.25,49.25 26.5,49.75 24.75,50.125 C24.25,50.25 24,50.75 24.125,51.25 C24.25,51.75 24.75,52.125 25.25,51.875 C27,51.375 28.75,51 30.5,50.375 C30.75,50.25 31,50.25 31.25,50.375 C31.375,50.5 31.5,50.5 31.5,50.75 L34.75,64.875 C34.75,65 34.75,65.125 34.625,65.25 C34.5,65.5 34.25,65.625 34,65.625 C31.375,66.125 28.75,66.625 26.125,67.25 C25.625,67.375 25.25,67.875 25.375,68.375 C25.5,68.75 25.875,69.125 26.25,69.125 L26.5,69.125 C29,68.5 31.625,68 34.25,67.625 C35,67.5 35.625,67.125 36,66.625 C36.5,66.5 37.75,66.375 38.625,66.625 C38.875,66.75 39.125,66.75 39.375,66.875 C40.5,67.25 41.875,67.625 44.25,67.625 L44.375,67.625 C47,67.625 57.125,64.875 58.25,64.5 C60,64.125 61.125,62.25 60.75,60.5 C60.625,60 60.375,59.5 60,59.125 C60.5,58.875 60.875,58.5 61.25,58 C61.75,57.25 61.875,56.375 61.625,55.5 C61.5,55 61.25,54.5 60.875,54 C62.125,53.25 62.875,51.875 62.5,50.375 C62.25,49.5 61.75,48.75 61,48.25 C60.5,47.875 59.75,47.75 59.125,47.75 C59.25,47.5 59.25,47.25 59.25,47 L59.25,46.875 L134.5,46.875 L134.5,88.5 L118,88.5 L117.25,88.5 L117.125,88.5 C117,88.5 116.75,88.5 116.625,88.625 L116.25,88.5 L116,88.75 C115.875,88.75 115.75,88.875 115.625,88.875 C115,89.125 114.5,89.375 114.125,89.75 C113.875,89.875 113.625,90.125 113.5,90.25 C113.375,90.5 113.25,90.625 113,90.875 Z M146.5,138.75 C146.5,139.375 146.375,140 146.125,140.625 C146.125,140.75 146,140.75 146,140.875 C146,141 145.875,141.125 145.75,141.25 C145.75,141.375 145.625,141.5 145.5,141.625 C145.375,141.75 145.375,141.875 145.25,141.875 L145.125,142 C145,142.125 145,142.125 144.875,142.25 C144.875,142.25 144.75,142.375 144.625,142.375 C144.375,142.625 144.25,142.75 144,142.75 C143.875,142.75 143.75,142.875 143.625,142.875 L143.5,143 C143.375,143 143.25,143.125 143.125,143.125 C142.625,143.25 142.25,143.375 141.75,143.375 L118,143.375 C115.375,143.375 113.25,141.25 113.25,138.625 L113.25,137.75 L146.5,137.75 L146.5,138.75 L146.5,138.75 Z M146.5,136 L113.25,136 L113.25,129 L113.25,123.875 L113.25,97.625 L146.5,97.625 L146.5,136 L146.5,136 Z M146.875,95.75 L146.5,95.75 L113.25,95.75 L113.25,95.25 C113.25,94.25 113.5,93.375 114.125,92.5 C114.25,92.375 114.375,92.125 114.5,92 C114.625,91.875 114.625,91.75 114.875,91.625 C115,91.5 115.125,91.375 115.25,91.25 C115.625,91 116,90.75 116.5,90.625 L116.625,90.625 L117.125,90.5 C117.25,90.5 117.375,90.5 117.5,90.375 L117.625,90.375 L118.25,90.375 L135.875,90.375 L141,90.375 L142,90.375 C144.625,90.375 146.875,92.5 146.875,95.25 L146.875,95.75 L146.875,95.75 Z" id="Shape"></path>
                <path d="M132.25,92.5 L127.5,92.5 C127,92.5 126.5,92.875 126.5,93.5 C126.5,94 126.875,94.5 127.5,94.5 L132.375,94.5 C132.875,94.5 133.375,94.125 133.375,93.5 C133.25,92.875 132.875,92.5 132.25,92.5 Z" id="Shape"></path>
                <path d="M123.75,141.875 L135.875,141.875 C136.375,141.875 136.875,141.5 136.875,140.875 C136.875,140.375 136.5,139.875 135.875,139.875 L123.75,139.875 C123.25,139.875 122.75,140.25 122.75,140.875 C122.875,141.5 123.25,141.875 123.75,141.875 Z" id="Shape"></path>
                <path d="M46,104.125 C46,103.75 45.75,103.5 45.5,103.25 L36,98.25 C35.75,98.125 35.375,98.125 35.125,98.25 C34.875,98.375 34.625,98.75 34.625,99 L34.625,108.875 C34.625,109.25 34.75,109.5 35.125,109.625 C35.25,109.75 35.5,109.75 35.625,109.75 C35.75,109.75 35.875,109.75 36,109.625 L45.5,104.625 C45.875,104.75 46,104.375 46,104.125 Z M36.5,107.5 L36.5,100.75 L43,104.125 L36.5,107.5 Z" id="Shape"></path>
                <path d="M91,57.75 C81,57.75 72.875,65.875 72.875,75.875 C72.875,78 73.25,80 73.875,81.875 C73.875,82 73.875,82 74,82.125 C76.5,89 83.125,94 91,94 C98.875,94 105.5,89 108,82 C108.625,80.125 109.125,78 109.125,75.875 C109.125,73.75 108.75,71.75 108,69.75 C105.5,62.75 98.875,57.75 91,57.75 Z M105.75,69.25 L98.875,69.25 C98.25,65.5 96.875,62.375 95.375,60.375 C100,61.625 103.875,64.875 105.75,69.25 Z M97.625,75.875 C97.625,77.625 97.5,79.25 97.375,80.75 L84.75,80.75 C84.5,79.25 84.5,77.625 84.5,75.875 C84.5,74.125 84.625,72.5 84.75,71 L97.375,71 C97.5,72.625 97.625,74.125 97.625,75.875 Z M91,59.75 C93.375,59.75 95.875,63.375 97,69.25 L85,69.25 C86.125,63.375 88.625,59.75 91,59.75 Z M86.75,60.25 C85.125,62.25 83.875,65.375 83.25,69.125 L76.375,69.125 C78.25,64.875 82.125,61.625 86.75,60.25 Z M74.875,75.875 C74.875,74.25 75.125,72.625 75.625,71 L82.875,71 C82.625,72.5 82.625,74.125 82.625,75.875 C82.625,77.5 82.75,79.125 82.875,80.75 L75.625,80.75 C75.125,79.25 74.875,77.625 74.875,75.875 Z M76.25,82.625 L83.125,82.625 C83.75,86.375 85.125,89.5 86.625,91.5 C82.125,90.25 78.25,86.875 76.25,82.625 Z M91,92.125 C88.625,92.125 86.125,88.5 85,82.625 L97,82.625 C95.875,88.5 93.375,92.125 91,92.125 Z M95.375,91.5 C97,89.5 98.25,86.375 98.875,82.625 L105.75,82.625 C103.875,86.875 100,90.25 95.375,91.5 Z M106.5,80.75 L99.25,80.75 C99.5,79.25 99.5,77.625 99.5,75.875 C99.5,74.25 99.375,72.625 99.25,71 L106.5,71 C107,72.5 107.25,74.125 107.25,75.875 C107.25,77.625 107,79.25 106.5,80.75 Z" id="Shape"></path>
                <path d="M133.5,122.25 C133.5,121.75 133.125,121.25 132.5,121.25 L117.375,121.25 C116.875,121.25 116.375,121.625 116.375,122.25 C116.375,122.75 116.75,123.25 117.375,123.25 L132.5,123.25 C133,123.25 133.5,122.875 133.5,122.25 Z" id="Shape"></path>
                <path d="M142.375,121.25 L137.5,121.25 C137,121.25 136.5,121.625 136.5,122.25 C136.5,122.75 137,123.25 137.5,123.25 L142.375,123.25 C142.875,123.25 143.375,122.875 143.375,122.25 C143.375,121.75 143,121.25 142.375,121.25 Z" id="Shape"></path>
                <path d="M142.375,126.5 L131.75,126.5 C131.25,126.5 130.75,126.875 130.75,127.5 C130.75,128 131.125,128.5 131.75,128.5 L142.375,128.5 C142.875,128.5 143.375,128.125 143.375,127.5 C143.375,127 142.875,126.5 142.375,126.5 Z" id="Shape"></path>
                <path d="M127.25,126.5 L123.875,126.5 C123.375,126.5 122.875,126.875 122.875,127.5 C122.875,128 123.25,128.5 123.875,128.5 L127.25,128.5 C127.75,128.5 128.25,128.125 128.25,127.5 C128.25,127 127.875,126.5 127.25,126.5 Z" id="Shape"></path>
                <path d="M117.125,117.75 L142.625,117.75 C143.125,117.75 143.625,117.375 143.625,116.75 L143.625,102.25 C143.625,101.75 143.25,101.25 142.625,101.25 L117.125,101.25 C116.625,101.25 116.125,101.625 116.125,102.25 L116.125,116.875 C116.125,117.375 116.625,117.75 117.125,117.75 Z M118,103.125 L141.625,103.125 L141.625,115.875 L118,115.875 L118,103.125 Z" id="Shape"></path>
            </g>
        </g>
    </g>
</svg>